<svg width="60" height="60" viewBox="0 0 60 60" fill="none" xmlns="http://www.w3.org/2000/svg">
<rect width="60" height="60" fill="url(#paint0_linear_249_10194)"/>
<path d="M18.2461 35.6201V37H11.8477V35.6201H18.2461ZM12.1816 24.2031V37H10.4854V24.2031H12.1816ZM19.5117 32.3506V32.1484C19.5117 31.4629 19.6113 30.8271 19.8105 30.2412C20.0098 29.6494 20.2969 29.1367 20.6719 28.7031C21.0469 28.2637 21.501 27.9238 22.0342 27.6836C22.5674 27.4375 23.165 27.3145 23.8271 27.3145C24.4951 27.3145 25.0957 27.4375 25.6289 27.6836C26.168 27.9238 26.625 28.2637 27 28.7031C27.3809 29.1367 27.6709 29.6494 27.8701 30.2412C28.0693 30.8271 28.1689 31.4629 28.1689 32.1484V32.3506C28.1689 33.0361 28.0693 33.6719 27.8701 34.2578C27.6709 34.8438 27.3809 35.3564 27 35.7959C26.625 36.2295 26.1709 36.5693 25.6377 36.8154C25.1104 37.0557 24.5127 37.1758 23.8447 37.1758C23.1768 37.1758 22.5762 37.0557 22.043 36.8154C21.5098 36.5693 21.0527 36.2295 20.6719 35.7959C20.2969 35.3564 20.0098 34.8438 19.8105 34.2578C19.6113 33.6719 19.5117 33.0361 19.5117 32.3506ZM21.1377 32.1484V32.3506C21.1377 32.8252 21.1934 33.2734 21.3047 33.6953C21.416 34.1113 21.583 34.4805 21.8057 34.8027C22.0342 35.125 22.3184 35.3799 22.6582 35.5674C22.998 35.749 23.3936 35.8398 23.8447 35.8398C24.29 35.8398 24.6797 35.749 25.0137 35.5674C25.3535 35.3799 25.6348 35.125 25.8574 34.8027C26.0801 34.4805 26.2471 34.1113 26.3584 33.6953C26.4756 33.2734 26.5342 32.8252 26.5342 32.3506V32.1484C26.5342 31.6797 26.4756 31.2373 26.3584 30.8213C26.2471 30.3994 26.0771 30.0273 25.8486 29.7051C25.626 29.377 25.3447 29.1191 25.0049 28.9316C24.6709 28.7441 24.2783 28.6504 23.8271 28.6504C23.3818 28.6504 22.9893 28.7441 22.6494 28.9316C22.3154 29.1191 22.0342 29.377 21.8057 29.7051C21.583 30.0273 21.416 30.3994 21.3047 30.8213C21.1934 31.2373 21.1377 31.6797 21.1377 32.1484ZM36.3691 27.4902H37.8457V36.7979C37.8457 37.6357 37.6758 38.3506 37.3359 38.9424C36.9961 39.5342 36.5215 39.9824 35.9121 40.2871C35.3086 40.5977 34.6113 40.7529 33.8203 40.7529C33.4922 40.7529 33.1055 40.7002 32.6602 40.5947C32.2207 40.4951 31.7871 40.3223 31.3594 40.0762C30.9375 39.8359 30.583 39.5107 30.2959 39.1006L31.1484 38.1338C31.5469 38.6143 31.9629 38.9482 32.3965 39.1357C32.8359 39.3232 33.2695 39.417 33.6973 39.417C34.2129 39.417 34.6582 39.3203 35.0332 39.127C35.4082 38.9336 35.6982 38.6465 35.9033 38.2656C36.1143 37.8906 36.2197 37.4277 36.2197 36.877V29.582L36.3691 27.4902ZM29.8213 32.3506V32.166C29.8213 31.4395 29.9062 30.7803 30.0762 30.1885C30.252 29.5908 30.501 29.0781 30.8232 28.6504C31.1514 28.2227 31.5469 27.8945 32.0098 27.666C32.4727 27.4316 32.9941 27.3145 33.5742 27.3145C34.1719 27.3145 34.6934 27.4199 35.1387 27.6309C35.5898 27.8359 35.9707 28.1377 36.2812 28.5361C36.5977 28.9287 36.8467 29.4033 37.0283 29.96C37.21 30.5166 37.3359 31.1465 37.4062 31.8496V32.6582C37.3418 33.3555 37.2158 33.9824 37.0283 34.5391C36.8467 35.0957 36.5977 35.5703 36.2812 35.9629C35.9707 36.3555 35.5898 36.6572 35.1387 36.8682C34.6875 37.0732 34.1602 37.1758 33.5566 37.1758C32.9883 37.1758 32.4727 37.0557 32.0098 36.8154C31.5527 36.5752 31.1602 36.2383 30.832 35.8047C30.5039 35.3711 30.252 34.8613 30.0762 34.2754C29.9062 33.6836 29.8213 33.042 29.8213 32.3506ZM31.4473 32.166V32.3506C31.4473 32.8252 31.4941 33.2705 31.5879 33.6865C31.6875 34.1025 31.8369 34.4688 32.0361 34.7852C32.2412 35.1016 32.502 35.3506 32.8184 35.5322C33.1348 35.708 33.5127 35.7959 33.9521 35.7959C34.4912 35.7959 34.9365 35.6816 35.2881 35.4531C35.6396 35.2246 35.918 34.9229 36.123 34.5479C36.334 34.1729 36.498 33.7656 36.6152 33.3262V31.208C36.5508 30.8857 36.4512 30.5752 36.3164 30.2764C36.1875 29.9717 36.0176 29.7021 35.8066 29.4678C35.6016 29.2275 35.3467 29.0371 35.042 28.8965C34.7373 28.7559 34.3799 28.6855 33.9697 28.6855C33.5244 28.6855 33.1406 28.7793 32.8184 28.9668C32.502 29.1484 32.2412 29.4004 32.0361 29.7227C31.8369 30.0391 31.6875 30.4082 31.5879 30.8301C31.4941 31.2461 31.4473 31.6914 31.4473 32.166ZM39.8848 32.3506V32.1484C39.8848 31.4629 39.9844 30.8271 40.1836 30.2412C40.3828 29.6494 40.6699 29.1367 41.0449 28.7031C41.4199 28.2637 41.874 27.9238 42.4072 27.6836C42.9404 27.4375 43.5381 27.3145 44.2002 27.3145C44.8682 27.3145 45.4688 27.4375 46.002 27.6836C46.541 27.9238 46.998 28.2637 47.373 28.7031C47.7539 29.1367 48.0439 29.6494 48.2432 30.2412C48.4424 30.8271 48.542 31.4629 48.542 32.1484V32.3506C48.542 33.0361 48.4424 33.6719 48.2432 34.2578C48.0439 34.8438 47.7539 35.3564 47.373 35.7959C46.998 36.2295 46.5439 36.5693 46.0107 36.8154C45.4834 37.0557 44.8857 37.1758 44.2178 37.1758C43.5498 37.1758 42.9492 37.0557 42.416 36.8154C41.8828 36.5693 41.4258 36.2295 41.0449 35.7959C40.6699 35.3564 40.3828 34.8438 40.1836 34.2578C39.9844 33.6719 39.8848 33.0361 39.8848 32.3506ZM41.5107 32.1484V32.3506C41.5107 32.8252 41.5664 33.2734 41.6777 33.6953C41.7891 34.1113 41.9561 34.4805 42.1787 34.8027C42.4072 35.125 42.6914 35.3799 43.0312 35.5674C43.3711 35.749 43.7666 35.8398 44.2178 35.8398C44.6631 35.8398 45.0527 35.749 45.3867 35.5674C45.7266 35.3799 46.0078 35.125 46.2305 34.8027C46.4531 34.4805 46.6201 34.1113 46.7314 33.6953C46.8486 33.2734 46.9072 32.8252 46.9072 32.3506V32.1484C46.9072 31.6797 46.8486 31.2373 46.7314 30.8213C46.6201 30.3994 46.4502 30.0273 46.2217 29.7051C45.999 29.377 45.7178 29.1191 45.3779 28.9316C45.0439 28.7441 44.6514 28.6504 44.2002 28.6504C43.7549 28.6504 43.3623 28.7441 43.0225 28.9316C42.6885 29.1191 42.4072 29.377 42.1787 29.7051C41.9561 30.0273 41.7891 30.3994 41.6777 30.8213C41.5664 31.2373 41.5107 31.6797 41.5107 32.1484Z" fill="white"/>
<defs>
<linearGradient id="paint0_linear_249_10194" x1="5" y1="5" x2="49.5" y2="54.5" gradientUnits="userSpaceOnUse">
<stop stop-color="#86DFE7"/>
<stop offset="1" stop-color="#516EF0"/>
</linearGradient>
</defs>
</svg>
