<svg width="72" height="72" viewBox="0 0 72 72" fill="none" xmlns="http://www.w3.org/2000/svg">
<rect width="72" height="72" rx="36" fill="url(#paint0_linear_267_389)"/>
<path fill-rule="evenodd" clip-rule="evenodd" d="M20 21.9999L20 22L20 22.0001C20 22.0019 20 22.0104 20.0061 22.0306C20.0129 22.0529 20.0297 22.0969 20.0701 22.1629C20.155 22.3011 20.3282 22.5091 20.6525 22.7646C21.3128 23.2851 22.3923 23.8412 23.9045 24.3453C26.908 25.3464 31.1846 26 36 26C40.8154 26 45.092 25.3464 48.0955 24.3453C49.6077 23.8412 50.6872 23.2851 51.3475 22.7646C51.6718 22.5091 51.845 22.3011 51.9299 22.1629C51.9703 22.0969 51.9871 22.0529 51.9939 22.0306C52 22.0104 52 22.0019 52 22.0001V22C52 21.9985 52.0002 21.9901 51.9939 21.9694C51.9871 21.9471 51.9703 21.9031 51.9299 21.8371C51.845 21.6989 51.6718 21.4909 51.3475 21.2354C50.6872 20.7149 49.6077 20.1588 48.0955 19.6547C45.092 18.6536 40.8154 18 36 18C31.1846 18 26.908 18.6536 23.9045 19.6547C22.3923 20.1588 21.3128 20.7149 20.6525 21.2354C20.3282 21.4909 20.155 21.6989 20.0701 21.8371C20.0297 21.9031 20.0129 21.9471 20.0061 21.9694C20 21.9896 20 21.9981 20 21.9999ZM22.6396 15.86C26.1508 14.6896 30.8743 14 36 14C41.1257 14 45.8492 14.6896 49.3604 15.86C51.1055 16.4417 52.6621 17.1785 53.8234 18.0937C54.9622 18.9912 56 20.2961 56 22C56 23.7039 54.9622 25.0088 53.8234 25.9063C52.6621 26.8215 51.1055 27.5583 49.3604 28.14C45.8492 29.3104 41.1257 30 36 30C30.8743 30 26.1508 29.3104 22.6396 28.14C20.8945 27.5583 19.3379 26.8215 18.1766 25.9063C17.0378 25.0088 16 23.7039 16 22C16 20.2961 17.0378 18.9912 18.1766 18.0937C19.3379 17.1785 20.8945 16.4417 22.6396 15.86Z" fill="white"/>
<path fill-rule="evenodd" clip-rule="evenodd" d="M18 34C19.1046 34 20 34.8954 20 36C20 36.0038 20.0002 36.0141 20.0068 36.036C20.0139 36.0595 20.0309 36.1042 20.0712 36.1703C20.1554 36.3086 20.327 36.5159 20.6484 36.7706C21.3032 37.2895 22.3758 37.8446 23.8833 38.3479C26.8778 39.3476 31.1535 40 36 40C40.8465 40 45.1222 39.3476 48.1167 38.3479C49.6242 37.8446 50.6968 37.2895 51.3516 36.7706C51.673 36.5159 51.8446 36.3086 51.9288 36.1703C51.9691 36.1042 51.9861 36.0595 51.9932 36.036C51.9998 36.0141 52 36.0038 52 36C52 34.8954 52.8954 34 54 34C55.1046 34 56 34.8954 56 36C56 37.6988 54.9736 39.0041 53.8359 39.9056C52.6782 40.823 51.1258 41.5604 49.3833 42.1421C45.8778 43.3124 41.1535 44 36 44C30.8465 44 26.1222 43.3124 22.6167 42.1421C20.8742 41.5604 19.3218 40.823 18.1641 39.9056C17.0264 39.0041 16 37.6988 16 36C16 34.8954 16.8954 34 18 34Z" fill="white"/>
<path fill-rule="evenodd" clip-rule="evenodd" d="M18 20C19.1046 20 20 20.8954 20 22V50C20 50.0038 20.0002 50.0141 20.0068 50.036C20.0139 50.0595 20.0309 50.1042 20.0712 50.1703C20.1554 50.3086 20.327 50.5159 20.6484 50.7706C21.3032 51.2895 22.3758 51.8446 23.8833 52.3479C26.8778 53.3476 31.1535 54 36 54C40.8465 54 45.1222 53.3476 48.1167 52.3479C49.6242 51.8446 50.6968 51.2895 51.3516 50.7706C51.673 50.5159 51.8446 50.3086 51.9288 50.1703C51.9691 50.1042 51.9861 50.0595 51.9932 50.036C51.9998 50.0141 52 50.0038 52 50V22C52 20.8954 52.8954 20 54 20C55.1046 20 56 20.8954 56 22V50C56 51.6988 54.9736 53.0041 53.8359 53.9056C52.6782 54.823 51.1258 55.5604 49.3833 56.1421C45.8778 57.3124 41.1535 58 36 58C30.8465 58 26.1222 57.3124 22.6167 56.1421C20.8742 55.5604 19.3218 54.823 18.1641 53.9056C17.0264 53.0041 16 51.6988 16 50V22C16 20.8954 16.8954 20 18 20Z" fill="white"/>
<defs>
<linearGradient id="paint0_linear_267_389" x1="36" y1="0" x2="36" y2="72" gradientUnits="userSpaceOnUse">
<stop stop-color="#FF00E6"/>
<stop offset="1" stop-color="#D9FD00"/>
</linearGradient>
</defs>
</svg>
