<svg width="72" height="72" viewBox="0 0 72 72" fill="none" xmlns="http://www.w3.org/2000/svg">
<rect width="72" height="72" rx="36" fill="url(#paint0_linear_267_429)"/>
<path fill-rule="evenodd" clip-rule="evenodd" d="M51.0187 17.2891C51.5296 17.1413 52.0707 17.1328 52.586 17.2646C53.1041 17.3972 53.5771 17.6666 53.9552 18.0448C54.3334 18.423 54.6029 18.8959 54.7354 19.4141C54.8673 19.9294 54.8588 20.4706 54.711 20.9815L44.872 55.9143C44.8714 55.9164 44.8709 55.9185 44.8703 55.9206C44.7069 56.5131 44.3655 57.0411 43.8922 57.4333C43.4171 57.8268 42.8324 58.0644 42.2175 58.1135C41.6026 58.1627 40.9874 58.0212 40.4559 57.7082C39.9282 57.3974 39.5084 56.9327 39.2526 56.3765L31.6636 40.3365L15.6235 32.7474C15.0673 32.4917 14.6026 32.0718 14.2919 31.5442C13.9789 31.0126 13.8373 30.3975 13.8865 29.7826C13.9357 29.1677 14.1732 28.5829 14.5668 28.1079C14.9589 27.6346 15.4869 27.2932 16.0793 27.1298C16.0814 27.1292 16.0836 27.1286 16.0858 27.128L51.0187 17.2891ZM51.4314 18.7312L51.836 20.168C51.838 20.1694 51.8402 20.1704 51.8425 20.171C51.8458 20.1719 51.8492 20.1718 51.8524 20.1709L51.4314 18.7312ZM51.82 20.1801L16.877 30.0219L16.8979 30.0315L32.9433 37.6231C33.5749 37.9175 34.0825 38.4251 34.3769 39.0567L41.9685 55.1022L41.9782 55.1231L41.9813 55.112L51.82 20.1801Z" fill="white"/>
<path fill-rule="evenodd" clip-rule="evenodd" d="M42.3294 29.6705C42.9151 30.2563 42.9151 31.2061 42.3294 31.7919L33.8544 40.2669C33.2686 40.8526 32.3188 40.8526 31.733 40.2669C31.1473 39.6811 31.1473 38.7313 31.733 38.1455L40.208 29.6705C40.7938 29.0848 41.7436 29.0848 42.3294 29.6705Z" fill="white"/>
<defs>
<linearGradient id="paint0_linear_267_429" x1="36" y1="0" x2="36" y2="72" gradientUnits="userSpaceOnUse">
<stop stop-color="#2300FD"/>
<stop offset="1" stop-color="#FF0000"/>
</linearGradient>
</defs>
</svg>
