<svg width="72" height="72" viewBox="0 0 72 72" fill="none" xmlns="http://www.w3.org/2000/svg">
<rect width="72" height="72" rx="36" fill="url(#paint0_linear_267_10007)"/>
<path fill-rule="evenodd" clip-rule="evenodd" d="M14 36C14 34.8954 14.8954 34 16 34H28C28.6687 34 29.2932 34.3342 29.6641 34.8906L33.0704 40H38.9296L42.3359 34.8906C42.7068 34.3342 43.3313 34 44 34H56C57.1046 34 58 34.8954 58 36C58 37.1046 57.1046 38 56 38H45.0704L41.6641 43.1094C41.2932 43.6658 40.6687 44 40 44H32C31.3313 44 30.7068 43.6658 30.3359 43.1094L26.9296 38H16C14.8954 38 14 37.1046 14 36Z" fill="white"/>
<path fill-rule="evenodd" clip-rule="evenodd" d="M26.48 18L45.52 18C46.6363 18.0006 47.7313 18.3126 48.6799 18.9008C49.6278 19.4886 50.393 20.3289 50.8897 21.3274C50.8902 21.3282 50.8906 21.3291 50.8911 21.33L57.7883 35.1045C57.9275 35.3825 58 35.6891 58 36V48C58 49.5913 57.3679 51.1174 56.2426 52.2426C55.1174 53.3679 53.5913 54 52 54H20C18.4087 54 16.8826 53.3679 15.7574 52.2426C14.6321 51.1174 14 49.5913 14 48V36C14 35.6891 14.0725 35.3825 14.2117 35.1045L21.1089 21.33C21.1094 21.329 21.1099 21.3281 21.1104 21.3271C21.6072 20.3287 22.3723 19.4885 23.3201 18.9008C24.2687 18.3126 25.3637 18.0006 26.48 18ZM22.9 22.22L24.6883 23.1155L18 36.4727V48C18 48.5304 18.2107 49.0391 18.5858 49.4142C18.9609 49.7893 19.4696 50 20 50H52C52.5304 50 53.0391 49.7893 53.4142 49.4142C53.7893 49.0391 54 48.5304 54 48V36.4727L47.3117 23.1155L47.3089 23.11C47.1434 22.7768 46.8881 22.4964 46.5719 22.3003C46.2558 22.1043 45.8913 22.0003 45.5193 22H26.4807C26.1087 22.0003 25.7442 22.1043 25.4281 22.3003C25.1119 22.4964 24.8566 22.7768 24.6911 23.11L22.9 22.22Z" fill="white"/>
<defs>
<linearGradient id="paint0_linear_267_10007" x1="36" y1="0" x2="36" y2="72" gradientUnits="userSpaceOnUse">
<stop stop-color="#000AFF"/>
<stop offset="1" stop-color="#FD00B6"/>
</linearGradient>
</defs>
</svg>
