<svg width="72" height="72" viewBox="0 0 72 72" fill="none" xmlns="http://www.w3.org/2000/svg">
<rect width="72" height="72" rx="36" fill="url(#paint0_linear_41_6223)"/>
<path fill-rule="evenodd" clip-rule="evenodd" d="M34.5273 14.8585C34.9756 14.6017 35.4833 14.4666 36 14.4666C36.5167 14.4666 37.0244 14.6017 37.4727 14.8585L53.972 24.1394C54.4335 24.4015 54.8178 24.7807 55.0861 25.2387C55.3544 25.6967 55.4971 26.2174 55.5 26.7482L55.5 26.7562L55.5 45.2437H54L55.5 45.2518C55.4971 45.7826 55.3544 46.3033 55.0861 46.7613C54.8178 47.2193 54.4335 47.5985 53.972 47.8606L53.9666 47.8636L37.4727 57.1415C37.0244 57.3983 36.5167 57.5334 36 57.5334C35.4833 57.5334 34.9756 57.3983 34.5273 57.1415L18.0334 47.8636L18.028 47.8606C17.5665 47.5985 17.1822 47.2193 16.9139 46.7613C16.6456 46.3033 16.5029 45.7826 16.5 45.2518L16.5 45.2437V26.7482C16.5029 26.2174 16.6456 25.6967 16.9139 25.2387C17.1822 24.7807 17.5665 24.4015 18.028 24.1394L18.0334 24.1364L34.5273 14.8585ZM52.5 45.2365V26.7635C52.4999 26.7605 52.499 26.7575 52.4975 26.7549C52.4959 26.7523 52.4937 26.75 52.4911 26.7484C52.4909 26.7483 52.4912 26.7485 52.4911 26.7484L36 17.4722L19.5095 26.7481C19.5093 26.7482 19.5096 26.748 19.5095 26.7481C19.5068 26.7497 19.5041 26.7523 19.5025 26.7549C19.501 26.7575 19.5001 26.7605 19.5 26.7635V45.2365C19.5001 45.2395 19.501 45.2425 19.5025 45.2451C19.5041 45.2477 19.5063 45.25 19.5089 45.2516C19.5087 45.2515 19.5091 45.2517 19.5089 45.2516L36 54.5278L52.4905 45.2519C52.4903 45.252 52.4907 45.2518 52.4905 45.2519C52.4931 45.2503 52.4959 45.2477 52.4975 45.2451C52.499 45.2425 52.4999 45.2395 52.5 45.2365Z" fill="white"/>
<path fill-rule="evenodd" clip-rule="evenodd" d="M25.6866 20.0881C26.0867 19.3627 26.9991 19.099 27.7245 19.4991L45.912 29.5303C46.3904 29.7942 46.6875 30.2974 46.6875 30.8438V40.5938C46.6875 41.4222 46.016 42.0938 45.1875 42.0938C44.3591 42.0938 43.6875 41.4222 43.6875 40.5938V31.7295L26.2756 22.126C25.5502 21.7259 25.2865 20.8135 25.6866 20.0881Z" fill="white"/>
<path fill-rule="evenodd" clip-rule="evenodd" d="M16.896 25.2573C17.2993 24.5336 18.2129 24.274 18.9365 24.6774L36.1617 34.2789L53.0528 24.6833C53.7731 24.2741 54.6887 24.5263 55.0979 25.2467C55.5071 25.967 55.2549 26.8826 54.5346 27.2918L36.9096 37.3043C36.4539 37.5632 35.8962 37.5655 35.4384 37.3103L17.4759 27.2978C16.7523 26.8944 16.4927 25.9809 16.896 25.2573Z" fill="white"/>
<path fill-rule="evenodd" clip-rule="evenodd" d="M36.1814 34.5001C37.0098 34.507 37.6757 35.1842 37.6687 36.0126L37.4999 56.0376C37.493 56.866 36.8158 57.5319 35.9874 57.5249C35.159 57.518 34.4931 56.8408 34.5001 56.0124L34.6688 35.9874C34.6758 35.159 35.353 34.4931 36.1814 34.5001Z" fill="white"/>
<defs>
<linearGradient id="paint0_linear_41_6223" x1="36" y1="0" x2="36" y2="72" gradientUnits="userSpaceOnUse">
<stop stop-color="#FF0000"/>
<stop offset="1" stop-color="#0038FD"/>
</linearGradient>
</defs>
</svg>
