<svg width="72" height="72" viewBox="0 0 72 72" fill="none" xmlns="http://www.w3.org/2000/svg">
<rect width="72" height="72" rx="36" fill="url(#paint0_linear_267_550)"/>
<path fill-rule="evenodd" clip-rule="evenodd" d="M15 32.25C15 30.5931 16.3431 29.25 18 29.25H25.5C27.1569 29.25 28.5 30.5931 28.5 32.25V39.75C28.5 41.4069 27.1569 42.75 25.5 42.75H18C16.3431 42.75 15 41.4069 15 39.75V32.25ZM25.5 32.25H18V39.75H25.5V32.25Z" fill="white"/>
<path fill-rule="evenodd" clip-rule="evenodd" d="M40.5 21C40.5 19.3431 41.8431 18 43.5 18H52.5C54.1569 18 55.5 19.3431 55.5 21V30C55.5 31.6569 54.1569 33 52.5 33H43.5C41.8431 33 40.5 31.6569 40.5 30V21ZM52.5 21H43.5V30H52.5V21Z" fill="white"/>
<path fill-rule="evenodd" clip-rule="evenodd" d="M40.5 42C40.5 40.3431 41.8431 39 43.5 39H52.5C54.1569 39 55.5 40.3431 55.5 42V51C55.5 52.6569 54.1569 54 52.5 54H43.5C41.8431 54 40.5 52.6569 40.5 51V42ZM52.5 42H43.5V51H52.5V42Z" fill="white"/>
<path fill-rule="evenodd" clip-rule="evenodd" d="M25.5 36C25.5 35.1716 26.1716 34.5 27 34.5H34.5C35.3284 34.5 36 35.1716 36 36C36 36.8284 35.3284 37.5 34.5 37.5H27C26.1716 37.5 25.5 36.8284 25.5 36Z" fill="white"/>
<path fill-rule="evenodd" clip-rule="evenodd" d="M38.9937 27C38.6001 26.9983 38.2101 27.0746 37.8461 27.2245C37.4822 27.3744 37.1515 27.5948 36.8731 27.8731C36.5948 28.1515 36.3744 28.4822 36.2245 28.8461C36.0746 29.2101 35.9983 29.6001 36 29.9937L36 30L36 42.0063C35.9983 42.3999 36.0746 42.7899 36.2245 43.1539C36.3744 43.5178 36.5948 43.8485 36.8731 44.1269C37.1515 44.4052 37.4822 44.6256 37.8461 44.7755C38.2101 44.9254 38.6001 45.0017 38.9937 45L39 45L42 45C42.8284 45 43.5 45.6716 43.5 46.5C43.5 47.3284 42.8284 48 42 48H39.003M33 30.0029V41.9971V30.0029ZM39.0029 24H42C42.8284 24 43.5 24.6716 43.5 25.5C43.5 26.3284 42.8284 27 42 27L38.9937 27" fill="white"/>
<defs>
<linearGradient id="paint0_linear_267_550" x1="36" y1="0" x2="36" y2="72" gradientUnits="userSpaceOnUse">
<stop stop-color="#00FF0A"/>
<stop offset="1" stop-color="#0038FD"/>
</linearGradient>
</defs>
</svg>
