<svg width="72" height="72" viewBox="0 0 72 72" fill="none" xmlns="http://www.w3.org/2000/svg">
<rect width="72" height="72" rx="36" fill="url(#paint0_linear_267_486)"/>
<path fill-rule="evenodd" clip-rule="evenodd" d="M22.3715 28.6345C24.007 32.2689 27.0784 36.6208 31.2306 40.773C35.3829 44.9253 39.7347 47.9967 43.3691 49.6322C45.1915 50.4522 46.7584 50.8772 47.9854 50.9439C49.2133 51.0108 49.9245 50.717 50.3225 50.319C50.7205 49.9209 51.0143 49.2097 50.9475 47.9818C50.8807 46.7549 50.4558 45.188 49.6357 43.3656C48.0002 39.7312 44.9288 35.3793 40.7766 31.2271C36.6243 27.0748 32.2725 24.0034 28.638 22.3679C26.8157 21.5479 25.2488 21.1229 24.0218 21.0561C22.7939 20.9893 22.0827 21.2831 21.6847 21.6811C21.2867 22.0791 20.9929 22.7904 21.0597 24.0183C21.1265 25.2452 21.5514 26.8121 22.3715 28.6345ZM18.0641 24.1813C17.9703 22.4568 18.3505 20.7727 19.5634 19.5598C20.7763 18.3469 22.4604 17.9667 24.1848 18.0606C25.9102 18.1545 27.8527 18.7248 29.8691 19.6322C33.9124 21.4516 38.5562 24.7641 42.8979 29.1058C47.2395 33.4474 50.552 38.0912 52.3715 42.1345C53.2789 44.151 53.8492 46.0934 53.9431 47.8188C54.0369 49.5432 53.6567 51.2274 52.4438 52.4403C51.2309 53.6532 49.5468 54.0333 47.8224 53.9395C46.0969 53.8456 44.1545 53.2753 42.138 52.3679C38.0948 50.5485 33.4509 47.236 29.1093 42.8943C24.7677 38.5527 21.4552 33.9088 19.6357 29.8656C18.7283 27.8491 18.158 25.9067 18.0641 24.1813Z" fill="white"/>
<path fill-rule="evenodd" clip-rule="evenodd" d="M21.0597 47.9817C20.9929 49.2096 21.2867 49.9209 21.6847 50.3189C22.0827 50.7169 22.7939 51.0107 24.0218 50.9439C25.2488 50.8771 26.8157 50.4521 28.638 49.6321C32.2725 47.9966 36.6243 44.9252 40.7766 40.7729C44.9288 36.6207 48.0002 32.2688 49.6357 28.6344C50.4558 26.812 50.8807 25.2451 50.9475 24.0182C51.0143 22.7903 50.7205 22.0791 50.3225 21.681C49.9245 21.283 49.2133 20.9892 47.9853 21.0561C46.7584 21.1228 45.1915 21.5478 43.3691 22.3678C39.7347 24.0033 35.3829 27.0747 31.2306 31.227C27.0784 35.3792 24.007 39.7311 22.3715 43.3655C21.5514 45.1879 21.1265 46.7548 21.0597 47.9817ZM19.6357 42.1344C21.4552 38.0912 24.7677 33.4473 29.1093 29.1057C33.4509 24.764 38.0948 21.4515 42.138 19.6321C44.1545 18.7247 46.0969 18.1544 47.8224 18.0605C49.5468 17.9667 51.2309 18.3468 52.4438 19.5597C53.6567 20.7726 54.0369 22.4568 53.9431 24.1812C53.8492 25.9066 53.2789 27.849 52.3715 29.8655C50.552 33.9088 47.2395 38.5526 42.8979 42.8942C38.5562 47.2359 33.9124 50.5484 29.8691 52.3678C27.8527 53.2752 25.9102 53.8455 24.1848 53.9394C22.4604 54.0333 20.7763 53.6531 19.5634 52.4402C18.3505 51.2273 17.9703 49.5432 18.0641 47.8187C18.158 46.0933 18.7283 44.1509 19.6357 42.1344Z" fill="white"/>
<path d="M36 38.25C37.2426 38.25 38.25 37.2426 38.25 36C38.25 34.7574 37.2426 33.75 36 33.75C34.7574 33.75 33.75 34.7574 33.75 36C33.75 37.2426 34.7574 38.25 36 38.25Z" fill="white"/>
<defs>
<linearGradient id="paint0_linear_267_486" x1="36" y1="0" x2="36" y2="72" gradientUnits="userSpaceOnUse">
<stop stop-color="#ACFD00"/>
<stop offset="1" stop-color="#FFC700"/>
</linearGradient>
</defs>
</svg>
