<svg width="200" height="129" viewBox="0 0 200 129" fill="none" xmlns="http://www.w3.org/2000/svg">
<rect width="200" height="129" rx="16" fill="url(#paint0_linear_97_13285)"/>
<path d="M80.1094 71.625V75H68.6719V71.625H80.1094ZM69.9688 52.25V75H65.6719V52.25H69.9688ZM81.9375 66.7188V66.3906C81.9375 65.151 82.1146 64.0104 82.4688 62.9688C82.8229 61.9167 83.3385 61.0052 84.0156 60.2344C84.6927 59.4635 85.5208 58.8646 86.5 58.4375C87.4792 58 88.5938 57.7812 89.8438 57.7812C91.1146 57.7812 92.2396 58 93.2188 58.4375C94.2083 58.8646 95.0417 59.4635 95.7188 60.2344C96.3958 61.0052 96.9115 61.9167 97.2656 62.9688C97.6198 64.0104 97.7969 65.151 97.7969 66.3906V66.7188C97.7969 67.9479 97.6198 69.0885 97.2656 70.1406C96.9115 71.1823 96.3958 72.0938 95.7188 72.875C95.0417 73.6458 94.2135 74.2448 93.2344 74.6719C92.2552 75.099 91.1354 75.3125 89.875 75.3125C88.625 75.3125 87.5052 75.099 86.5156 74.6719C85.526 74.2448 84.6927 73.6458 84.0156 72.875C83.3385 72.0938 82.8229 71.1823 82.4688 70.1406C82.1146 69.0885 81.9375 67.9479 81.9375 66.7188ZM86.0625 66.3906V66.7188C86.0625 67.4583 86.1354 68.151 86.2812 68.7969C86.4271 69.4427 86.651 70.0104 86.9531 70.5C87.2552 70.9896 87.6458 71.375 88.125 71.6562C88.6146 71.9271 89.1979 72.0625 89.875 72.0625C90.5417 72.0625 91.1146 71.9271 91.5938 71.6562C92.0729 71.375 92.4635 70.9896 92.7656 70.5C93.0781 70.0104 93.3073 69.4427 93.4531 68.7969C93.599 68.151 93.6719 67.4583 93.6719 66.7188V66.3906C93.6719 65.6615 93.599 64.9792 93.4531 64.3438C93.3073 63.6979 93.0781 63.1302 92.7656 62.6406C92.4635 62.1406 92.0677 61.75 91.5781 61.4688C91.099 61.1771 90.5208 61.0312 89.8438 61.0312C89.1771 61.0312 88.6042 61.1771 88.125 61.4688C87.6458 61.75 87.2552 62.1406 86.9531 62.6406C86.651 63.1302 86.4271 63.6979 86.2812 64.3438C86.1354 64.9792 86.0625 65.6615 86.0625 66.3906ZM111.547 58.0938H115.297V74.4844C115.297 76.0156 114.964 77.3125 114.297 78.375C113.641 79.4479 112.719 80.2604 111.531 80.8125C110.344 81.375 108.964 81.6562 107.391 81.6562C106.714 81.6562 105.979 81.5625 105.188 81.375C104.406 81.1875 103.651 80.8906 102.922 80.4844C102.203 80.0885 101.604 79.5729 101.125 78.9375L102.984 76.5C103.547 77.1562 104.182 77.651 104.891 77.9844C105.599 78.3281 106.365 78.5 107.188 78.5C108.021 78.5 108.729 78.3438 109.312 78.0312C109.906 77.7292 110.359 77.2812 110.672 76.6875C110.995 76.1042 111.156 75.3854 111.156 74.5312V61.9531L111.547 58.0938ZM100.125 66.75V66.4219C100.125 65.1302 100.281 63.9583 100.594 62.9062C100.906 61.8438 101.354 60.9323 101.938 60.1719C102.531 59.4115 103.245 58.8229 104.078 58.4062C104.922 57.9896 105.87 57.7812 106.922 57.7812C108.036 57.7812 108.974 57.9844 109.734 58.3906C110.505 58.7969 111.141 59.375 111.641 60.125C112.151 60.875 112.547 61.7656 112.828 62.7969C113.12 63.8177 113.344 64.9427 113.5 66.1719V67.0625C113.354 68.2604 113.12 69.3594 112.797 70.3594C112.484 71.3594 112.068 72.2344 111.547 72.9844C111.026 73.724 110.38 74.2969 109.609 74.7031C108.839 75.1094 107.932 75.3125 106.891 75.3125C105.849 75.3125 104.911 75.099 104.078 74.6719C103.245 74.2448 102.531 73.6458 101.938 72.875C101.354 72.1042 100.906 71.1979 100.594 70.1562C100.281 69.1146 100.125 67.9792 100.125 66.75ZM104.25 66.4219V66.75C104.25 67.4792 104.323 68.1615 104.469 68.7969C104.615 69.4323 104.839 69.9948 105.141 70.4844C105.443 70.9635 105.823 71.3385 106.281 71.6094C106.74 71.8802 107.286 72.0156 107.922 72.0156C108.776 72.0156 109.474 71.8385 110.016 71.4844C110.568 71.1198 110.984 70.625 111.266 70C111.557 69.3646 111.745 68.651 111.828 67.8594V65.4062C111.776 64.7812 111.661 64.2031 111.484 63.6719C111.318 63.1406 111.083 62.6823 110.781 62.2969C110.479 61.9115 110.094 61.6094 109.625 61.3906C109.156 61.1719 108.599 61.0625 107.953 61.0625C107.328 61.0625 106.781 61.2031 106.312 61.4844C105.844 61.7552 105.458 62.1354 105.156 62.625C104.854 63.1146 104.625 63.6823 104.469 64.3281C104.323 64.974 104.25 65.6719 104.25 66.4219ZM118.281 66.7188V66.3906C118.281 65.151 118.458 64.0104 118.812 62.9688C119.167 61.9167 119.682 61.0052 120.359 60.2344C121.036 59.4635 121.865 58.8646 122.844 58.4375C123.823 58 124.938 57.7812 126.188 57.7812C127.458 57.7812 128.583 58 129.562 58.4375C130.552 58.8646 131.385 59.4635 132.062 60.2344C132.74 61.0052 133.255 61.9167 133.609 62.9688C133.964 64.0104 134.141 65.151 134.141 66.3906V66.7188C134.141 67.9479 133.964 69.0885 133.609 70.1406C133.255 71.1823 132.74 72.0938 132.062 72.875C131.385 73.6458 130.557 74.2448 129.578 74.6719C128.599 75.099 127.479 75.3125 126.219 75.3125C124.969 75.3125 123.849 75.099 122.859 74.6719C121.87 74.2448 121.036 73.6458 120.359 72.875C119.682 72.0938 119.167 71.1823 118.812 70.1406C118.458 69.0885 118.281 67.9479 118.281 66.7188ZM122.406 66.3906V66.7188C122.406 67.4583 122.479 68.151 122.625 68.7969C122.771 69.4427 122.995 70.0104 123.297 70.5C123.599 70.9896 123.99 71.375 124.469 71.6562C124.958 71.9271 125.542 72.0625 126.219 72.0625C126.885 72.0625 127.458 71.9271 127.938 71.6562C128.417 71.375 128.807 70.9896 129.109 70.5C129.422 70.0104 129.651 69.4427 129.797 68.7969C129.943 68.151 130.016 67.4583 130.016 66.7188V66.3906C130.016 65.6615 129.943 64.9792 129.797 64.3438C129.651 63.6979 129.422 63.1302 129.109 62.6406C128.807 62.1406 128.411 61.75 127.922 61.4688C127.443 61.1771 126.865 61.0312 126.188 61.0312C125.521 61.0312 124.948 61.1771 124.469 61.4688C123.99 61.75 123.599 62.1406 123.297 62.6406C122.995 63.1302 122.771 63.6979 122.625 64.3438C122.479 64.9792 122.406 65.6615 122.406 66.3906Z" fill="#3B3B3B"/>
<defs>
<linearGradient id="paint0_linear_97_13285" x1="0.483096" y1="-2.36893e-06" x2="198.834" y2="118.885" gradientUnits="userSpaceOnUse">
<stop stop-color="#B1E8FC"/>
<stop offset="1" stop-color="white"/>
</linearGradient>
</defs>
</svg>
