<svg width="260" height="215" viewBox="0 0 260 215" fill="none" xmlns="http://www.w3.org/2000/svg">
<rect y="0.5" width="260" height="214" rx="16" fill="white"/>
<path d="M172.805 10.9721C150.203 7.43657 130.82 40.33 89.8457 54.2197C48.871 68.1094 32.3927 92.1008 55.6265 123.226C78.8602 154.289 111.943 172.977 166.429 164.769C220.914 156.562 237.645 126.888 223.44 93.616C209.234 60.3438 217.631 18.0433 172.805 10.9721Z" fill="#EBF6FC"/>
<path d="M43.5046 185.288H233.289C233.92 185.288 234.425 184.783 234.425 184.152C234.425 183.52 233.92 183.015 233.289 183.015H43.5046C42.8732 183.015 42.3682 183.52 42.3682 184.152C42.3682 184.783 42.8732 185.288 43.5046 185.288Z" fill="#D4DEE8"/>
<path d="M26.7109 183.015H36.3706C37.0019 183.015 37.507 183.52 37.507 184.152C37.507 184.783 37.0019 185.288 36.3706 185.288H26.7109C26.0795 185.288 25.5745 184.783 25.5745 184.152C25.5745 183.52 26.0795 183.015 26.7109 183.015Z" fill="#D4DEE8"/>
<path d="M97.8636 194.506C97.8636 196.905 86.815 198.862 73.1778 198.862C59.5406 198.862 48.4919 196.905 48.4919 194.506C48.4919 192.107 59.5406 190.15 73.1778 190.15C86.815 190.086 97.8636 192.044 97.8636 194.506Z" fill="#E4EAEF"/>
<path d="M231.206 199.936C231.206 202.335 221.735 204.292 210.055 204.292C198.375 204.292 188.905 202.335 188.905 199.936C188.905 197.537 198.375 195.579 210.055 195.579C221.735 195.579 231.206 197.537 231.206 199.936Z" fill="#E4EAEF"/>
<path d="M114.658 183.899L98.6219 183.457H98.0537L85.3004 183.078C85.3004 183.078 84.2271 180.995 82.5856 177.523C82.5225 177.333 82.3962 177.144 82.3331 176.954C81.0072 174.113 79.4289 170.515 77.8505 166.411C77.7874 166.221 77.7242 166.032 77.598 165.843C76.4615 162.938 75.3251 159.845 74.3149 156.625C74.2518 156.435 74.1887 156.246 74.1255 156.057C73.2416 153.342 72.484 150.501 71.7895 147.723C71.7264 147.533 71.7264 147.344 71.6633 147.155C70.9056 143.998 70.3374 140.904 70.0217 137.874C69.6429 134.212 73.6204 131.75 76.7141 133.707C78.6713 134.97 81.0073 136.674 83.6589 139.136C83.7852 139.263 83.9746 139.389 84.1009 139.578C85.9318 141.283 87.9521 143.366 90.0987 145.829C90.225 146.018 90.3512 146.144 90.5407 146.334C92.8766 148.986 95.3389 152.142 97.9275 155.804C98.0537 155.994 98.18 156.12 98.3063 156.309C100.579 159.529 102.978 163.128 105.441 167.232C105.567 167.421 105.63 167.547 105.756 167.737C108.534 172.409 111.565 177.838 114.658 183.899Z" fill="url(#paint0_linear_50_12891)"/>
<path d="M98.6853 183.71C98.7484 183.836 98.6222 184.026 98.4959 184.026H98.4328C98.3065 184.026 98.1802 183.962 98.1802 183.836C98.1171 183.71 98.1171 183.584 98.054 183.457C97.612 182.005 97.1701 180.553 96.6019 179.038L82.5859 177.523C82.5227 177.333 82.3964 177.144 82.3333 176.954L96.4124 178.47C95.2129 175.123 93.6976 171.714 92.1193 168.368L77.7876 166.411C77.7244 166.221 77.6613 166.032 77.535 165.843L91.8036 167.737C90.1621 164.327 88.3943 160.918 86.6896 157.761L74.252 156.562C74.1889 156.372 74.1257 156.183 74.0626 155.994L86.374 157.193C84.6062 153.973 82.9015 151.069 81.3863 148.544L71.7266 147.723C71.6635 147.533 71.6635 147.344 71.6003 147.155L81.0706 147.975C78.1033 142.988 75.8935 139.831 75.8304 139.705C75.7673 139.578 75.7673 139.389 75.8935 139.326C76.0198 139.263 76.2092 139.263 76.2723 139.389C76.3355 139.452 78.4821 142.672 81.4494 147.597L83.596 139.136C83.7223 139.263 83.9117 139.389 84.038 139.578L81.8282 148.291C83.3435 150.816 85.0481 153.721 86.7528 156.877L89.9727 145.829C90.0989 146.018 90.2252 146.144 90.4146 146.334L87.1316 157.572C88.8362 160.729 90.604 164.075 92.2455 167.484L97.8014 155.804C97.9277 155.994 98.054 156.12 98.1802 156.309L92.5612 168.115C94.1396 171.462 95.5917 174.871 96.8544 178.217L105.314 167.168C105.441 167.358 105.504 167.484 105.63 167.674L97.1069 178.848C97.6751 180.427 98.1802 182.005 98.6222 183.52C98.6853 183.52 98.6853 183.647 98.6853 183.71Z" fill="#D4E7F4"/>
<path d="M122.172 183.773H103.105C103.105 183.773 101.527 179.543 99.5062 173.419C99.4431 173.229 99.38 173.04 99.3168 172.787C98.3067 169.631 97.1071 165.969 96.0338 162.054C95.9707 161.865 95.9075 161.612 95.8444 161.423C95.0236 158.519 94.2029 155.488 93.4453 152.458C93.3821 152.268 93.319 152.016 93.319 151.827C92.5614 148.796 91.93 145.766 91.4249 142.861C91.3618 142.672 91.3618 142.419 91.2987 142.23C89.9097 133.959 89.7834 127.078 92.4982 124.552C93.5715 123.542 98.5592 127.898 104.494 137.621C104.62 137.811 104.683 138 104.81 138.189C106.199 140.525 107.651 143.114 109.04 145.955C109.166 146.144 109.229 146.334 109.355 146.586C110.618 149.238 111.944 152.079 113.207 155.173C113.27 155.362 113.396 155.615 113.459 155.804C114.659 158.645 115.795 161.739 116.868 165.022C116.932 165.211 116.995 165.464 117.058 165.653C118.952 171.083 120.657 177.144 122.172 183.773Z" fill="url(#paint1_linear_50_12891)"/>
<path d="M109.923 175.502C110.554 178.217 111.123 180.995 111.628 183.71H111.06C110.554 180.995 109.986 178.28 109.355 175.628L99.4427 173.292C99.3795 173.103 99.3164 172.914 99.2533 172.661L109.229 174.997C108.471 171.777 107.65 168.684 106.766 165.653L95.9702 161.991C95.9071 161.802 95.844 161.549 95.7808 161.36L106.577 165.022C105.693 161.928 104.746 159.024 103.799 156.183L93.3186 152.395C93.2554 152.205 93.1923 151.953 93.1923 151.763L103.61 155.551C102.41 152.016 101.21 148.733 100.137 145.829L91.3614 142.861C91.2982 142.672 91.2982 142.419 91.2351 142.23L99.8846 145.197C96.9804 137.558 94.7075 132.697 94.6444 132.57C94.5813 132.444 94.6444 132.255 94.7707 132.191C94.8969 132.128 95.0863 132.191 95.1495 132.318C95.2126 132.444 97.4855 137.305 100.39 144.945L104.43 137.558C104.557 137.747 104.62 137.937 104.746 138.126L100.642 145.639C101.716 148.543 102.915 151.827 104.115 155.299L108.976 145.892C109.102 146.081 109.165 146.271 109.292 146.523L104.367 156.057C105.314 158.835 106.198 161.802 107.082 164.832L113.143 155.11C113.206 155.299 113.332 155.551 113.396 155.741L107.271 165.527C108.155 168.557 108.976 171.651 109.734 174.808L116.805 164.959C116.868 165.148 116.931 165.401 116.994 165.59L109.923 175.502Z" fill="#D4E7F4"/>
<path d="M95.0235 183.078H72.1055C70.7165 181.816 69.3907 180.616 68.1911 179.353C68.0017 179.164 67.8754 178.975 67.686 178.848C65.792 176.828 64.0873 174.744 62.6983 172.787C62.5721 172.598 62.4458 172.408 62.3195 172.219C60.8674 170.136 59.731 168.115 58.784 166.284C58.7208 166.095 58.5945 165.906 58.5314 165.716C55.3747 159.087 55.2484 154.226 56.7636 154.099C59.8573 153.847 63.5191 155.236 67.3703 157.445C67.5597 157.572 67.7492 157.635 67.9386 157.761C70.0852 159.087 72.2949 160.665 74.4415 162.37C74.6309 162.496 74.7571 162.623 74.9465 162.812C77.03 164.453 79.0503 166.284 80.9444 168.052C81.1338 168.178 81.2601 168.368 81.4495 168.494C89.152 175.881 95.0235 183.078 95.0235 183.078Z" fill="url(#paint2_linear_50_12891)"/>
<path d="M84.0377 183.079H83.3432C82.2068 181.626 80.9441 180.174 79.7445 178.722L68.2539 179.354C68.0645 179.164 67.9382 178.975 67.7488 178.848L79.3026 178.217C77.5348 176.26 75.767 174.366 74.0623 172.535L62.7612 172.724C62.6349 172.535 62.5086 172.346 62.3823 172.156L73.4941 171.967C71.4107 169.82 69.3903 167.863 67.6857 166.221H58.8468C58.7836 166.032 58.6574 165.843 58.5942 165.653H67.1175C64.2764 162.938 62.3192 161.297 62.2561 161.234C62.1298 161.107 62.1298 160.981 62.2561 160.855C62.3824 160.729 62.5086 160.729 62.6349 160.855C62.698 160.918 64.7184 162.623 67.6226 165.401L67.4332 157.446C67.6226 157.572 67.812 157.635 68.0014 157.761L68.1908 165.906C69.8954 167.547 71.8526 169.441 73.9361 171.588L74.5043 162.433C74.6937 162.56 74.82 162.686 75.0094 162.875L74.4412 172.156C76.1458 173.924 77.9136 175.818 79.6814 177.775L81.0703 168.115C81.2598 168.242 81.386 168.431 81.5754 168.557L80.1865 178.28C81.4492 179.922 82.775 181.5 84.0377 183.079Z" fill="#D4E7F4"/>
<path d="M72.1052 183.205H56.2583C55.6269 181.879 55.2481 180.616 54.9956 179.417C54.9325 179.227 54.9325 179.038 54.8693 178.848C54.4905 176.954 54.4905 175.376 54.6168 174.24C54.6799 173.166 55.7532 172.409 56.7634 172.661C58.9731 173.166 60.9303 173.924 62.6349 174.871C62.8243 174.934 62.9506 175.06 63.14 175.123C69.1379 178.343 72.1052 183.205 72.1052 183.205Z" fill="url(#paint3_linear_50_12891)"/>
<path d="M64.2765 183.205H63.582C62.9507 182.321 62.3193 181.5 61.7511 180.743L54.9957 179.417C54.9325 179.227 54.9325 179.038 54.8694 178.848L61.246 180.111C59.5414 177.965 58.2787 176.639 58.2787 176.576C58.1524 176.449 58.1524 176.323 58.2787 176.197C58.4049 176.071 58.5312 176.071 58.6575 176.197C58.6575 176.197 59.9833 177.586 61.7511 179.859L62.6981 174.808C62.8875 174.871 63.0138 174.997 63.2032 175.06L62.2562 180.427C62.8876 181.248 63.582 182.195 64.2765 183.205Z" fill="#D4E7F4"/>
<path d="M163.146 183.899L179.183 183.457H179.751L192.504 183.079C192.504 183.079 193.577 180.995 195.219 177.523C195.282 177.333 195.408 177.144 195.471 176.954C196.797 174.113 198.376 170.515 199.954 166.411C200.017 166.221 200.08 166.032 200.207 165.843C201.343 162.938 202.479 159.845 203.49 156.625C203.553 156.435 203.616 156.246 203.679 156.057C204.563 153.342 205.321 150.501 206.015 147.723C206.078 147.533 206.078 147.344 206.141 147.155C206.899 143.998 207.467 140.904 207.783 137.874C208.162 134.212 204.184 131.75 201.09 133.707C199.133 134.97 196.797 136.674 194.146 139.136C194.019 139.263 193.83 139.389 193.704 139.578C191.873 141.283 189.852 143.367 187.706 145.829C187.58 146.018 187.453 146.144 187.264 146.334C184.928 148.986 182.466 152.142 179.877 155.804C179.751 155.994 179.625 156.12 179.498 156.309C177.225 159.529 174.826 163.128 172.364 167.232C172.238 167.421 172.175 167.547 172.048 167.737C169.27 172.409 166.24 177.838 163.146 183.899Z" fill="url(#paint4_linear_50_12891)"/>
<path d="M179.119 183.71C179.056 183.836 179.183 184.026 179.309 184.026H179.372C179.498 184.026 179.624 183.962 179.624 183.836C179.688 183.71 179.688 183.584 179.751 183.457C180.193 182.005 180.635 180.553 181.203 179.038L195.219 177.523C195.282 177.333 195.408 177.144 195.471 176.954L181.392 178.47C182.592 175.124 184.107 171.714 185.685 168.368L200.017 166.411C200.08 166.221 200.143 166.032 200.27 165.843L186.001 167.737C187.643 164.327 189.41 160.918 191.115 157.761L203.553 156.562C203.616 156.372 203.679 156.183 203.742 155.994L191.431 157.193C193.199 153.973 194.903 151.069 196.418 148.544L206.078 147.723C206.141 147.533 206.141 147.344 206.204 147.155L196.734 147.975C199.701 142.988 201.911 139.831 201.974 139.705C202.037 139.578 202.037 139.389 201.911 139.326C201.785 139.263 201.596 139.263 201.532 139.389C201.469 139.452 199.323 142.672 196.355 147.597L194.209 139.136C194.082 139.263 193.893 139.389 193.767 139.578L195.977 148.291C194.461 150.816 192.757 153.721 191.052 156.877L187.832 145.829C187.706 146.018 187.58 146.144 187.39 146.334L190.673 157.572C188.968 160.729 187.201 164.075 185.559 167.484L180.003 155.804C179.877 155.994 179.751 156.12 179.624 156.309L185.244 168.116C183.665 171.462 182.213 174.871 180.95 178.217L172.49 167.168C172.364 167.358 172.301 167.484 172.175 167.674L180.698 178.848C180.13 180.427 179.625 182.005 179.183 183.52C179.119 183.52 179.119 183.647 179.119 183.71Z" fill="#D4E7F4"/>
<path d="M155.633 183.773H174.7C174.7 183.773 176.278 179.543 178.299 173.419C178.362 173.229 178.425 173.04 178.488 172.787C179.498 169.631 180.698 165.969 181.771 162.054C181.834 161.865 181.897 161.612 181.96 161.423C182.781 158.519 183.602 155.488 184.36 152.458C184.423 152.268 184.486 152.016 184.486 151.827C185.243 148.796 185.875 145.766 186.38 142.861C186.443 142.672 186.443 142.419 186.506 142.23C187.895 133.959 188.021 127.078 185.307 124.552C184.233 123.542 179.246 127.898 173.311 137.621C173.185 137.811 173.121 138 172.995 138.189C171.606 140.525 170.154 143.114 168.765 145.955C168.639 146.144 168.576 146.334 168.449 146.586C167.187 149.238 165.861 152.079 164.598 155.173C164.535 155.362 164.409 155.615 164.346 155.804C163.146 158.645 162.01 161.739 160.936 165.022C160.873 165.211 160.81 165.464 160.747 165.653C158.853 171.083 157.148 177.144 155.633 183.773Z" fill="url(#paint5_linear_50_12891)"/>
<path d="M167.881 175.502C167.25 178.217 166.682 180.995 166.177 183.71H166.745C167.25 180.995 167.818 178.28 168.45 175.629L178.299 173.356C178.362 173.166 178.425 172.977 178.488 172.724L168.513 175.06C169.27 171.841 170.091 168.747 170.975 165.716L181.771 162.055C181.834 161.865 181.897 161.613 181.96 161.423L171.164 165.085C172.048 161.991 172.995 159.087 173.942 156.246L184.423 152.458C184.486 152.269 184.549 152.016 184.549 151.827L174.132 155.615C175.331 152.079 176.531 148.796 177.604 145.892L186.38 142.925C186.443 142.735 186.443 142.483 186.506 142.293L177.857 145.261C180.761 137.621 183.034 132.76 183.097 132.634C183.16 132.507 183.097 132.318 182.971 132.255C182.844 132.192 182.655 132.255 182.592 132.381C182.529 132.507 180.256 137.369 177.352 145.008L173.311 137.621C173.185 137.811 173.122 138 172.995 138.189L177.099 145.703C176.026 148.607 174.826 151.89 173.627 155.362L168.765 145.955C168.639 146.145 168.576 146.334 168.45 146.586L173.374 156.12C172.427 158.898 171.543 161.865 170.659 164.896L164.598 155.173C164.535 155.362 164.409 155.615 164.346 155.804L170.47 165.59C169.586 168.621 168.765 171.714 168.008 174.871L160.936 165.022C160.873 165.211 160.81 165.464 160.747 165.653L167.881 175.502Z" fill="#D4E7F4"/>
<path d="M182.781 183.078H205.699C207.088 181.816 208.414 180.616 209.613 179.353C209.803 179.164 209.929 178.975 210.119 178.848C212.013 176.828 213.717 174.745 215.106 172.787C215.232 172.598 215.359 172.409 215.485 172.219C216.937 170.136 218.074 168.115 219.021 166.284C219.084 166.095 219.21 165.906 219.273 165.716C222.43 159.087 222.556 154.226 221.041 154.099C217.947 153.847 214.285 155.236 210.434 157.445C210.245 157.572 210.055 157.635 209.866 157.761C207.719 159.087 205.51 160.665 203.363 162.37C203.174 162.496 203.047 162.623 202.858 162.812C200.775 164.453 198.754 166.284 196.86 168.052C196.671 168.178 196.544 168.368 196.355 168.494C188.653 175.881 182.781 183.078 182.781 183.078Z" fill="url(#paint6_linear_50_12891)"/>
<path d="M193.766 183.079H194.461C195.597 181.626 196.86 180.174 198.06 178.722L209.55 179.354C209.74 179.164 209.866 178.975 210.055 178.849L198.501 178.217C200.269 176.26 202.037 174.366 203.742 172.535L215.043 172.724C215.169 172.535 215.295 172.346 215.422 172.156L204.31 171.967C206.393 169.82 208.414 167.863 210.118 166.221H218.957C219.02 166.032 219.147 165.843 219.21 165.653H210.687C213.528 162.938 215.485 161.297 215.548 161.234C215.674 161.108 215.674 160.981 215.548 160.855C215.422 160.729 215.295 160.729 215.169 160.855C215.106 160.918 213.086 162.623 210.181 165.401L210.371 157.446C210.181 157.572 209.992 157.635 209.803 157.761L209.613 165.906C207.909 167.547 205.951 169.441 203.868 171.588L203.3 162.433C203.11 162.56 202.984 162.686 202.795 162.875L203.363 172.156C201.658 173.924 199.89 175.818 198.123 177.775L196.734 168.116C196.544 168.242 196.418 168.431 196.229 168.557L197.618 178.28C196.355 179.922 195.029 181.5 193.766 183.079Z" fill="#D4E7F4"/>
<path d="M205.699 183.205H221.546C222.177 181.879 222.556 180.616 222.809 179.417C222.872 179.227 222.872 179.038 222.935 178.848C223.314 176.954 223.314 175.376 223.188 174.24C223.124 173.166 222.051 172.409 221.041 172.661C218.831 173.166 216.874 173.924 215.169 174.871C214.98 174.934 214.854 175.06 214.664 175.123C208.667 178.343 205.699 183.205 205.699 183.205Z" fill="url(#paint7_linear_50_12891)"/>
<path d="M213.528 183.205H214.223C214.854 182.321 215.486 181.5 216.054 180.743L222.809 179.417C222.872 179.227 222.872 179.038 222.935 178.849L216.559 180.111C218.263 177.965 219.526 176.639 219.526 176.576C219.652 176.449 219.652 176.323 219.526 176.197C219.4 176.071 219.274 176.071 219.147 176.197C219.147 176.197 217.822 177.586 216.054 179.859L215.107 174.808C214.917 174.871 214.791 174.997 214.602 175.06L215.549 180.427C214.917 181.248 214.223 182.195 213.528 183.205Z" fill="#D4E7F4"/>
<path d="M168.765 183.963H109.039C104.178 183.963 100.137 179.985 100.137 175.061V51.5682C100.137 43.8026 106.514 37.426 114.279 37.426H163.461C171.227 37.426 177.604 43.8026 177.604 51.5682V175.061C177.604 179.985 173.626 183.963 168.765 183.963Z" fill="url(#paint8_linear_50_12891)"/>
<path d="M165.166 183.963H105.44C100.579 183.963 96.5383 179.985 96.5383 175.06V51.5682C96.5383 43.8026 102.915 37.4259 110.681 37.4259H159.863C167.628 37.4259 174.005 43.8026 174.005 51.5682V175.06C174.068 179.985 170.091 183.963 165.166 183.963Z" fill="#F2F6F9"/>
<path d="M106.64 170.767C104.872 170.767 103.42 169.315 103.42 167.547V56.8083C103.42 51.8838 106.766 47.5274 111.501 46.2016C112.448 45.9491 113.395 45.8228 114.405 45.8228H156.39C162.451 45.8228 167.376 50.7473 167.376 56.8083V167.547C167.376 169.315 165.923 170.767 164.156 170.767H106.64Z" fill="url(#paint9_linear_50_12891)"/>
<path d="M156.327 46.1385C162.198 46.1385 166.997 50.9368 166.997 56.8083V167.547C166.997 169.126 165.671 170.452 164.092 170.452H106.639C105.061 170.452 103.735 169.126 103.735 167.547V56.8083C103.735 51.9469 107.081 47.78 111.564 46.5173C112.448 46.2648 113.395 46.1385 114.342 46.1385H156.327ZM156.327 45.5071H114.342C113.332 45.5071 112.322 45.6334 111.375 45.886C106.45 47.2118 103.041 51.6944 103.041 56.8083V167.547C103.041 169.505 104.619 171.083 106.576 171.083H164.029C165.987 171.083 167.565 169.505 167.565 167.547V56.8083C167.628 50.5579 162.514 45.5071 156.327 45.5071Z" fill="#A4CBFC"/>
<path d="M138.902 177.838C138.902 179.796 137.323 181.374 135.366 181.374C133.409 181.374 131.831 179.796 131.831 177.838C131.831 175.881 133.409 174.303 135.366 174.303C137.323 174.303 138.902 175.881 138.902 177.838Z" fill="#BBD9FD"/>
<path d="M143.195 42.9817H120.908C120.214 42.9817 119.646 42.4135 119.646 41.719C119.646 41.0245 120.214 40.4563 120.908 40.4563H143.195C143.889 40.4563 144.458 41.0245 144.458 41.719C144.458 42.4135 143.889 42.9817 143.195 42.9817Z" fill="#BBD9FD"/>
<path d="M149.067 43.55C150.078 43.55 150.897 42.7303 150.897 41.7191C150.897 40.7079 150.078 39.8882 149.067 39.8882C148.055 39.8882 147.236 40.7079 147.236 41.7191C147.236 42.7303 148.055 43.55 149.067 43.55Z" fill="#BBD9FD"/>
<path d="M166.997 102.518V147.47L103.672 83.5776V56.8083C103.672 51.9469 107.019 47.78 111.501 46.5173L166.997 102.518Z" fill="url(#paint10_linear_50_12891)"/>
<path d="M166.997 74.9913V92.4166L121.161 46.1385H138.46L166.997 74.9913Z" fill="url(#paint11_linear_50_12891)"/>
<path d="M108.534 98.7929L117.625 89.954C119.141 88.4388 119.204 85.9765 117.689 84.4612L108.85 75.3698C107.334 73.8545 104.872 73.7914 103.357 75.3067L94.2654 84.1456C92.7502 85.6608 92.687 88.1231 94.2023 89.6383L103.041 98.7298C104.556 100.182 107.019 100.245 108.534 98.7929Z" fill="url(#paint12_linear_50_12891)"/>
<path d="M110.744 90.901C110.87 90.7116 110.996 90.5222 111.123 90.3328L110.365 89.3857L110.807 88.2493L112.007 88.0599C112.07 87.618 112.133 87.1129 112.07 86.6709L110.87 86.3553L110.554 85.1557L111.438 84.2718C111.249 83.893 110.996 83.451 110.681 83.1354L109.544 83.5773L108.597 82.8197L108.787 81.6201C108.345 81.3676 107.903 81.2413 107.461 81.115L106.829 82.1252L105.63 82.0621L105.125 80.9888C104.683 81.0519 104.178 81.1782 103.736 81.3676L103.799 82.5671L102.789 83.1985L101.715 82.6303C101.526 82.8197 101.4 83.0091 101.21 83.1985C101.084 83.3879 100.958 83.5773 100.832 83.7667L101.589 84.7137L101.147 85.8502L99.9477 86.0396C99.8846 86.4815 99.8214 86.9866 99.8845 87.4286L101.084 87.7442L101.4 88.9438L100.516 89.7646C100.705 90.2065 100.958 90.5853 101.274 90.9641L102.41 90.5222L103.357 91.2798L103.168 92.4794C103.61 92.7319 104.051 92.8582 104.493 92.9844L105.125 91.9743L106.324 92.0374L106.893 93.1107C107.334 93.0476 107.84 92.9213 108.282 92.7319L108.218 91.5323L109.229 90.901L110.302 91.4692C110.428 91.2167 110.554 91.0904 110.744 90.901ZM106.009 89.4489C104.683 89.4489 103.61 88.3756 103.546 87.0497C103.546 85.7239 104.62 84.6506 105.946 84.5875C107.271 84.5875 108.345 85.6608 108.408 86.9866C108.408 88.3756 107.335 89.4489 106.009 89.4489Z" fill="#E8EBF9"/>
<path d="M85.3634 106.937C85.3634 106.937 87.4469 108.137 88.1414 108.326C88.8359 108.579 96.4121 97.5302 96.4121 97.5302C96.4121 97.5302 97.8011 91.343 98.4956 90.9011C99.19 90.4591 99.4426 94.8154 99.4426 94.8154L102.662 98.2247C102.662 98.2247 101.273 99.8031 99.2532 99.6137C99.2532 99.6137 91.235 116.345 88.7096 115.903C86.1842 115.461 81.8279 113.125 81.8279 113.125L85.3634 106.937Z" fill="url(#paint13_linear_50_12891)"/>
<path d="M52.0915 188.824C52.0915 188.824 50.8288 193.369 51.9653 194.379C52.6598 195.011 58.5945 195.768 60.9305 195.768C63.2033 195.768 66.1707 194.19 62.5088 192.359C58.847 190.528 57.9 189.581 57.458 188.445L52.0915 188.824Z" fill="url(#paint14_linear_50_12891)"/>
<path d="M69.5166 188.824C69.5166 188.824 68.2539 193.369 69.3903 194.379C70.0848 195.011 76.0195 195.768 78.3555 195.768C80.6284 195.768 83.5957 194.19 79.9339 192.359C76.2721 190.528 75.325 189.581 74.8831 188.445L69.5166 188.824Z" fill="url(#paint15_linear_50_12891)"/>
<path d="M51.6494 188.255C51.6494 188.255 52.1545 189.013 53.3541 189.518C54.4905 190.023 56.2583 190.276 58.7837 189.265L64.7184 141.03C64.7184 141.03 70.9056 156.688 71.8527 162.244C72.1683 164.264 68.6328 188.382 68.6328 188.382C68.6328 188.382 71.8527 191.917 76.3984 189.897C76.3984 189.897 81.3861 165.653 81.6386 161.486C82.0805 155.172 75.4514 130.171 75.4514 130.171L52.2808 127.393L52.2176 130.992L51.6494 188.255Z" fill="url(#paint16_linear_50_12891)"/>
<path opacity="0.25" d="M51.6494 188.255C51.6494 188.255 52.1545 189.013 53.3541 189.518C53.796 187.182 54.4274 182.952 54.4274 176.386C54.4274 165.59 55.3744 148.417 59.0362 140.399C62.6981 132.381 75.3882 131.497 75.3882 131.497L52.3439 130.866L51.6494 188.255Z" fill="#35396F"/>
<path d="M55.564 109.968C55.564 109.968 54.8695 118.428 51.9021 123.479C48.9348 128.53 54.8695 133.77 63.8347 134.023C72.7999 134.275 76.2092 132.192 76.9036 128.782C77.0299 128.277 76.9668 127.835 76.9036 127.33C76.3354 124.552 73.1787 121.522 75.0096 109.842C75.0096 109.715 75.0727 109.652 75.0727 109.526L82.207 114.766C82.207 114.766 82.7752 114.135 83.4697 112.872C84.2273 111.42 85.1743 109.21 85.4269 106.306C85.4269 106.306 78.7977 99.677 76.2723 98.0355C73.7469 96.4571 69.3906 97.5935 69.3906 97.5935L65.5393 95.8257C65.5393 95.8257 59.3521 92.5427 47.167 104.728C47.167 104.728 49.2505 110.662 52.2178 112.051L55.564 109.968Z" fill="url(#paint17_linear_50_12891)"/>
<path opacity="0.25" d="M63.7712 134.022C72.7364 134.275 76.1457 132.191 76.8402 128.782C76.9665 128.277 76.9033 127.835 76.8402 127.33C75.6406 129.982 72.9258 132.57 66.7386 129.477C56.195 124.236 61.2458 107.695 59.8569 107.506C58.4679 107.253 55.5005 110.031 55.5005 110.031C55.5005 110.031 54.8061 118.491 51.8387 123.542C48.8714 128.53 54.8692 133.77 63.7712 134.022Z" fill="#3C50CD"/>
<path opacity="0.25" d="M74.946 109.841C74.946 109.715 75.0092 109.652 75.0092 109.526L82.1435 114.766C82.1435 114.766 82.7117 114.135 83.4062 112.872C79.113 111.167 76.4613 105.675 75.9562 105.801C75.2617 106.053 74.946 109.841 74.946 109.841Z" fill="#3C50CD"/>
<path d="M55.0585 138.694L72.2943 119.501C73.7465 117.923 73.5571 115.461 71.9787 114.008L64.7813 107.569C63.2029 106.117 60.7406 106.306 59.2885 107.884L42.0526 127.077C40.6005 128.656 40.7899 131.118 42.3683 132.57L49.5657 139.01C51.1441 140.399 53.6063 140.273 55.0585 138.694Z" fill="url(#paint18_linear_50_12891)"/>
<path d="M50.8916 111.167L48.6819 113.377C48.6819 113.377 53.7327 120.259 60.3619 124.173C60.3619 124.173 63.1398 122.342 63.7712 122.784C64.4657 123.226 62.1928 125.247 62.1928 125.247C62.1928 125.247 64.9076 126.446 65.4127 126.446C65.8547 126.446 66.5491 125.752 66.5491 125.752C66.5491 125.752 67.2436 126.888 66.5491 127.583C65.8546 128.277 64.7182 129.855 63.3292 129.855C61.9403 129.855 60.3619 128.719 58.9729 127.583C58.9729 127.583 47.7349 121.395 45.2095 119.564C42.6841 117.734 41.2951 116.155 41.8002 114.072C42.2421 111.988 47.2298 105.043 47.2298 105.043C47.2298 105.043 48.9976 109.652 50.8916 111.167Z" fill="url(#paint19_linear_50_12891)"/>
<path d="M66.1706 92.4794C66.1706 92.4794 63.5189 87.4918 64.2134 84.2719C64.9079 81.052 66.9913 81.4939 66.9913 81.4939C66.9913 81.4939 67.4333 77.1376 72.2315 77.8321C77.0298 78.5266 77.9768 75.7486 79.1133 76.8851C80.2497 78.0215 80.6916 81.4939 78.1662 83.7668C78.1662 83.7668 79.3027 86.7341 76.0828 89.7015L66.1706 92.4794Z" fill="url(#paint20_linear_50_12891)"/>
<path d="M66.5496 89.1334C66.5496 89.1334 66.297 94.3736 64.9712 96.899C64.9712 96.899 68.1911 101.508 71.1584 100.813C74.1258 100.119 70.4639 98.0354 71.8529 95.0681L66.5496 89.1334Z" fill="url(#paint21_linear_50_12891)"/>
<path d="M76.8405 84.0825C76.8405 84.0825 77.6612 95.8888 73.0524 96.5833C68.4435 97.2778 66.4232 89.449 66.4232 89.449C66.4232 89.449 64.9079 89.3227 65.1605 87.4918C65.413 85.6609 66.7389 86.3554 67.2439 88.4388C67.2439 88.4388 69.0749 87.7444 68.3804 84.777C68.3804 84.777 69.3905 84.7139 72.9892 85.4715C76.146 86.1028 76.8405 84.0825 76.8405 84.0825Z" fill="url(#paint22_linear_50_12891)"/>
<path d="M206.835 192.801C206.835 192.801 208.54 200.188 206.835 200.819C205.13 201.451 196.67 201.451 195.976 200.819C195.344 200.188 196.923 197.915 199.638 196.337C201.91 195.074 200.269 188.066 200.269 188.066L206.835 192.801Z" fill="url(#paint23_linear_50_12891)"/>
<path d="M220.662 194.316C220.662 194.316 221.42 197.157 221.356 199.746C221.356 200.693 220.599 201.387 219.652 201.387H214.475C214.475 201.387 214.096 201.387 213.086 201.387C212.076 201.387 213.464 198.546 214.475 196.968C215.485 195.326 215.485 193.748 215.485 193.748L220.662 194.316Z" fill="url(#paint24_linear_50_12891)"/>
<path d="M221.23 194.758C221.23 194.758 220.473 195.2 218.01 195.137C216.937 195.137 215.611 195.011 213.907 194.758C213.907 194.758 211.886 161.486 208.414 149.491C208.414 149.427 208.414 149.427 208.414 149.364C208.414 149.364 208.351 149.68 208.224 150.185C207.593 153.216 205.446 163.696 205.636 165.843C205.888 168.368 207.909 185.541 207.719 193.369C207.719 193.369 205.446 194.948 199.449 193.811C199.449 193.811 196.229 171.335 195.092 164.012C193.956 156.688 197.87 133.517 197.87 133.517L220.536 133.075L221.925 168.621C221.861 168.621 223.945 179.417 221.23 194.758Z" fill="url(#paint25_linear_50_12891)"/>
<path opacity="0.25" d="M218.01 195.2C216.937 195.2 215.611 195.074 213.906 194.821C213.906 194.821 211.886 161.549 208.414 149.553C208.919 147.659 210.434 142.735 211.381 142.609C212.517 142.356 212.391 161.549 216.558 166.789C219.841 170.956 215.548 182.194 218.01 195.2Z" fill="#35396F"/>
<path d="M197.618 85.2191C197.618 85.2191 196.482 96.4572 199.701 97.5936C202.164 98.4775 203.363 96.2047 203.363 96.2047V98.0356L210.687 97.5936L210.245 95.3208L206.331 85.4717L197.618 85.2191Z" fill="url(#paint26_linear_50_12891)"/>
<path d="M200.774 88.881C200.774 88.881 198.943 88.6284 198.943 86.7975C198.943 86.7975 194.334 86.545 194.145 83.1357C193.893 79.7264 195.092 77.3904 195.976 77.6429C196.923 77.8955 197.807 79.2213 197.807 79.2213C197.807 79.2213 197.112 77.6429 198.501 77.3904C199.89 77.1379 201.279 79.9158 203.552 80.3578C205.825 80.7997 213.654 83.1357 209.739 90.4594C209.739 90.4594 212.265 95.9521 210.181 96.3941C208.098 96.836 204.689 97.0886 203.3 92.2903C203.3 92.2903 204.436 90.7119 204.247 89.3229C203.994 87.934 202.668 88.881 202.416 90.0174C202.163 91.1539 201.974 92.1009 201.721 92.1009C201.027 92.1009 200.774 88.881 200.774 88.881Z" fill="url(#paint27_linear_50_12891)"/>
<path d="M179.877 97.5304C179.877 97.5304 176.278 90.9643 175.331 90.7118C174.384 90.4592 176.026 93.8685 175.079 94.8156C174.132 95.6995 173.184 96.3939 173.879 97.9723C174.573 99.5507 175.773 100.245 175.773 100.245L176.973 102.076L181.266 99.8032L179.877 97.5304Z" fill="url(#paint28_linear_50_12891)"/>
<path d="M202.668 100.372L202.921 97.5937C202.921 97.5937 206.835 96.4573 211.191 97.3412L211.633 99.8666L202.668 100.372Z" fill="#DAE8F2"/>
<path d="M217.442 100.624C217.442 100.624 218.957 101.256 220.094 104.286C221.23 107.253 222.619 114.83 222.871 117.355C223.124 119.88 215.548 127.457 215.548 127.457L210.308 115.082L217.442 100.624Z" fill="url(#paint29_linear_50_12891)"/>
<path d="M220.978 133.833C220.031 137.053 206.772 138.632 201.469 137.053C196.671 135.601 196.607 134.528 197.302 131.434C197.365 131.118 197.428 130.803 197.554 130.424C198.249 127.393 197.996 119.754 197.87 116.534V116.471C197.807 115.587 197.807 115.082 197.807 115.082C197.807 115.082 190.925 121.711 187.705 120.322C186.948 120.007 185.559 118.239 184.044 115.966C181.644 112.367 178.866 107.443 177.288 104.602C176.467 103.15 176.025 102.266 176.025 102.266C177.856 99.2983 181.518 99.2983 181.518 99.2983L182.718 101.192L188.968 111.105C188.968 111.105 194.461 104.223 199.259 101.256C204.057 98.2882 213.023 99.4246 213.023 99.4246C215.864 99.9928 217.695 100.245 219.084 102.518C219.904 103.907 219.399 107.19 218.894 110.536C218.642 112.115 218.452 113.693 218.389 115.082C218.389 115.587 218.326 116.092 218.389 116.534C218.705 120.512 221.861 130.613 220.978 133.833Z" fill="url(#paint30_linear_50_12891)"/>
<path opacity="0.25" d="M197.87 116.408C197.807 115.524 197.807 115.019 197.807 115.019C197.807 115.019 190.925 121.648 187.705 120.259C186.948 119.943 185.559 118.176 184.043 115.903C190.483 124.11 196.86 109.715 197.302 110.41C197.807 111.041 197.87 115.713 197.87 116.408Z" fill="#80C2FB"/>
<path opacity="0.25" d="M220.978 133.833C220.031 137.053 206.772 138.631 201.469 137.053C196.671 135.601 196.607 134.528 197.302 131.434C198.817 133.075 201.595 134.528 206.709 134.338C214.412 134.022 217.379 121.901 218.389 115.019C218.389 115.524 218.326 116.029 218.389 116.471C218.705 120.512 221.862 130.613 220.978 133.833Z" fill="#80C2FB"/>
<path d="M182.781 101.129C181.013 101.571 178.488 102.455 177.351 104.538C176.531 103.086 176.089 102.202 176.089 102.202C177.92 99.235 181.581 99.235 181.581 99.235L182.781 101.129Z" fill="#DAE8F2"/>
<path d="M188.905 70.1929H156.39C154.244 70.1929 152.539 68.4251 152.539 66.3416V44.4337C152.539 42.2871 154.307 40.5825 156.39 40.5825H188.905C191.051 40.5825 192.756 42.3503 192.756 44.4337V66.3416C192.819 68.4251 191.051 70.1929 188.905 70.1929Z" fill="white"/>
<path d="M163.588 53.9672H158.663V65.3315H163.588V53.9672Z" fill="#BEDAFC"/>
<path d="M171.353 45.444H166.428V65.3316H171.353V45.444Z" fill="#BEDAFC"/>
<path d="M179.119 49.3584H174.194V65.3315H179.119V49.3584Z" fill="#BEDAFC"/>
<path d="M186.695 53.3358H181.771V65.3946H186.695V53.3358Z" fill="#BEDAFC"/>
<path d="M153.234 116.85H134.357C132.21 116.85 130.506 115.082 130.506 112.998V85.724C130.506 83.5774 132.273 81.8727 134.357 81.8727H153.234C155.381 81.8727 157.086 83.6405 157.086 85.724V112.998C157.149 115.082 155.381 116.85 153.234 116.85Z" fill="white"/>
<path d="M152.35 94.6892C152.35 97.5934 150.898 100.182 148.688 101.76C147.236 102.771 145.532 103.402 143.638 103.402C138.839 103.402 134.988 99.4875 134.988 94.7524C134.988 89.9541 138.902 86.1028 143.638 86.1028C148.436 86.0397 152.35 89.8909 152.35 94.6892Z" fill="#BEDAFC"/>
<path d="M152.35 94.6892C152.35 97.5934 150.898 100.182 148.689 101.76L143.638 94.6892V86.0397C148.436 86.0397 152.35 89.8909 152.35 94.6892Z" fill="url(#paint31_linear_50_12891)"/>
<path d="M151.151 109.084H136.188C135.556 109.084 134.988 108.516 134.988 107.885C134.988 107.253 135.556 106.685 136.188 106.685H151.151C151.782 106.685 152.35 107.253 152.35 107.885C152.35 108.516 151.782 109.084 151.151 109.084Z" fill="#BEDAFC"/>
<path d="M151.151 113.882H136.188C135.556 113.882 134.988 113.314 134.988 112.683C134.988 112.051 135.556 111.483 136.188 111.483H151.151C151.782 111.483 152.35 112.051 152.35 112.683C152.35 113.314 151.782 113.882 151.151 113.882Z" fill="#BEDAFC"/>
<path d="M185.37 139.136H148.751C146.605 139.136 144.9 137.369 144.9 135.285V131.245C144.9 129.098 146.668 127.393 148.751 127.393H185.37C187.516 127.393 189.221 129.161 189.221 131.245V135.285C189.221 137.369 187.516 139.136 185.37 139.136Z" fill="white"/>
<path d="M152.54 133.202C152.54 134.465 151.592 135.538 150.393 135.538C149.193 135.538 148.246 134.528 148.246 133.202C148.246 131.939 149.193 130.866 150.393 130.866C151.592 130.929 152.54 131.939 152.54 133.202Z" fill="#BEDAFC"/>
<path d="M182.213 134.78H159.863C159.042 134.78 158.348 134.086 158.348 133.265C158.348 132.444 159.042 131.75 159.863 131.75H182.213C183.033 131.75 183.728 132.444 183.728 133.265C183.728 134.086 183.033 134.78 182.213 134.78Z" fill="#BEDAFC"/>
<path d="M98.6851 64.0689H88.331C86.1844 64.0689 84.4797 62.3012 84.4797 60.2177V49.8635C84.4797 47.7169 86.2475 46.0123 88.331 46.0123H98.6851C100.832 46.0123 102.536 47.7801 102.536 49.8635V60.2177C102.6 62.3643 100.832 64.0689 98.6851 64.0689Z" fill="white"/>
<path d="M95.9693 59.3541C98.3419 58.1735 99.3082 55.2931 98.1276 52.9205C96.947 50.548 94.0666 49.5817 91.6941 50.7623C89.3215 51.9429 88.3552 54.8232 89.5358 57.1958C90.7164 59.5684 93.5968 60.5346 95.9693 59.3541Z" fill="#BEDAFC"/>
<path d="M93.7611 57.3136L91.6145 55.5458C91.4251 55.3564 91.4251 55.1038 91.5514 54.9144C91.7408 54.725 91.9933 54.725 92.1827 54.8513L93.6348 56.0509L96.3497 52.7678C96.5391 52.5784 96.7916 52.5784 96.981 52.7047C97.1704 52.8941 97.1704 53.1466 97.0441 53.3361L93.7611 57.3136Z" fill="url(#paint32_linear_50_12891)"/>
<defs>
<linearGradient id="paint0_linear_50_12891" x1="95.3402" y1="173.819" x2="73.6549" y2="128.402" gradientUnits="userSpaceOnUse">
<stop stop-color="#8EBFFC"/>
<stop offset="1" stop-color="#CAE1F8"/>
</linearGradient>
<linearGradient id="paint1_linear_50_12891" x1="113.04" y1="183.455" x2="93.2188" y2="125.446" gradientUnits="userSpaceOnUse">
<stop stop-color="#9AC6FC"/>
<stop offset="1" stop-color="#CAE1F8"/>
</linearGradient>
<linearGradient id="paint2_linear_50_12891" x1="83.6836" y1="183.882" x2="59.8616" y2="154.787" gradientUnits="userSpaceOnUse">
<stop stop-color="#9AC6FC"/>
<stop offset="1" stop-color="#CAE1F8"/>
</linearGradient>
<linearGradient id="paint3_linear_50_12891" x1="64.8963" y1="184.534" x2="58.7135" y2="172.35" gradientUnits="userSpaceOnUse">
<stop stop-color="#9AC6FC"/>
<stop offset="1" stop-color="#CAE1F8"/>
</linearGradient>
<linearGradient id="paint4_linear_50_12891" x1="182.46" y1="173.819" x2="204.145" y2="128.402" gradientUnits="userSpaceOnUse">
<stop stop-color="#8EBFFC"/>
<stop offset="1" stop-color="#CAE1F8"/>
</linearGradient>
<linearGradient id="paint5_linear_50_12891" x1="164.761" y1="183.455" x2="184.582" y2="125.446" gradientUnits="userSpaceOnUse">
<stop stop-color="#9AC6FC"/>
<stop offset="1" stop-color="#CAE1F8"/>
</linearGradient>
<linearGradient id="paint6_linear_50_12891" x1="194.117" y1="183.882" x2="217.939" y2="154.787" gradientUnits="userSpaceOnUse">
<stop stop-color="#9AC6FC"/>
<stop offset="1" stop-color="#CAE1F8"/>
</linearGradient>
<linearGradient id="paint7_linear_50_12891" x1="212.904" y1="184.534" x2="219.087" y2="172.35" gradientUnits="userSpaceOnUse">
<stop stop-color="#9AC6FC"/>
<stop offset="1" stop-color="#CAE1F8"/>
</linearGradient>
<linearGradient id="paint8_linear_50_12891" x1="138.886" y1="173.818" x2="138.886" y2="45.03" gradientUnits="userSpaceOnUse">
<stop stop-color="#87B4D8"/>
<stop offset="1" stop-color="#9BC3EA"/>
</linearGradient>
<linearGradient id="paint9_linear_50_12891" x1="137.504" y1="170.291" x2="133.611" y2="65.8281" gradientUnits="userSpaceOnUse">
<stop stop-color="#B8D7FD"/>
<stop offset="1" stop-color="#D6E8FA"/>
</linearGradient>
<linearGradient id="paint10_linear_50_12891" x1="103.704" y1="97.0136" x2="166.966" y2="97.0136" gradientUnits="userSpaceOnUse">
<stop stop-color="#F3F8FE"/>
<stop offset="1" stop-color="#D6E8FA"/>
</linearGradient>
<linearGradient id="paint11_linear_50_12891" x1="121.178" y1="69.2959" x2="166.966" y2="69.2959" gradientUnits="userSpaceOnUse">
<stop stop-color="#F3F8FE"/>
<stop offset="1" stop-color="#D6E8FA"/>
</linearGradient>
<linearGradient id="paint12_linear_50_12891" x1="93.1527" y1="87.0392" x2="118.78" y2="87.0392" gradientUnits="userSpaceOnUse">
<stop stop-color="#3146CA"/>
<stop offset="1" stop-color="#6776D7"/>
</linearGradient>
<linearGradient id="paint13_linear_50_12891" x1="81.6723" y1="103.414" x2="102.528" y2="103.414" gradientUnits="userSpaceOnUse">
<stop stop-color="#FEA17B"/>
<stop offset="1" stop-color="#FDC7A9"/>
</linearGradient>
<linearGradient id="paint14_linear_50_12891" x1="51.4462" y1="192.102" x2="64.1953" y2="192.102" gradientUnits="userSpaceOnUse">
<stop stop-color="#3146CA"/>
<stop offset="1" stop-color="#6776D7"/>
</linearGradient>
<linearGradient id="paint15_linear_50_12891" x1="68.8754" y1="192.102" x2="81.6245" y2="192.102" gradientUnits="userSpaceOnUse">
<stop stop-color="#3146CA"/>
<stop offset="1" stop-color="#6776D7"/>
</linearGradient>
<linearGradient id="paint16_linear_50_12891" x1="51.6485" y1="158.948" x2="81.695" y2="158.948" gradientUnits="userSpaceOnUse">
<stop stop-color="#35396F"/>
<stop offset="1" stop-color="#3B4D94"/>
</linearGradient>
<linearGradient id="paint17_linear_50_12891" x1="55.5192" y1="131.164" x2="70.5817" y2="97.8109" gradientUnits="userSpaceOnUse">
<stop stop-color="#3146CA"/>
<stop offset="1" stop-color="#6776D7"/>
</linearGradient>
<linearGradient id="paint18_linear_50_12891" x1="47.5759" y1="114.242" x2="60.7254" y2="126.569" gradientUnits="userSpaceOnUse">
<stop stop-color="#75BEFB"/>
<stop offset="1" stop-color="#A8D1FA"/>
</linearGradient>
<linearGradient id="paint19_linear_50_12891" x1="41.7059" y1="117.481" x2="66.8512" y2="117.481" gradientUnits="userSpaceOnUse">
<stop stop-color="#FEA17B"/>
<stop offset="1" stop-color="#FDC7A9"/>
</linearGradient>
<linearGradient id="paint20_linear_50_12891" x1="73.4336" y1="88.8513" x2="71.1742" y2="78.5227" gradientUnits="userSpaceOnUse">
<stop stop-color="#2E326A"/>
<stop offset="1" stop-color="#3B4D94"/>
</linearGradient>
<linearGradient id="paint21_linear_50_12891" x1="68.9019" y1="95.3376" x2="68.337" y2="101.793" gradientUnits="userSpaceOnUse">
<stop stop-color="#FEA17B"/>
<stop offset="1" stop-color="#FDC7A9"/>
</linearGradient>
<linearGradient id="paint22_linear_50_12891" x1="67.2285" y1="94.2569" x2="72.877" y2="88.1243" gradientUnits="userSpaceOnUse">
<stop stop-color="#FEAF8B"/>
<stop offset="1" stop-color="#FDC7A9"/>
</linearGradient>
<linearGradient id="paint23_linear_50_12891" x1="195.834" y1="194.711" x2="207.579" y2="194.711" gradientUnits="userSpaceOnUse">
<stop stop-color="#3146CA"/>
<stop offset="1" stop-color="#6776D7"/>
</linearGradient>
<linearGradient id="paint24_linear_50_12891" x1="212.797" y1="197.575" x2="221.404" y2="197.575" gradientUnits="userSpaceOnUse">
<stop stop-color="#3146CA"/>
<stop offset="1" stop-color="#6776D7"/>
</linearGradient>
<linearGradient id="paint25_linear_50_12891" x1="214.561" y1="163.957" x2="187.879" y2="162.881" gradientUnits="userSpaceOnUse">
<stop stop-color="#35396F"/>
<stop offset="1" stop-color="#3B4D94"/>
</linearGradient>
<linearGradient id="paint26_linear_50_12891" x1="210.046" y1="105.632" x2="201.089" y2="88.4442" gradientUnits="userSpaceOnUse">
<stop stop-color="#FEA17B"/>
<stop offset="1" stop-color="#FDC7A9"/>
</linearGradient>
<linearGradient id="paint27_linear_50_12891" x1="202.156" y1="89.4958" x2="205.222" y2="79.0058" gradientUnits="userSpaceOnUse">
<stop stop-color="#2E326A"/>
<stop offset="1" stop-color="#3B4D94"/>
</linearGradient>
<linearGradient id="paint28_linear_50_12891" x1="176.946" y1="101.713" x2="177.995" y2="95.0965" gradientUnits="userSpaceOnUse">
<stop stop-color="#FEA17B"/>
<stop offset="1" stop-color="#FDC7A9"/>
</linearGradient>
<linearGradient id="paint29_linear_50_12891" x1="218.377" y1="113.476" x2="222.597" y2="112.343" gradientUnits="userSpaceOnUse">
<stop stop-color="#3146CA"/>
<stop offset="1" stop-color="#6776D7"/>
</linearGradient>
<linearGradient id="paint30_linear_50_12891" x1="206.467" y1="136.147" x2="199.527" y2="109.519" gradientUnits="userSpaceOnUse">
<stop stop-color="#3146CA"/>
<stop offset="1" stop-color="#6776D7"/>
</linearGradient>
<linearGradient id="paint31_linear_50_12891" x1="143.659" y1="93.9008" x2="152.335" y2="93.9008" gradientUnits="userSpaceOnUse">
<stop stop-color="#87B4D8"/>
<stop offset="1" stop-color="#9BC3EA"/>
</linearGradient>
<linearGradient id="paint32_linear_50_12891" x1="91.4286" y1="54.981" x2="97.1524" y2="54.981" gradientUnits="userSpaceOnUse">
<stop stop-color="#87B4D8"/>
<stop offset="1" stop-color="#9BC3EA"/>
</linearGradient>
</defs>
</svg>
