<svg width="239" height="183" viewBox="0 0 239 183" fill="none" xmlns="http://www.w3.org/2000/svg">
<path d="M200.528 110.455C199.528 111.669 197.815 111.811 196.602 110.883L190.678 106.101C189.464 105.102 189.322 103.389 190.249 102.176L195.032 96.2514C196.031 95.038 197.744 94.8952 198.957 95.8231L204.882 100.605C206.095 101.605 206.238 103.318 205.31 104.531L200.528 110.455Z" fill="#00B8E5"/>
<path d="M196.53 97.8932C197.458 98.4642 198.386 99.1066 199.1 99.9631C199.671 100.677 199.742 101.605 199.314 102.39C198.814 103.246 197.886 103.675 196.959 103.461C196.316 103.318 195.817 103.032 195.388 102.604C195.246 102.533 195.174 102.39 195.031 102.318C194.532 102.961 194.032 103.603 193.461 104.246C193.033 103.889 192.676 103.603 192.248 103.246C193.675 101.462 195.103 99.6776 196.53 97.8932ZM195.745 101.319C196.031 101.605 196.388 101.89 196.816 102.033C197.244 102.176 197.744 101.962 197.958 101.533C198.172 101.176 198.172 100.748 197.815 100.391C197.601 100.177 197.315 99.9631 197.03 99.749C196.602 100.249 196.173 100.748 195.745 101.319Z" fill="white"/>
<path d="M201.955 104.888C201.669 105.102 201.384 105.316 201.098 105.531C200.884 105.245 200.742 105.031 200.527 104.745C200.456 104.603 200.313 104.531 200.171 104.531C200.028 104.531 199.885 104.531 199.742 104.603C199.671 104.674 199.6 104.888 199.671 104.96C199.742 105.174 199.885 105.388 199.956 105.531C200.099 105.745 200.242 106.03 200.313 106.244C200.599 107.244 199.814 108.243 198.743 108.1C198.101 108.029 197.53 107.672 197.101 107.244C196.816 106.958 196.53 106.601 196.245 106.244C196.602 105.959 196.887 105.745 197.173 105.531C197.53 105.887 197.815 106.316 198.101 106.673C198.172 106.744 198.315 106.815 198.386 106.815C198.529 106.815 198.672 106.815 198.743 106.744C198.814 106.673 198.886 106.459 198.814 106.316C198.814 106.173 198.672 106.03 198.6 105.816C198.458 105.531 198.315 105.245 198.172 104.96C197.815 103.96 198.6 103.032 199.6 103.104C200.527 103.247 201.598 104.032 201.955 104.888Z" fill="white"/>
<path d="M208.236 63.5612C208.236 63.5612 163.341 63.5612 155.347 63.5612C147.352 63.5612 147.281 53.6399 154.347 51.7128C161.628 49.6429 166.767 54.3537 166.767 54.3537C166.767 54.3537 168.694 30.0146 186.895 32.8696C201.241 35.1536 200.385 50.7849 200.385 50.7849C200.385 50.7849 203.311 44.3611 211.091 46.7879C219.228 49.2147 218.3 63.5612 208.236 63.5612Z" fill="#EBF5F7"/>
<path d="M113.949 147.57C151.673 147.57 182.255 143.64 182.255 138.791C182.255 133.943 151.673 130.012 113.949 130.012C76.2239 130.012 45.642 133.943 45.642 138.791C45.642 143.64 76.2239 147.57 113.949 147.57Z" fill="#DAE4E5"/>
<path d="M182.255 154.708C209.967 154.708 232.432 149.819 232.432 143.788C232.432 137.756 209.967 132.867 182.255 132.867C154.543 132.867 132.078 137.756 132.078 143.788C132.078 149.819 154.543 154.708 182.255 154.708Z" fill="#DAE4E5"/>
<path d="M51.709 101.819C51.709 101.819 12.3809 101.819 5.38607 101.819C-1.60876 101.819 -1.68014 93.8959 4.52955 92.2542C10.882 90.6126 15.4501 94.3955 15.4501 94.3955C15.4501 94.3955 17.1631 74.8385 33.0799 77.1939C45.642 78.9783 44.9283 91.5405 44.9283 91.5405C44.9283 91.5405 47.4978 86.4014 54.2785 88.3286C61.3447 90.3271 60.5596 101.819 51.709 101.819Z" fill="#EBF5F7"/>
<path d="M62.1298 20.2361C62.1298 20.2361 93.8207 20.2361 99.4594 20.2361C105.098 20.2361 105.169 13.8123 100.173 12.5275C95.0341 11.1714 91.3939 14.2405 91.3939 14.2405C91.3939 14.2405 90.0378 -1.46214 77.1901 0.393634C67.0548 1.82115 67.6258 11.9565 67.6258 11.9565C67.6258 11.9565 65.5559 7.81671 60.0599 9.38698C54.4213 11.0286 54.9923 20.2361 62.1298 20.2361Z" fill="#EBF5F7"/>
<path d="M68.8391 135.651C68.8391 137.364 58.8465 138.791 46.4985 138.791C34.1505 138.791 24.2292 137.364 24.2292 135.651C24.2292 133.938 34.2219 132.51 46.4985 132.51C58.8465 132.51 68.8391 133.866 68.8391 135.651Z" fill="#DAE4E5"/>
<path d="M32.6516 135.865L39.6465 62.3475" stroke="#023D5F" stroke-width="2" stroke-miterlimit="10"/>
<path d="M60.6309 135.864L53.6361 62.3474" stroke="#023D5F" stroke-width="2" stroke-miterlimit="10"/>
<path d="M39.0754 68.2002H54.2071" stroke="#023D5F" stroke-width="2" stroke-miterlimit="10"/>
<path d="M38.2903 77.0509H54.9922" stroke="#023D5F" stroke-width="2" stroke-miterlimit="10"/>
<path d="M37.4338 85.9015H55.8488" stroke="#023D5F" stroke-width="2" stroke-miterlimit="10"/>
<path d="M36.5773 94.6807H56.7053" stroke="#023D5F" stroke-width="2" stroke-miterlimit="10"/>
<path d="M35.7208 103.531H57.4904" stroke="#023D5F" stroke-width="2" stroke-miterlimit="10"/>
<path d="M34.8644 112.311H58.347" stroke="#023D5F" stroke-width="2" stroke-miterlimit="10"/>
<path d="M34.0791 121.161H59.2034" stroke="#023D5F" stroke-width="2" stroke-miterlimit="10"/>
<path d="M33.2227 129.94H59.7744" stroke="#023D5F" stroke-width="2" stroke-miterlimit="10"/>
<path d="M54.564 62.7758H38.7899C38.2903 62.7758 37.8621 62.3476 37.8621 61.8479C37.8621 61.3483 38.2903 60.92 38.7899 60.92H54.564C55.0636 60.92 55.4919 61.3483 55.4919 61.8479C55.4205 62.4189 55.0636 62.7758 54.564 62.7758Z" fill="#2B99FF"/>
<path d="M108.025 134.937V136.008" stroke="#767F82" stroke-linecap="round" stroke-linejoin="round"/>
<path d="M108.025 137.792V139.505C108.025 144.002 104.384 147.571 99.9591 147.571H86.1122C83.4713 147.571 81.2587 145.429 81.2587 142.717V137.721" stroke="#767F82" stroke-linecap="round" stroke-linejoin="round" stroke-dasharray="2.9 2.9"/>
<path d="M81.3301 136.864V135.794" stroke="#767F82" stroke-linecap="round" stroke-linejoin="round"/>
<path d="M59.7745 136.65V137.721" stroke="#767F82" stroke-linecap="round" stroke-linejoin="round"/>
<path d="M59.7745 139.577V145.715C59.7745 150.925 63.9857 155.137 69.1961 155.137H80.8304H99.1026C106.811 155.137 113.092 148.855 113.092 141.147V130.583" stroke="#767F82" stroke-linecap="round" stroke-linejoin="round" stroke-dasharray="3.07 3.07"/>
<path d="M113.021 129.655V128.585" stroke="#767F82" stroke-linecap="round" stroke-linejoin="round"/>
<path d="M67.0548 136.65V137.721" stroke="#767F82" stroke-linecap="round" stroke-linejoin="round"/>
<path d="M67.0548 139.577V145.715C67.0548 150.925 71.266 155.137 76.4764 155.137H86.6832" stroke="#767F82" stroke-linecap="round" stroke-linejoin="round" stroke-dasharray="3.06 3.06"/>
<path d="M87.6111 155.136H88.6817" stroke="#767F82" stroke-linecap="round" stroke-linejoin="round"/>
<path d="M74.1212 136.65V137.721" stroke="#767F82" stroke-linecap="round" stroke-linejoin="round"/>
<path d="M74.1212 139.648V145.715C74.1212 150.925 78.3324 155.137 83.5428 155.137H94.6775" stroke="#767F82" stroke-linecap="round" stroke-linejoin="round" stroke-dasharray="3.15 3.15"/>
<path d="M95.6053 155.136H96.676" stroke="#767F82" stroke-linecap="round" stroke-linejoin="round"/>
<path d="M62.3441 108.242V140.219H57.205L57.0623 108.242H62.3441Z" fill="#86DFE7"/>
<path d="M59.6317 101.248L60.1313 102.033L62.3439 108.242H57.0621L59.132 101.961L59.6317 101.248Z" fill="#FCDED6"/>
<path d="M59.6317 101.248L60.1313 102.033L59.9172 102.176L59.6317 101.961L59.3462 102.247L59.1321 101.961L59.6317 101.248Z" fill="#86DFE7"/>
<path d="M57.0623 108.242L57.8474 108.813L58.347 108.242H57.0623Z" fill="#FCDED6"/>
<path d="M58.3472 108.242L59.1323 108.813L59.6319 108.242H58.3472Z" fill="#FCDED6"/>
<path d="M59.632 108.242L60.4171 108.813L60.9167 108.242H59.632Z" fill="#FCDED6"/>
<path d="M60.9166 108.242L61.7018 108.813L62.3441 108.242H60.9166Z" fill="#FCDED6"/>
<path opacity="0.2" d="M59.6318 101.248L60.1315 102.033L62.3441 108.242V140.219H60.6311L60.5597 108.242L58.9181 102.747L59.1322 101.961L59.6318 101.248Z" fill="#71606E"/>
<path d="M62.344 139.862H57.205V140.79H62.344V139.862Z" fill="#86DFE7"/>
<path d="M69.5532 108.243V140.219H64.4141L64.2714 108.243H69.5532Z" fill="#007FDD"/>
<path d="M66.8408 101.248L67.4118 102.033L69.553 108.242H64.2712L66.3411 101.961L66.8408 101.248Z" fill="#FCDED6"/>
<path d="M66.8408 101.248L67.4118 102.033L67.1263 102.176L66.8408 101.962L66.5553 102.247L66.3412 101.962L66.8408 101.248Z" fill="#FC9549"/>
<path d="M64.2714 108.243L65.0565 108.814L65.5561 108.243H64.2714Z" fill="#FCDED6"/>
<path d="M65.5563 108.243L66.3414 108.814L66.8411 108.243H65.5563Z" fill="#FCDED6"/>
<path d="M66.8411 108.243L67.6262 108.814L68.1258 108.243H66.8411Z" fill="#FCDED6"/>
<path d="M68.1257 108.243L68.9109 108.814L69.5532 108.243H68.1257Z" fill="#FCDED6"/>
<path opacity="0.2" d="M66.841 101.248L67.412 102.033L69.5532 108.243V140.219H67.9116L67.7688 108.243L66.1272 102.747L66.3413 101.962L66.841 101.248Z" fill="#71606E"/>
<path d="M69.5531 139.862H64.4141V140.79H69.5531V139.862Z" fill="#FC9549"/>
<path d="M76.7619 108.243V140.219H71.6228L71.4801 108.243H76.7619Z" fill="#6249FC"/>
<path d="M74.0496 101.248L74.6206 102.033L76.7619 108.242H71.4801L73.55 101.961L74.0496 101.248Z" fill="#FCDED6"/>
<path d="M74.0495 101.248L74.6206 102.033L74.3351 102.176L74.0495 101.962L73.8354 102.247L73.5499 101.962L74.0495 101.248Z" fill="#6249FC"/>
<path d="M71.4801 108.243L72.2652 108.814L72.7649 108.243H71.4801Z" fill="#FCDED6"/>
<path d="M72.7649 108.243L73.55 108.814L74.0496 108.243H72.7649Z" fill="#FCDED6"/>
<path d="M74.0497 108.243L74.8348 108.814L75.3345 108.243H74.0497Z" fill="#FCDED6"/>
<path d="M75.3344 108.243L76.1195 108.814L76.7619 108.243H75.3344Z" fill="#FCDED6"/>
<path opacity="0.2" d="M74.0497 101.248L74.6207 102.033L76.762 108.243V140.219H75.1203L74.9776 108.243L73.3359 102.747L73.5501 101.962L74.0497 101.248Z" fill="#71606E"/>
<path d="M76.7619 139.862H71.6228V140.79H76.7619V139.862Z" fill="#6249FC"/>
<path d="M83.971 108.243V140.219H78.832L78.6892 108.243H83.971Z" fill="#2B99FF"/>
<path d="M81.2589 101.248L81.8299 102.033L83.9712 108.243H78.7607L80.7593 101.962L81.2589 101.248Z" fill="#FCDED6"/>
<path d="M81.259 101.248L81.83 102.033L81.5445 102.176L81.259 101.962L81.0449 102.247L80.7594 101.962L81.259 101.248Z" fill="#2085B7"/>
<path d="M78.7607 108.243L79.4745 108.814L80.0455 108.243H78.7607Z" fill="#FCDED6"/>
<path d="M80.0455 108.243L80.7593 108.814L81.3303 108.243H80.0455Z" fill="#FCDED6"/>
<path d="M81.3306 108.243L82.0443 108.814L82.6153 108.243H81.3306Z" fill="#FCDED6"/>
<path d="M82.6152 108.243L83.329 108.814L83.9714 108.243H82.6152Z" fill="#FCDED6"/>
<path opacity="0.2" d="M81.2589 101.248L81.8299 102.033L83.9712 108.243V140.219H82.3296L82.1868 108.243L80.5452 102.747L80.7593 101.962L81.2589 101.248Z" fill="#71606E"/>
<path d="M83.9712 139.862H78.8322V140.79H83.9712V139.862Z" fill="#167F7F"/>
<path d="M202.455 150.997H235.002C236.644 150.997 238 152.353 238 153.994C238 155.636 236.644 156.992 235.002 156.992H132.507C127.153 156.992 122.728 152.638 122.728 147.214V135.651" stroke="#767F82" stroke-miterlimit="10" stroke-linecap="round" stroke-linejoin="round" stroke-dasharray="3 3"/>
<path d="M116.518 137.078V156.778C116.518 162.203 112.093 166.628 106.668 166.628H103.171" stroke="#767F82" stroke-miterlimit="10" stroke-linecap="round" stroke-linejoin="round" stroke-dasharray="3 3"/>
<path d="M129.366 131.368V139.505C129.366 142.788 132.007 145.429 135.29 145.429H170.978" stroke="#767F82" stroke-miterlimit="10" stroke-linecap="round" stroke-linejoin="round" stroke-dasharray="3 3"/>
<path d="M155.918 27.5165C147.424 17.0243 134.862 9.60119 121.158 9.38706C113.235 9.24431 104.884 10.315 97.7464 14.0979C91.5367 17.3812 86.1122 22.092 81.6869 27.5165C74.121 36.8667 69.7671 49.1434 71.0519 61.1345C72.1225 71.1271 77.1188 80.3346 83.614 87.8291C89.9665 95.1808 99.2453 101.176 100.887 111.526C101.315 114.452 100.245 118.592 102.529 120.947C105.241 123.731 109.595 122.803 113.021 122.732C117.089 122.732 121.158 122.66 125.298 122.66C128.224 122.66 132.935 123.446 135.147 120.947C137.431 118.592 136.289 114.524 136.789 111.526C138.002 103.746 144.069 97.3934 149.637 92.3257C156.06 86.4729 161.128 79.7636 163.983 71.484C169.336 56.2096 166.053 40.0073 155.918 27.5165Z" fill="#FDD247"/>
<path d="M116.375 131.654C116.375 126.301 116.09 120.947 115.947 115.666C115.662 107.1 115.233 98.464 114.448 89.8989C113.949 84.9026 113.092 79.9063 111.165 75.2669C109.88 72.3405 107.668 68.6289 104.099 68.3434C101.315 68.1293 98.7456 70.3419 98.6742 73.197C98.6029 77.0513 102.314 80.3346 105.74 81.3338C109.737 82.4758 115.019 81.6907 118.303 79.1212C121.729 76.4803 123.656 72.1977 124.227 68.0579C124.655 64.6319 124.512 60.849 120.801 59.4928C117.589 58.3508 115.162 60.9917 114.877 63.9895C114.591 67.2014 115.448 70.6274 116.732 73.5539C118.017 76.4803 120.087 79.6922 123.442 80.4059C128.01 81.4052 133.077 78.8357 136.218 75.6951C138.573 73.3397 142.071 68.7003 139.644 65.2743C138.502 63.704 136.361 63.2044 134.576 63.704C132.364 64.275 130.722 66.1308 129.437 67.9152C126.083 72.4832 124.441 78.0505 123.87 83.6178C123.156 89.8989 123.156 96.3227 122.942 102.675C122.728 108.956 122.585 115.309 122.442 121.59C122.371 124.873 122.371 128.228 122.371 131.511C122.371 132.225 123.442 132.225 123.442 131.511C124.013 121.304 124.227 111.026 124.655 100.748C125.012 90.8982 124.298 79.8349 129.437 71.0557C130.508 69.1999 131.935 66.9873 133.863 65.8453C136.432 64.3464 139.43 65.7025 138.716 68.9144C137.86 72.6973 134.148 76.052 130.793 77.6937C127.296 79.3353 123.156 79.7636 120.515 76.623C118.517 74.339 117.446 71.1984 116.946 68.272C116.518 66.1308 115.947 61.991 118.659 60.9917C120.087 60.4921 121.729 61.4913 122.514 62.6334C123.37 63.9895 123.156 66.1308 122.942 67.6297C122.442 71.5553 120.658 75.7665 117.375 78.1219C114.377 80.2632 109.238 81.0483 105.812 79.6922C102.957 78.6215 98.3174 74.1962 101.315 71.0557C103.314 68.9858 106.026 70.1278 107.596 71.9836C110.451 75.2669 111.593 80.1204 112.378 84.2602C113.021 87.6149 113.235 91.1123 113.52 94.5383C114.52 106.886 114.877 119.306 115.876 131.654C115.662 132.153 116.375 132.153 116.375 131.654Z" fill="white"/>
<path d="M132.435 122.589H104.741V125.301H132.435V122.589Z" fill="#007FDD"/>
<path d="M134.005 134.794C133.506 134.223 133.577 133.296 134.077 132.725L134.219 132.51C134.719 132.011 134.719 131.083 134.291 130.512L134.005 130.155C133.506 129.584 133.577 128.585 134.148 128.085C134.719 127.585 134.719 126.658 134.291 126.015L133.577 125.016C133.291 124.659 132.863 124.445 132.435 124.445H104.884C104.456 124.445 104.027 124.659 103.742 125.016L103.028 126.015C102.6 126.658 102.671 127.585 103.171 128.085C103.742 128.585 103.813 129.584 103.314 130.155L103.028 130.512C102.6 131.083 102.6 132.011 103.099 132.51L103.242 132.725C103.742 133.296 103.742 134.223 103.314 134.794L103.099 135.08C102.6 135.651 102.671 136.65 103.171 137.15L103.314 137.293C103.885 137.864 104.67 138.22 105.384 138.22H131.935C132.72 138.22 133.434 137.864 134.005 137.293L134.148 137.15C134.648 136.65 134.719 135.651 134.219 135.08L134.005 134.794Z" fill="#00B8E5"/>
<path d="M119.802 128.156H132.649" stroke="#00EBFF" stroke-miterlimit="10" stroke-linecap="round" stroke-linejoin="round"/>
<path d="M106.954 128.156H114.091" stroke="#00EBFF" stroke-miterlimit="10" stroke-linecap="round" stroke-linejoin="round"/>
<path d="M105.098 131.297H123.727" stroke="#00EBFF" stroke-miterlimit="10" stroke-linecap="round" stroke-linejoin="round"/>
<path d="M127.153 131.297H132.649" stroke="#00EBFF" stroke-miterlimit="10" stroke-linecap="round" stroke-linejoin="round"/>
<path d="M106.954 134.438H116.946" stroke="#00EBFF" stroke-miterlimit="10" stroke-linecap="round" stroke-linejoin="round"/>
<path d="M123.442 134.438H127.439" stroke="#00EBFF" stroke-miterlimit="10" stroke-linecap="round" stroke-linejoin="round"/>
<path d="M115.876 128.156H117.303" stroke="#00EBFF" stroke-miterlimit="10" stroke-linecap="round" stroke-linejoin="round"/>
<g opacity="0.2">
<path d="M155.918 27.5167C147.424 17.0244 134.862 9.60133 121.158 9.38721C119.587 9.38721 118.017 9.38721 116.447 9.45859C138.431 10.8147 157.417 29.8721 156.703 52.8551C156.132 72.1979 146.639 85.9734 127.153 94.3958C123.085 96.1802 120.159 98.8924 119.516 103.532C118.945 107.886 120.301 112.24 119.373 116.522C119.231 117.165 119.017 117.807 118.588 118.307C118.16 118.735 117.589 119.02 117.018 119.235C112.236 120.948 107.025 121.09 102.029 120.162C102.172 120.448 102.386 120.662 102.6 120.948C105.312 123.731 109.666 122.803 113.092 122.732C117.161 122.732 121.229 122.661 125.369 122.661C128.295 122.661 133.006 123.446 135.219 120.948C137.503 118.592 136.361 114.524 136.86 111.526C138.074 103.746 144.141 97.3936 149.708 92.3259C156.132 86.4731 161.2 79.7637 164.055 71.4841C169.336 56.2097 166.053 40.0074 155.918 27.5167Z" fill="#FFB839"/>
</g>
<path d="M232.361 140.79C232.361 140.79 228.079 137.792 224.653 137.292C217.872 136.293 214.018 139.005 210.377 136.936C208.879 136.079 212.59 135.508 213.018 134.58C213.09 134.437 213.018 133.153 213.018 133.153C213.018 133.153 212.233 133.581 211.234 133.224C204.382 130.726 198.529 131.011 188.608 131.011C166.339 131.011 147.924 135.008 145.211 140.219H144.854V141.575C144.997 147.356 164.483 152.067 188.536 152.067C211.734 152.067 232.076 147.642 232.29 142.217L232.361 140.79ZM203.597 141.432C200.456 141.432 197.887 140.504 197.887 139.362C197.887 138.22 200.456 137.292 203.597 137.292C206.737 137.292 209.307 138.22 209.307 139.362C209.307 140.504 206.737 141.432 203.597 141.432Z" fill="#86DFE7"/>
<path d="M232.29 140.219C231.719 137.935 228.079 136.507 224.653 136.079C217.872 135.08 214.018 137.792 210.377 135.722C208.236 134.509 216.587 133.866 211.234 131.939C204.382 129.441 198.529 129.727 188.608 129.727C164.483 129.727 144.854 134.437 144.854 140.219C144.854 146 164.411 150.711 188.608 150.711C212.733 150.711 233.717 145.929 232.29 140.219ZM203.597 140.219C200.456 140.219 197.887 139.291 197.887 138.149C197.887 137.007 200.456 136.079 203.597 136.079C206.737 136.079 209.307 137.007 209.307 138.149C209.307 139.291 206.737 140.219 203.597 140.219Z" fill="#516EF0"/>
<path d="M168.979 141.361C168.837 141.004 168.551 140.79 168.266 140.576C167.623 140.076 166.838 139.648 166.053 139.362C166.267 139.291 166.267 139.005 166.196 138.791C166.124 138.577 165.91 138.506 165.696 138.434C164.84 138.078 163.912 138.149 162.984 138.149C161.128 138.22 159.344 138.363 157.559 138.72C156.703 138.863 155.775 139.22 155.418 140.005C155.275 140.362 155.275 140.718 155.347 141.075C155.133 141.218 154.918 141.218 154.704 141.289C154.49 141.361 154.276 141.575 154.347 141.789C154.347 141.86 154.419 141.932 154.49 142.003C156.203 143.716 158.63 144.073 160.843 144.144C163.269 144.144 165.768 143.859 168.052 143.074C168.408 142.931 168.837 142.788 169.051 142.36C169.194 142.075 169.194 141.718 168.979 141.361Z" fill="#FC9549"/>
<path d="M185.824 135.579C185.682 135.222 185.396 135.008 185.111 134.794C184.468 134.294 183.683 133.866 182.898 133.581C183.112 133.509 183.112 133.224 183.041 133.01C182.969 132.796 182.755 132.724 182.541 132.653C181.684 132.296 180.757 132.367 179.829 132.367C177.973 132.439 176.189 132.581 174.404 132.938C173.548 133.081 172.62 133.438 172.263 134.223C172.12 134.58 172.12 134.937 172.191 135.294C171.977 135.436 171.763 135.436 171.549 135.508C171.335 135.579 171.121 135.793 171.192 136.007C171.192 136.079 171.264 136.15 171.335 136.222C173.048 137.935 175.475 138.291 177.687 138.363C180.114 138.363 182.612 138.077 184.896 137.292C185.253 137.149 185.681 137.007 185.896 136.578C186.038 136.364 185.967 135.936 185.824 135.579Z" fill="#FC5E49"/>
<path d="M216.23 144.144C216.087 143.859 215.873 143.645 215.588 143.502C215.017 143.074 214.374 142.717 213.732 142.431C213.875 142.36 213.946 142.146 213.875 142.003C213.803 141.86 213.661 141.718 213.447 141.718C212.733 141.432 211.948 141.432 211.163 141.504C209.592 141.575 208.022 141.646 206.523 142.003C205.809 142.146 205.024 142.431 204.667 143.145C204.525 143.431 204.525 143.716 204.596 144.073C204.453 144.216 204.239 144.216 204.025 144.216C203.811 144.287 203.668 144.501 203.668 144.644C203.668 144.715 203.739 144.787 203.811 144.858C205.238 146.286 207.38 146.643 209.235 146.643C211.305 146.643 213.447 146.357 215.445 145.786C215.802 145.643 216.159 145.501 216.302 145.215C216.373 144.787 216.373 144.43 216.23 144.144Z" fill="#00EBFF"/>
<path d="M192.819 144.858C192.676 144.501 192.391 144.287 192.105 144.073C191.463 143.573 190.678 143.145 189.892 142.86C190.107 142.788 190.107 142.503 190.035 142.289C189.964 142.074 189.75 142.003 189.536 141.932C188.679 141.575 187.751 141.646 186.823 141.646C184.968 141.718 183.183 141.86 181.399 142.217C180.542 142.36 179.614 142.717 179.257 143.502C179.115 143.859 179.115 144.216 179.186 144.573C178.972 144.715 178.758 144.715 178.544 144.787C178.33 144.858 178.115 145.072 178.187 145.286C178.187 145.358 178.258 145.429 178.33 145.5C180.043 147.214 182.469 147.57 184.682 147.642C187.109 147.642 189.607 147.356 191.891 146.571C192.248 146.428 192.676 146.286 192.89 145.857C193.104 145.643 193.033 145.215 192.819 144.858Z" fill="white"/>
<path d="M59.7031 169.697C59.7031 170.839 51.709 171.767 41.9305 171.767C32.0807 171.767 24.158 170.839 24.158 169.697C24.158 168.555 32.152 167.627 41.9305 167.627C51.709 167.556 59.7031 168.555 59.7031 169.697Z" fill="#DAE4E5"/>
<path d="M22.7304 162.274C20.946 158.848 20.5178 154.637 22.088 150.997C23.0159 148.855 24.2293 146.785 26.0851 145.358C27.6553 144.144 29.5825 143.217 31.5096 142.717C34.8643 141.86 38.5758 142.146 41.5736 143.859C44.0718 145.358 45.9276 147.713 47.1409 150.283C48.283 152.852 48.7826 155.993 51.3521 157.635C52.0659 158.134 53.2793 158.277 53.6361 159.205C54.0644 160.275 53.2793 161.275 52.851 162.203C52.3514 163.273 51.8517 164.344 51.3521 165.414C50.9952 166.2 50.6384 167.484 49.7105 167.77C48.854 168.055 47.8547 167.342 47.0696 167.056C44.8569 166.485 42.5015 167.342 40.503 168.198C38.219 169.197 35.8636 169.768 33.294 169.554C28.726 169.126 24.8717 166.414 22.7304 162.274Z" fill="#DBE2E8"/>
<path d="M53.0652 163.202C53.0652 163.202 45.999 159.704 42.6443 157.777C41.7164 157.278 40.7885 156.778 39.5752 155.636C38.79 154.922 37.1484 153.281 38.219 152.139C39.4324 150.854 40.8599 152.995 40.8599 154.137C40.8599 155.136 40.0034 156.564 39.2183 157.135C37.7908 158.134 35.6495 157.849 34.2934 157.064C33.2227 156.421 33.8651 154.922 35.0071 154.994C36.0778 155.065 39.2183 157.349 38.5045 159.205C38.1476 160.204 37.3625 160.989 36.3632 161.417C34.6502 162.274 32.509 160.133 34.8644 159.348C36.5774 158.777 38.7187 159.419 40.2889 159.99C44.6428 161.703 47.9975 163.13 52.28 164.843" stroke="white" stroke-miterlimit="10"/>
<path d="M51.2383 167.593L54.5055 160.297L53.7889 159.976L50.5217 167.272L51.2383 167.593Z" fill="#007FDD"/>
<path d="M53.5648 169.126C53.4935 168.912 53.2079 168.841 52.9938 168.912H52.9225C52.7083 168.983 52.4942 168.912 52.3514 168.698L52.2801 168.555C52.2087 168.341 51.9232 168.27 51.7091 168.341C51.4949 168.412 51.2808 168.341 51.1381 168.127L50.9953 167.841C50.9239 167.699 50.9239 167.556 50.9953 167.484L54.2072 160.276C54.2786 160.133 54.35 160.061 54.4927 160.061L54.8496 159.99C55.0637 159.919 55.2779 160.061 55.3492 160.276C55.4206 160.49 55.6347 160.632 55.8488 160.561H55.9916C56.2057 160.49 56.4199 160.632 56.4912 160.847V160.918C56.5626 161.132 56.8481 161.203 56.9909 161.203H57.0622C57.2764 161.132 57.4905 161.275 57.6332 161.489V161.56C57.7046 161.774 57.7046 161.989 57.6332 162.203L54.4927 169.197C54.4213 169.412 54.2072 169.554 53.9931 169.626H53.9217C53.7076 169.697 53.4934 169.626 53.3507 169.412L53.5648 169.126Z" fill="#00B8E5"/>
<path d="M53.4934 164.629L51.9945 167.984" stroke="#00EBFF" stroke-width="0.5" stroke-miterlimit="10" stroke-linecap="round" stroke-linejoin="round"/>
<path d="M54.9924 161.203L54.2073 163.059" stroke="#00EBFF" stroke-width="0.5" stroke-miterlimit="10" stroke-linecap="round" stroke-linejoin="round"/>
<path d="M56.063 161.132L53.8503 165.986" stroke="#00EBFF" stroke-width="0.5" stroke-miterlimit="10" stroke-linecap="round" stroke-linejoin="round"/>
<path d="M53.4936 166.913L52.8512 168.341" stroke="#00EBFF" stroke-width="0.5" stroke-miterlimit="10" stroke-linecap="round" stroke-linejoin="round"/>
<path d="M56.7055 161.989L55.4921 164.558" stroke="#00EBFF" stroke-width="0.5" stroke-miterlimit="10" stroke-linecap="round" stroke-linejoin="round"/>
<path d="M54.7069 166.271L54.2787 167.342" stroke="#00EBFF" stroke-width="0.5" stroke-miterlimit="10" stroke-linecap="round" stroke-linejoin="round"/>
<path d="M53.9931 163.559L53.7789 163.916" stroke="#00EBFF" stroke-width="0.5" stroke-miterlimit="10" stroke-linecap="round" stroke-linejoin="round"/>
<g opacity="0.55">
<path d="M22.7305 162.274C20.9461 158.848 20.5179 154.637 22.0882 150.997C22.2309 150.568 22.445 150.14 22.6592 149.783C20.4465 155.707 23.2302 162.988 29.3685 165.486C34.5076 167.627 39.2897 166.771 43.7864 162.631C44.7143 161.774 45.7849 161.346 47.0697 161.703C48.2831 162.06 49.2823 162.916 50.4957 163.202C50.7098 163.273 50.8526 163.273 51.0667 163.202C51.2095 163.13 51.3522 162.988 51.495 162.916C52.4943 161.846 53.1366 160.49 53.4935 159.062C53.5649 159.133 53.5649 159.205 53.6363 159.276C54.0645 160.347 53.2794 161.346 52.8511 162.274C52.3515 163.345 51.8519 164.415 51.3522 165.486C50.9954 166.271 50.6385 167.556 49.7106 167.841C48.8541 168.127 47.8548 167.413 47.0697 167.128C44.857 166.557 42.5016 167.413 40.5031 168.27C38.2191 169.269 35.8637 169.84 33.2942 169.626C28.7261 169.126 24.8718 166.414 22.7305 162.274Z" fill="#DBE2E8"/>
</g>
<path d="M191.248 165.557C191.248 166.485 184.967 167.199 177.259 167.199C169.55 167.199 163.269 166.485 163.269 165.557C163.269 164.629 169.55 163.916 177.259 163.916C185.039 163.916 191.248 164.629 191.248 165.557Z" fill="#DAE4E5"/>
<path d="M191.534 160.632C192.89 158.063 193.318 154.993 192.176 152.281C191.534 150.711 190.606 149.141 189.321 148.07C188.179 147.142 186.752 146.428 185.324 146C182.826 145.286 180.042 145.429 177.83 146.714C175.974 147.784 174.546 149.498 173.618 151.425C172.691 153.28 172.262 155.636 170.407 156.778C169.835 157.135 168.979 157.206 168.694 157.848C168.337 158.634 168.908 159.419 169.193 160.061C169.55 160.846 169.907 161.631 170.264 162.488C170.478 163.059 170.763 164.058 171.406 164.272C172.048 164.486 172.762 163.987 173.404 163.773C175.046 163.344 176.759 164.058 178.258 164.701C179.971 165.486 181.684 165.914 183.54 165.771C187.037 165.7 189.963 163.701 191.534 160.632Z" fill="#DBE2E8"/>
<path d="M169.051 160.918C169.051 160.918 174.332 158.42 176.902 157.063C177.544 156.707 178.258 156.35 179.186 155.565C180.756 154.208 180.614 153.209 179.971 152.852C179.186 152.353 178.258 153.281 178.258 154.494C178.258 155.208 178.829 156.278 179.472 156.707C180.542 157.492 182.112 157.349 183.183 156.707C183.683 156.421 183.825 155.065 182.683 155.136C181.898 155.208 179.543 156.849 180.043 158.205C180.328 158.919 180.899 159.49 181.541 159.847C182.112 160.133 183.04 160.275 183.611 160.133C184.825 159.776 183.54 158.562 182.898 158.42C181.47 157.991 179.971 158.277 178.615 158.776C175.403 159.99 172.834 160.989 169.622 162.202" stroke="white" stroke-miterlimit="10"/>
<path d="M170.856 163.98L168.546 158.524L168.02 158.747L170.33 164.202L170.856 163.98Z" fill="#007FDD"/>
<path d="M168.622 165.272C168.694 165.129 168.908 165.057 169.051 165.129H169.122C169.265 165.2 169.479 165.129 169.55 164.986L169.622 164.915C169.693 164.772 169.907 164.701 170.05 164.772C170.193 164.843 170.407 164.772 170.478 164.629L170.621 164.415C170.692 164.344 170.692 164.201 170.621 164.13L168.337 158.705C168.265 158.634 168.194 158.562 168.123 158.562L167.837 158.491C167.694 158.42 167.48 158.562 167.409 158.705C167.338 158.848 167.195 158.919 166.981 158.919H166.909C166.767 158.848 166.552 158.991 166.481 159.133V159.205C166.41 159.347 166.267 159.419 166.053 159.419H165.981C165.839 159.347 165.625 159.49 165.553 159.633C165.482 159.776 165.482 159.99 165.553 160.133L167.766 165.343C167.837 165.486 167.98 165.628 168.123 165.7C168.265 165.557 168.48 165.486 168.622 165.272Z" fill="#00B8E5"/>
<path d="M168.694 161.917L169.764 164.487" stroke="#00EBFF" stroke-width="0.5" stroke-miterlimit="10" stroke-linecap="round" stroke-linejoin="round"/>
<path d="M167.623 159.419L168.265 160.846" stroke="#00EBFF" stroke-width="0.5" stroke-miterlimit="10" stroke-linecap="round" stroke-linejoin="round"/>
<path d="M166.909 159.276L168.408 162.988" stroke="#00EBFF" stroke-width="0.5" stroke-miterlimit="10" stroke-linecap="round" stroke-linejoin="round"/>
<path d="M168.694 163.63L169.193 164.772" stroke="#00EBFF" stroke-width="0.5" stroke-miterlimit="10" stroke-linecap="round" stroke-linejoin="round"/>
<path d="M166.41 159.918L167.266 161.917" stroke="#00EBFF" stroke-width="0.5" stroke-miterlimit="10" stroke-linecap="round" stroke-linejoin="round"/>
<path d="M167.766 163.202L168.123 163.987" stroke="#00EBFF" stroke-width="0.5" stroke-miterlimit="10" stroke-linecap="round" stroke-linejoin="round"/>
<path d="M168.408 161.132L168.48 161.417" stroke="#00EBFF" stroke-width="0.5" stroke-miterlimit="10" stroke-linecap="round" stroke-linejoin="round"/>
<g opacity="0.55">
<path d="M191.534 160.632C192.89 158.063 193.318 154.993 192.176 152.281C192.033 151.996 191.891 151.639 191.748 151.353C193.318 155.779 191.106 161.132 186.537 162.916C182.683 164.415 179.186 163.701 175.902 160.561C175.189 159.918 174.404 159.562 173.476 159.847C172.548 160.061 171.834 160.704 170.906 160.918C170.763 160.918 170.621 160.989 170.478 160.918C170.335 160.846 170.264 160.775 170.192 160.704C169.479 159.918 168.979 158.919 168.765 157.848C168.693 157.92 168.694 157.991 168.694 157.991C168.337 158.776 168.908 159.562 169.193 160.204C169.55 160.989 169.907 161.774 170.264 162.631C170.478 163.202 170.763 164.201 171.406 164.415C172.048 164.629 172.762 164.13 173.404 163.915C175.046 163.487 176.759 164.201 178.258 164.843C179.971 165.628 181.684 166.057 183.54 165.914C187.037 165.7 189.963 163.701 191.534 160.632Z" fill="#DBE2E8"/>
</g>
<path d="M79.3314 63.4184C77.8325 63.4184 76.5477 62.205 76.5477 60.6347C76.4763 47.573 80.4734 40.364 84.8273 34.5112C85.7552 33.2978 87.4682 33.0123 88.6816 33.9402C89.895 34.8681 90.1805 36.5811 89.2526 37.7945C85.7552 42.5053 81.9723 48.5722 82.0436 60.492C82.115 62.1336 80.9016 63.4184 79.3314 63.4184Z" fill="#FFE1B0"/>
<path d="M96.0333 29.515C95.3909 29.515 94.8199 29.3009 94.3203 28.944C93.1069 28.0161 92.8928 26.2317 93.8921 25.0183C95.1768 23.3767 96.4616 22.5915 96.6757 22.4488C97.9605 21.6636 99.6735 22.0919 100.459 23.448C101.244 24.7328 100.815 26.4458 99.5307 27.231C99.4594 27.231 98.8884 27.6592 98.246 28.4444C97.675 29.1581 96.8898 29.515 96.0333 29.515Z" fill="#FFE1B0"/>
<path d="M107.311 179.404C107.311 181.26 99.0313 182.759 88.7531 182.759C78.5464 182.759 70.1954 181.26 70.1954 179.404C70.1954 177.548 78.475 176.049 88.7531 176.049C99.0313 176.049 107.311 177.548 107.311 179.404Z" fill="#DAE4E5"/>
<path d="M101.029 171.624H84.8271L92.8926 168.983H109.309L109.238 169.126L101.458 171.481C101.315 171.624 101.172 171.624 101.029 171.624Z" fill="#767F82"/>
<path d="M100.816 171.339H84.9701L92.8928 168.983H108.952L101.244 171.267C101.101 171.339 100.958 171.339 100.816 171.339Z" fill="#DBE2E8"/>
<path opacity="0.55" d="M99.5306 170.982H89.0383L94.3202 169.411H104.884L99.7447 170.91C99.6733 170.982 99.602 170.982 99.5306 170.982Z" fill="#767F82"/>
<path d="M109.309 168.983H92.8925L94.9623 159.918C95.0337 159.633 95.3906 159.419 95.6761 159.419H110.451C110.951 159.419 111.307 159.847 111.165 160.347L109.309 168.983Z" fill="#767F82"/>
<path d="M108.952 168.983H92.8925L94.9623 159.918C95.0337 159.633 95.3906 159.419 95.6761 159.419H110.094C110.594 159.419 110.951 159.847 110.808 160.347L108.952 168.983Z" fill="#767F82"/>
<path d="M108.238 168.412H93.7491L95.6049 159.99H110.094L108.238 168.412Z" fill="#DBE2E8"/>
<path d="M106.74 166.628L106.597 167.341H105.883" stroke="white" stroke-width="0.5" stroke-linecap="round" stroke-linejoin="round"/>
<path d="M103.884 167.341H97.6034" stroke="white" stroke-width="0.5" stroke-linecap="round" stroke-linejoin="round" stroke-dasharray="2.26 2.26"/>
<path d="M96.6041 167.341H95.8904L96.0331 166.628" stroke="white" stroke-width="0.5" stroke-linecap="round" stroke-linejoin="round"/>
<path d="M96.4613 164.772L97.2464 161.132H106.311" stroke="white" stroke-width="0.5" stroke-linecap="round" stroke-linejoin="round" stroke-dasharray="2.14 2.14"/>
<path d="M107.239 161.132H107.953L107.81 161.774" stroke="white" stroke-width="0.5" stroke-linecap="round" stroke-linejoin="round"/>
<path d="M107.382 163.558L106.954 165.771" stroke="white" stroke-width="0.5" stroke-linecap="round" stroke-linejoin="round" stroke-dasharray="1.98 1.98"/>
<path d="M89.0383 170.553H102.171" stroke="#DBE2E8" stroke-width="0.5" stroke-miterlimit="10"/>
<path d="M91.465 169.84H104.598" stroke="#DBE2E8" stroke-width="0.25" stroke-miterlimit="10"/>
<path d="M87.6107 169.697C88.1817 169.269 89.1096 169.126 89.8234 169.055C90.5371 168.983 91.2509 168.983 91.9646 169.055C92.3929 169.055 92.2501 169.554 91.8933 169.626C91.465 169.697 91.1081 169.697 90.6799 169.626C90.3944 169.983 90.0375 170.197 89.6093 170.339C89.181 170.482 88.7527 170.482 88.3245 170.482C88.1817 170.482 88.039 170.482 88.039 170.339" fill="#F39F86"/>
<path d="M104.955 164.272L101.886 161.274" stroke="white" stroke-width="0.25" stroke-miterlimit="10"/>
<path d="M104.884 164.201C104.955 164.129 105.026 164.129 105.098 164.201C105.169 164.272 105.169 164.344 105.098 164.415C105.026 164.486 104.955 164.486 104.884 164.415C104.812 164.344 104.812 164.272 104.884 164.201Z" fill="white"/>
<path d="M103.742 165.272C103.813 165.2 103.885 165.2 103.956 165.272C104.028 165.343 104.028 165.414 103.956 165.486C103.885 165.557 103.813 165.557 103.742 165.486C103.671 165.414 103.671 165.343 103.742 165.272Z" fill="white"/>
<path d="M100.673 162.131C100.744 162.06 100.815 162.06 100.887 162.131C100.958 162.202 100.958 162.274 100.887 162.345C100.815 162.416 100.744 162.416 100.673 162.345C100.601 162.274 100.601 162.202 100.673 162.131Z" fill="white"/>
<path d="M101.815 161.132C101.886 161.06 101.957 161.06 102.029 161.132C102.1 161.203 102.1 161.274 102.029 161.346C101.957 161.417 101.886 161.417 101.815 161.346C101.743 161.274 101.743 161.203 101.815 161.132Z" fill="white"/>
<path d="M100.744 162.202C100.744 162.202 102.243 161.488 103.385 162.702C104.527 163.844 103.885 165.343 103.885 165.343" stroke="white" stroke-width="0.25" stroke-miterlimit="10"/>
<path d="M101.458 162.987L103.385 162.702L101.886 164.344C101.743 164.201 101.458 164.201 101.244 164.344C101.101 164.486 101.101 164.772 101.244 164.986C101.386 165.129 101.672 165.129 101.886 164.986C102.029 164.843 102.029 164.558 101.886 164.344L103.456 162.773C103.456 162.773 103.242 164.129 103.171 164.772C102.671 164.986 101.172 165.914 100.815 166.199C100.744 166.271 99.959 165.414 99.959 165.343C100.459 164.772 101.458 162.987 101.458 162.987Z" fill="white"/>
<path d="M99.3165 165.343L99.6734 164.986C99.7447 164.915 99.8161 164.915 99.8875 164.986L101.172 166.271C101.244 166.342 101.244 166.413 101.172 166.485L100.815 166.842C100.744 166.913 100.673 166.913 100.601 166.842L99.3165 165.557C99.2451 165.486 99.2451 165.414 99.3165 165.343Z" fill="white"/>
<path d="M75.62 170.839C75.2631 171.981 75.3345 172.909 75.1203 174.051C74.8348 175.764 74.6921 177.763 75.8341 179.119C76.6906 180.047 77.4044 180.403 78.6891 180.475C79.7598 180.475 80.8304 180.332 81.901 180.261C82.6148 180.261 84.8275 180.403 85.5412 180.475C88.7531 180.618 90.6089 179.904 93.7494 179.476C95.9621 179.19 99.9591 178.405 102.1 177.763C110.309 175.479 107.382 172.195 105.526 171.624C105.098 171.481 103.314 170.91 103.314 170.91L100.887 171.553H92.4647C92.4647 171.553 88.9673 171.41 87.4684 171.053" fill="#023D5F"/>
<path d="M99.6735 166.271C99.8877 166.342 100.03 166.485 100.173 166.628C100.53 166.842 100.887 167.056 101.315 167.199C101.672 167.342 102.1 167.484 102.457 167.698C102.529 167.698 102.6 167.77 102.671 167.841C102.743 167.913 102.814 168.055 102.814 168.198C103.028 169.411 103.314 170.696 102.957 171.91C102.671 171.481 102.457 171.053 102.314 170.553C102.243 170.339 102.172 170.054 102.029 169.911C101.958 169.84 101.815 169.768 101.672 169.697C101.244 169.483 100.958 169.055 100.673 168.698C100.601 168.626 100.53 168.484 100.53 168.412C100.53 168.341 100.53 168.341 100.53 168.269L100.459 168.198C99.959 167.913 99.5308 167.556 99.0311 167.27" fill="#F39F86"/>
<path d="M76.976 170.839C76.3336 170.339 75.6199 169.768 74.9061 169.197C73.3359 167.913 71.9797 166.485 71.7656 165.414C71.4087 163.059 71.6942 156.207 71.837 152.924C71.837 152.71 71.837 152.567 71.837 152.353C72.0511 149.284 73.6927 147.927 74.4779 147.428C74.9061 151.425 75.834 160.49 75.9054 160.918C76.1909 161.56 76.976 170.839 76.976 170.839Z" fill="#2B99FF"/>
<path d="M76.9761 170.839C76.3337 170.339 75.6199 169.768 74.9062 169.197C74.8348 166.628 73.9069 167.199 72.8363 162.773C71.5515 157.135 72.5508 151.996 72.5508 151.996L75.1203 152.353C75.5485 156.35 75.9768 160.632 76.0482 160.918C76.1909 161.56 76.9761 170.839 76.9761 170.839Z" fill="#007FDD"/>
<path d="M78.6176 145.643C78.6176 145.643 79.1886 143.788 78.9031 142.431C78.689 141.075 77.8325 138.577 78.118 136.793C78.4035 134.937 80.7589 133.438 83.1856 133.652C85.6124 133.866 86.3262 136.222 86.7544 137.578C87.1827 138.934 87.1113 141.004 86.9686 142.146C86.8972 143.288 86.2548 144.145 85.8265 144.43C85.3983 144.644 83.8994 144.359 83.6139 144.644C83.3284 144.93 83.1143 146.643 83.1143 146.643" fill="#F39F86"/>
<path d="M77.4044 147.142C77.4044 147.142 77.5472 146.072 77.9754 145.715C78.4037 145.358 81.116 145.358 81.9011 145.429C82.6862 145.501 84.7561 146.5 84.9703 146.643C85.2558 146.857 84.6848 147.856 84.6848 147.856L77.4044 147.142Z" fill="#2B99FF"/>
<path d="M78.6891 143.359C78.6891 143.359 82.1151 143.645 82.7575 143.359C83.3999 143.074 84.3278 142.431 84.3992 141.289C84.4705 140.147 84.2564 139.791 84.6847 139.148C85.1129 138.506 85.5412 138.72 85.6125 139.362C85.6839 140.005 85.6839 141.075 85.898 141.147C86.1122 141.289 86.3977 140.504 86.2549 139.291C86.1836 138.292 86.0408 137.435 85.7553 136.793C85.4698 136.079 85.2557 136.15 84.9702 136.008C85.2557 135.865 85.6125 135.865 86.1835 134.937C86.8973 133.866 86.4691 132.225 84.6847 132.225C81.5441 132.225 78.1895 132.867 78.1181 135.223C78.1181 135.223 76.9761 135.08 76.9761 137.15C76.9761 139.291 78.3322 141.86 78.4036 142.503C78.475 143.145 78.3322 143.145 78.6891 143.359Z" fill="#023D5F"/>
<path d="M88.182 168.412C88.3247 169.483 89.2526 171.124 88.6102 171.339C88.3247 171.41 87.3255 171.339 86.0407 171.267H85.9693H85.8979C84.7559 171.196 83.4712 171.053 82.4005 170.982C78.0466 170.768 75.834 171.695 75.4057 171.41C75.1916 171.267 75.1916 170.91 75.263 170.553C75.4057 169.626 75.4771 168.626 75.3343 167.698C75.1916 166.913 75.0488 165.914 74.8347 164.843C74.1209 161.06 72.6934 155.208 72.4793 151.782C72.1224 146.286 77.9752 146.857 77.9752 146.857C85.3983 146.357 88.9671 148.57 89.324 151.71C89.324 151.924 89.3954 152.21 89.3954 152.424C89.6095 155.707 88.6102 161.06 88.1106 165.057C88.1106 166.057 88.1106 167.341 88.182 168.412Z" fill="#2B99FF"/>
<path d="M88.1822 168.412C88.3249 169.483 89.2528 171.125 88.6104 171.339C88.3249 171.41 87.3257 171.339 86.0409 171.267C87.1829 171.339 87.397 170.482 87.1829 169.911C86.8974 169.34 86.3978 167.984 86.4692 166.414C86.5405 164.843 87.1115 161.275 87.4684 157.849C87.8253 154.708 87.5398 152.281 87.4684 151.924C87.6825 152.281 88.1822 152.781 89.6097 153.138C89.6097 156.492 88.7532 161.346 88.3249 165.058C88.1108 166.057 88.1108 167.342 88.1822 168.412Z" fill="#007FDD"/>
<path d="M84.542 147.428C84.542 147.428 87.968 147.142 89.4669 148.427C90.6803 149.426 92.9643 162.203 92.9643 162.203L89.7524 163.487C89.7524 163.487 86.255 154.779 85.3985 154.922" fill="#2B99FF"/>
<path d="M89.6097 163.202C90.6804 166.628 99.531 167.912 99.531 167.912L100.031 166.342C100.031 166.342 94.606 162.345 92.6789 161.774" fill="#2B99FF"/>
<path d="M101.03 171.767C101.815 171.838 102.6 171.981 103.385 171.91C103.456 171.91 103.528 171.767 103.385 171.767C102.6 171.624 101.815 171.624 101.03 171.624C100.958 171.624 100.958 171.767 101.03 171.767Z" fill="#062F44"/>
<path d="M98.9597 178.405C96.0333 178.262 93.1069 178.976 90.2519 179.404C87.3969 179.832 84.2563 179.975 81.6154 178.762C81.4013 178.69 81.1872 178.548 80.9017 178.548C80.6162 178.548 80.402 178.762 80.1879 178.905C79.6883 179.261 79.1887 179.547 78.6176 179.69C77.8325 179.832 77.547 179.69 76.7619 179.547C76.6905 179.547 76.6191 179.547 76.5477 179.547C76.5477 179.547 76.5477 179.547 76.5477 179.618C77.4042 180.261 77.8325 180.475 78.9031 180.475C79.9738 180.475 81.0444 180.332 82.1151 180.261C82.8288 180.261 85.0415 180.403 85.7552 180.475C88.9671 180.618 90.8229 179.904 93.9634 179.476C95.2482 179.333 97.2467 178.976 99.1025 178.548C98.9597 178.476 98.9597 178.476 98.9597 178.405Z" fill="#062F44"/>
<path d="M181.756 61.4912C181.328 61.2057 180.828 60.9916 180.329 60.8488C179.615 60.6347 179.972 60.0637 179.187 60.2065C177.759 60.4206 174.404 61.1343 172.335 61.7053C172.335 61.7053 172.335 61.7053 172.263 61.7053C171.264 61.9909 170.907 61.7053 170.907 61.7053L170.479 62.205L170.55 62.3477C170.265 62.5619 169.979 62.9901 169.908 63.5611C169.908 63.6325 169.765 64.0608 169.765 64.489C169.694 64.8459 169.694 65.2028 169.908 65.3455H169.979C170.621 65.631 171.621 65.631 171.835 65.631C172.905 65.7024 175.404 65.3455 177.759 65.06C179.187 64.8459 180.614 64.7031 181.471 64.5604C181.827 64.489 182.113 64.3463 182.398 64.1321C182.613 63.918 182.755 63.7039 182.827 63.347C182.97 62.6332 182.47 61.9908 181.756 61.4912Z" fill="#2B99FF"/>
<path d="M172.12 64.4178C172.049 64.5605 171.977 64.7033 171.906 64.8461C171.835 64.9174 171.835 64.9174 171.763 64.9888C170.264 66.4877 168.337 64.9888 167.267 64.1323C165.696 62.8475 163.841 60.6349 162.342 59.2787C162.27 59.2074 161.771 58.7791 161.842 58.7077L163.198 56.9233C163.198 56.9233 166.838 60.2066 168.908 60.9204C169.836 61.2773 170.764 61.5628 171.406 61.9196C171.478 61.991 171.549 61.991 171.621 62.0624C171.621 62.0624 172.62 63.2044 172.12 64.4178Z" fill="#2B99FF"/>
<path d="M177.759 65.0602C175.403 65.3457 172.905 65.7026 171.835 65.6312C171.621 65.6312 170.621 65.6312 169.979 65.3457H169.908C168.48 64.7747 167.624 63.4185 169.765 64.4892C170.336 64.7747 170.764 64.9174 170.978 64.9888C171.192 65.0602 171.478 65.0602 171.763 65.0602C171.835 65.0602 171.835 65.0602 171.906 65.0602C173.905 64.9888 179.615 60.7062 177.759 65.0602Z" fill="#007FDD"/>
<path d="M187.252 73.4111C186.824 74.5531 186.752 75.7665 186.966 76.9085C187.466 79.2639 186.895 79.4067 186.895 79.4067C186.895 79.4067 183.754 81.4052 181.114 82.2617C179.258 82.8327 177.616 82.7614 177.687 80.6915C177.687 80.5487 177.687 80.4773 177.687 80.3346C177.759 75.6952 176.831 75.4097 176.545 70.1992C176.331 64.846 176.331 61.6341 178.044 60.7776C179.9 59.8497 182.47 59.2073 186.11 60.0638C188.822 60.7062 189.75 61.42 189.75 63.4899C189.75 64.1323 189.607 64.9888 189.464 65.988C189.036 68.4148 187.966 71.484 187.252 73.4111Z" fill="#2B99FF"/>
<path d="M187.252 73.411C186.824 74.553 186.752 75.7664 186.966 76.9084C187.466 79.2638 186.895 79.4065 186.895 79.4065C186.895 79.4065 183.754 81.4051 181.114 82.2616L178.687 82.0474L177.688 81.2623V80.6199C177.688 80.4772 177.688 80.4058 177.688 80.2631C178.259 80.3344 179.543 80.4058 181.399 80.1917C182.827 80.0489 184.183 79.6207 185.039 79.2638C185.682 79.0497 186.038 78.3359 185.967 77.6935C185.824 76.7656 185.61 75.4809 185.61 74.4102C185.61 73.411 186.11 71.6266 186.467 70.4132C186.752 69.4853 186.895 68.4147 186.824 67.4154C186.681 65.7024 186.824 64.0607 186.824 64.0607L188.751 62.9901L189.821 63.4184C189.821 64.0608 189.679 64.9173 189.536 65.9165C189.036 68.4147 187.966 71.4838 187.252 73.411Z" fill="#007FDD"/>
<path d="M178.901 52.0697C178.901 52.0697 177.688 50.7136 177.83 48.7864C177.902 47.6444 178.259 46.5738 179.972 46.1455C180.899 45.9314 182.184 46.6452 183.183 47.6444C186.11 47.8586 187.109 49.9285 187.18 52.2125L183.754 51.4273L178.901 52.0697Z" fill="#023D5F"/>
<path d="M186.61 53.5687C186.538 56.2096 184.254 57.7085 184.254 57.7085L184.397 60.1352L182.898 61.1345L181.827 61.8483L181.256 60.5635L181.185 58.9932C181.185 58.6364 180.9 58.3508 180.543 58.2795C180.186 58.2081 179.615 57.994 179.044 57.3516C179.044 57.2802 178.972 57.2802 178.972 57.2088C177.973 55.8527 177.616 50.6423 180.971 49.2147C184.468 47.6445 186.61 50.9278 186.61 53.5687Z" fill="#F39F86"/>
<path d="M180.614 61.9194C180.614 61.9194 179.115 71.2697 179.686 75.695L180.757 77.6221L181.899 75.5522C181.899 75.5522 180.828 67.7722 181.399 62.0622L180.614 61.9194Z" fill="#16405A"/>
<path d="M180.4 61.1345V61.2773C180.4 61.4914 180.471 61.7055 180.614 61.9197L181.399 62.0624L182.041 61.5628L181.256 60.6349H181.113C180.899 60.7776 180.614 60.9204 180.4 61.1345Z" fill="#103649"/>
<path d="M184.397 58.9932C184.397 58.9932 184.754 59.2073 185.111 59.7783C185.111 59.7783 184.611 59.9924 184.183 60.2779C183.754 60.4921 181.827 61.9196 181.827 61.9196L181.256 60.7776C181.256 60.7062 183.255 59.2787 184.397 58.9932Z" fill="#007FDD"/>
<path d="M181.256 60.7061C181.256 60.7061 180.614 60.9202 180.4 61.4199C180.4 61.4199 180.043 60.7775 180.471 59.5641C180.471 59.5641 180.828 59.2072 181.113 59.0645L181.256 60.7061Z" fill="#007FDD"/>
<g opacity="0.5">
<path d="M170.336 125.158C170.336 126.229 177.045 127.157 185.396 127.157C193.747 127.157 200.457 126.229 200.457 125.158C200.457 124.088 193.747 123.16 185.396 123.16C177.045 123.16 170.336 124.088 170.336 125.158Z" fill="#DAE4E5"/>
</g>
<path d="M178.259 122.518C178.259 122.518 177.973 123.231 178.045 123.66C178.045 124.088 179.544 124.159 179.686 123.945C179.829 123.731 179.972 121.661 179.972 121.661" fill="#F39F86"/>
<path d="M180.043 124.302C180.043 124.802 179.901 125.515 179.901 125.515H178.259L178.188 125.23C178.188 125.23 177.617 125.515 177.26 125.515H175.832C174.833 125.515 174.262 125.373 174.19 125.23C174.048 124.445 175.332 124.516 175.618 124.516C176.546 124.516 177.545 124.088 177.759 123.66C177.902 123.303 177.831 123.231 178.045 123.303C178.045 123.303 178.188 123.374 178.33 123.517C178.473 123.802 178.83 124.017 179.187 124.017C179.401 123.945 179.615 123.874 179.758 123.731C179.758 123.731 180.043 123.874 180.043 124.302Z" fill="#3A3A3A"/>
<path d="M194.39 120.947C194.39 120.947 194.675 122.161 194.889 122.589C195.103 123.017 196.46 122.518 196.531 122.232C196.602 121.947 195.889 120.02 195.889 120.02" fill="#F39F86"/>
<path d="M196.959 122.446C197.102 122.874 197.387 123.731 197.387 123.731L196.103 124.445L195.889 124.231C195.889 124.231 195.603 124.659 195.246 124.944C194.961 125.158 194.318 125.373 194.033 125.444C192.891 125.73 192.034 125.587 191.892 125.444C191.535 124.802 193.034 124.445 193.319 124.302C194.176 123.945 194.532 123.16 194.604 122.66C194.604 122.303 194.532 122.232 194.747 122.232C194.747 122.232 194.889 122.232 195.103 122.375C195.389 122.589 195.746 122.66 196.103 122.518C196.245 122.375 196.46 122.232 196.531 122.089C196.46 122.018 196.816 122.018 196.959 122.446Z" fill="#3A3A3A"/>
<path d="M188.537 88.6856C188.537 88.6856 190.821 83.3324 186.895 79.4067C186.895 79.4067 183.54 80.9056 180.9 81.1198C178.758 81.2625 177.688 81.0484 177.688 81.0484C177.688 81.0484 177.188 84.974 177.473 91.1124L188.537 88.6856Z" fill="#023D5F"/>
<path d="M180.114 123.089C180.043 123.089 179.971 123.089 179.9 123.089C178.473 123.089 177.687 122.946 177.687 122.946V122.518C177.759 116.379 177.045 106.244 176.902 103.104C176.902 102.889 176.902 102.675 176.902 102.461C177.116 100.106 179.543 100.463 180.542 102.604C180.757 103.104 180.971 103.675 181.113 104.246C181.328 104.959 181.399 105.744 181.47 106.601C182.041 111.883 180.543 119.092 180.114 123.089Z" fill="#023D5F"/>
<path d="M184.325 91.1837C184.325 91.2551 184.325 91.3265 184.254 91.3979C183.754 94.1815 181.97 101.819 181.185 104.245C181.042 104.602 180.685 104.888 180.114 105.031C178.901 105.388 177.117 104.888 176.974 102.461C176.974 102.176 176.974 101.89 176.974 101.605C177.117 99.6061 177.545 88.8283 177.688 87.7577C177.759 86.6871 177.973 85.1882 178.544 84.974C181.185 84.0462 185.039 87.2581 184.325 91.1837Z" fill="#023D5F"/>
<path d="M181.684 102.318C182.541 99.0351 183.754 93.6106 184.254 91.3266L183.683 88.757L180.828 85.4024L179.258 85.1882C179.258 85.1882 179.543 90.3273 181.327 94.3957C181.327 94.3957 181.327 100.177 180.542 102.604L179.829 104.531C179.829 104.531 179.9 104.745 180.043 105.031C180.4 106.173 181.185 109.028 180.756 112.454C180.185 116.808 179.829 123.089 179.829 123.089C179.9 123.089 179.971 123.089 180.043 123.089C180.471 119.234 181.827 112.382 181.47 107.172C181.47 107.101 181.47 106.886 181.399 106.601C181.256 104.46 181.684 102.318 181.684 102.318Z" fill="#062F44"/>
<path d="M189.75 102.461C187.894 100.677 185.253 101.533 186.467 104.246C187.751 107.172 191.748 115.237 193.961 121.019L194.104 121.376C194.104 121.376 194.96 121.233 196.388 120.662C195.389 116.95 194.603 110.455 192.462 105.959C191.82 104.531 190.749 103.318 189.75 102.461Z" fill="#023D5F"/>
<path d="M179.258 85.1883C178.901 80.8343 184.325 83.7607 186.895 85.1883C187.965 85.7593 188.394 86.9726 188.536 88.1147C188.679 89.2567 190.107 100.962 190.392 103.032C191.035 107.814 186.823 105.245 186.467 103.889C185.396 100.534 179.472 87.5437 179.258 85.1883Z" fill="#023D5F"/>
<path d="M189.964 100.106C189.964 100.106 190.107 102.39 192.034 105.245C192.034 105.245 188.893 103.817 188.751 103.603C188.608 103.389 188.037 101.176 188.108 100.891C188.18 100.605 189.964 100.106 189.964 100.106Z" fill="#023D5F"/>
<path d="M153.063 46.7165C155.49 45.2176 156.204 43.7901 156.204 43.7901C156.204 43.7901 156.275 43.4332 156.275 42.8622C156.275 41.7202 155.918 39.7931 153.92 39.0793C150.993 38.0087 149.066 40.0072 147.068 36.5098C147.068 36.5098 147.068 36.5098 147.068 36.5811C147.567 39.8644 146.996 46.7165 153.063 46.7165Z" fill="white"/>
<path d="M153.063 46.7165C155.49 45.2176 156.204 43.7901 156.204 43.7901C156.204 43.7901 156.275 43.4332 156.275 42.8622C149.494 49.2147 147.21 37.4377 147.068 36.5098C147.567 39.8644 146.996 46.7165 153.063 46.7165Z" fill="#FFE7C5"/>
<path d="M146.996 36.5813C147.424 37.5806 148.067 38.4371 148.923 39.0795C149.352 39.4363 149.78 39.7218 150.279 39.8646C150.779 40.0073 151.279 40.0787 151.85 40.1501C152.421 40.2215 152.92 40.2928 153.491 40.507C153.991 40.7211 154.491 41.078 154.847 41.5062C155.561 42.4341 155.633 43.7189 155.204 44.7181C155.49 43.6475 155.276 42.5055 154.633 41.7204C154.276 41.2921 153.848 41.0066 153.42 40.8638C152.92 40.7211 152.421 40.6497 151.85 40.5783C151.35 40.507 150.779 40.4356 150.208 40.2215C149.708 40.0073 149.209 39.6505 148.78 39.2936C147.924 38.5798 147.282 37.6519 146.996 36.5813Z" fill="#FFE7C5"/>
<path d="M146.996 36.5813C147.282 37.5806 147.71 38.5084 148.209 39.2936C148.78 40.1501 149.423 40.8638 150.279 41.4349C150.708 41.7204 151.136 41.8631 151.636 42.0772C152.064 42.2914 152.563 42.5769 152.992 42.8624C153.42 43.2193 153.777 43.5761 153.991 44.0758C154.205 44.5754 154.276 45.075 154.276 45.5747C154.205 44.5754 153.634 43.6475 152.778 43.1479C152.349 42.8624 151.921 42.6482 151.493 42.4341C151.065 42.22 150.565 42.0059 150.137 41.7204C149.28 41.1493 148.566 40.3642 148.067 39.4363C147.496 38.5798 147.139 37.5806 146.996 36.5813Z" fill="#FFE7C5"/>
<path d="M192.177 90.0418C192.034 90.0418 191.891 89.9704 191.749 89.9704C190.036 89.328 189.536 85.4023 189.536 84.9027L189.465 84.4031L189.964 84.5458C190.392 84.6886 194.175 85.9733 194.532 87.7577C194.675 88.3287 194.39 88.8998 193.819 89.3994C193.176 89.8276 192.677 90.1131 192.177 90.0418ZM190.178 85.4023C190.392 86.6871 190.963 88.9711 191.963 89.3994C192.32 89.5421 192.819 89.3994 193.319 88.8998C193.747 88.5429 193.89 88.2574 193.819 87.9005C193.604 86.8298 191.463 85.8306 190.178 85.4023Z" fill="#007FDD"/>
<path d="M157.115 44.9224L153.909 47.7617L188.407 86.7136L191.613 83.8743L157.115 44.9224Z" fill="#FFC25B"/>
<path d="M156.148 43.771L152.942 46.6104L153.936 47.7324L157.142 44.8931L156.148 43.771Z" fill="#FFA92C"/>
<path d="M157.116 44.9225L153.91 47.7618L188.408 86.7137L191.614 83.8744L157.116 44.9225Z" fill="#FC9549"/>
<path d="M156.148 43.7711L152.942 46.6105L153.936 47.7325L157.142 44.8932L156.148 43.7711Z" fill="#0B0B3A"/>
<path opacity="0.2" d="M189.607 85.6163L188.394 86.6869L153.919 47.7157L152.92 46.6451L154.133 45.5745L155.133 46.6451L189.607 85.6163Z" fill="#71606E"/>
<path d="M191.001 83.2652L187.795 86.1045L188.363 86.7457L191.569 83.9063L191.001 83.2652Z" fill="#007FDD"/>
<path d="M185.396 80.9054L184.254 79.9775C184.254 79.9775 183.826 80.5485 183.612 80.6199C183.54 80.6199 183.469 80.6199 183.397 80.6199C183.112 80.6199 182.898 80.6913 182.47 80.9054C182.184 81.0482 181.827 81.1196 181.827 81.2623C181.827 81.3337 181.97 81.5478 182.184 81.5478H182.255C182.255 81.5478 182.255 81.6192 182.255 81.6906C182.327 81.9047 183.397 83.475 184.539 81.7619C184.825 81.2623 185.396 80.9054 185.396 80.9054Z" fill="#F39F86"/>
<path d="M186.395 66.1306C186.895 67.6295 187.395 70.0563 188.394 72.1262C188.394 72.1975 188.465 72.1975 188.465 72.2689C188.465 72.2689 188.465 72.3403 188.537 72.483C188.751 72.9113 189.179 73.7678 190.321 73.6964C190.392 73.6964 190.535 73.6964 190.678 73.6964C190.892 73.6964 191.178 73.6964 191.392 73.6964C191.677 73.6964 191.963 73.6251 192.034 73.4823C192.034 73.4823 192.034 73.4109 192.105 73.3396V73.2682V73.1968C192.105 73.1254 192.105 73.054 192.105 72.9113C192.105 72.8399 192.105 72.8399 192.105 72.7685C192.105 72.1975 192.034 71.6979 192.034 71.4838C191.891 69.7708 190.178 64.3462 189.607 62.1336C189.536 61.7767 189.322 61.4912 189.108 61.277C188.894 61.0629 188.608 60.9915 188.323 60.9202C188.251 60.9202 188.251 60.9202 188.18 60.9202C187.395 60.9202 186.895 61.5625 186.538 62.2763C186.324 62.7759 186.181 63.2756 186.11 63.7752C186.038 64.5603 186.181 65.3455 186.395 66.1306Z" fill="#2B99FF"/>
<path d="M183.755 80.2632L184.682 81.1197L184.897 81.3338C184.897 81.3338 186.824 79.6921 188.323 78.2646C189.679 76.9799 191.106 75.481 191.963 73.768C192.034 73.6966 192.034 73.6252 192.105 73.4824C192.105 73.4824 192.105 73.4111 192.177 73.3397V73.2683V73.197C192.177 73.1256 192.177 73.0542 192.177 72.9114C192.177 72.8401 192.177 72.8401 192.177 72.7687C192.177 72.4118 192.105 72.0549 191.82 71.7694L191.749 71.6981C191.677 71.6267 191.534 71.4839 191.392 71.4126C191.32 71.3412 191.178 71.3412 191.106 71.2698C190.036 70.9129 188.965 71.5553 188.965 71.5553C188.894 71.6267 188.822 71.6981 188.751 71.7694C188.608 71.9122 188.465 72.0549 188.323 72.1977C187.966 72.6973 187.609 73.2683 187.323 73.9107C186.538 76.052 183.755 80.2632 183.755 80.2632Z" fill="#2B99FF"/>
<path d="M178.473 50.3568C178.473 50.3568 180.757 49.9285 182.47 50.8564C183.398 51.356 184.397 51.356 185.325 50.9278L185.967 50.6423C185.967 50.6423 185.325 49.9285 185.254 49.8572C185.182 49.7858 184.611 49.1434 184.254 49.0006C183.897 48.8579 182.47 48.4296 182.327 48.3583C182.113 48.3583 181.613 48.2869 181.185 48.3583C180.757 48.4296 180.543 48.5724 180.329 48.6438C180.115 48.7865 179.472 49.1434 179.472 49.1434L178.473 50.3568Z" fill="#023D5F"/>
<path d="M162.199 58.208C162.199 58.208 160.557 56.7805 160.486 55.7812C160.415 54.7106 161.2 54.1396 161.699 54.782C162.484 55.7099 162.342 57.2801 162.342 57.2801L162.627 57.637L162.199 58.208Z" fill="#F39F86"/>
<path d="M184.754 81.1196L185.039 81.3338C185.039 81.3338 186.966 79.6921 188.465 78.2646C189.821 76.9798 191.249 75.481 192.105 73.7679C192.177 73.6966 192.177 73.6252 192.248 73.4824C192.248 73.4824 192.248 73.411 192.32 73.3397V73.2683V73.1969C192.32 73.1255 192.32 73.0542 192.32 72.9114C192.32 72.84 192.32 72.84 192.32 72.7687C192.32 72.1977 192.248 71.698 192.248 71.4839C192.105 69.7709 190.392 64.3463 189.821 62.1337C189.75 61.7768 189.536 61.4913 189.322 61.2772C189.108 61.063 188.822 60.9917 188.537 60.9203C188.465 60.9203 188.465 60.9203 188.394 60.9203C188.751 61.4913 189.25 62.6333 189.821 64.9887C190.607 68.1292 191.106 69.985 191.32 71.1984C191.463 71.7694 191.463 72.1977 191.392 72.4832C191.392 72.6973 191.178 73.0542 190.821 73.6252C189.393 75.9092 186.11 80.1917 184.754 81.1196Z" fill="#007FDD"/>
<path d="M184.254 57.7085C184.254 57.7085 184.04 56.9233 184.04 55.7813C184.04 55.7813 185.182 54.9962 185.182 54.2111C185.182 53.069 183.969 54.2111 183.969 54.2111C183.969 54.2111 183.683 53.4259 183.683 52.6408C183.612 51.356 185.682 50.4995 185.682 50.4995L186.752 51.2846L187.252 52.3553C187.181 52.2839 187.252 56.6378 184.254 57.7085Z" fill="#023D5F"/>
<path d="M145.068 88.2571L131.436 96.1085C131.222 96.1799 131.007 96.1799 130.936 95.9657L129.865 94.11C129.794 93.8958 129.794 93.6817 130.008 93.6103L143.641 85.759C143.855 85.6876 144.069 85.6876 144.141 85.9018L145.211 87.7575C145.354 87.9003 145.283 88.1144 145.068 88.2571Z" fill="#FF703D"/>
<g opacity="0.55">
<path d="M143.356 86.687H143.284L142.999 86.1873L143.141 86.116L143.427 86.6156C143.356 86.6156 143.356 86.6156 143.356 86.687Z" fill="#AFD4DD"/>
<path d="M142.927 86.4728L142.785 86.2587H142.856L142.927 86.4728Z" fill="#AFD4DD"/>
<path d="M142.856 86.9724H142.784L142.499 86.4727L142.641 86.4014L142.927 86.901C142.927 86.901 142.856 86.901 142.856 86.9724Z" fill="#AFD4DD"/>
<path d="M142.427 86.7583L142.285 86.5442H142.356L142.427 86.7583Z" fill="#AFD4DD"/>
<path d="M142.356 87.1867H142.285L141.999 86.6871L142.142 86.6157L142.427 87.1154C142.427 87.1867 142.427 87.1867 142.356 87.1867Z" fill="#AFD4DD"/>
<path d="M141.928 87.044L141.785 86.8298H141.857L141.928 87.044C141.999 87.044 141.999 86.9726 141.928 87.044Z" fill="#AFD4DD"/>
<path d="M141.928 87.4724H141.856L141.571 86.9727L141.714 86.9014L141.999 87.401C141.928 87.401 141.928 87.4724 141.928 87.4724Z" fill="#AFD4DD"/>
<path d="M141.5 87.3296L141.357 87.1155H141.428L141.5 87.3296C141.5 87.2582 141.5 87.2582 141.5 87.3296Z" fill="#AFD4DD"/>
<path d="M141.428 87.7578H141.357L141.071 87.2581L141.214 87.1868L141.5 87.6864C141.428 87.6864 141.428 87.7578 141.428 87.7578Z" fill="#AFD4DD"/>
<path d="M141 87.5436L140.857 87.3295H140.929L141 87.5436Z" fill="#AFD4DD"/>
<path d="M140.929 88.0429H140.857L140.572 87.5433L140.715 87.4719L141 87.9716C141 87.9716 141 88.0429 140.929 88.0429Z" fill="#AFD4DD"/>
<path d="M140.501 87.8288L140.358 87.6146H140.429L140.501 87.8288C140.572 87.8288 140.572 87.8288 140.501 87.8288Z" fill="#AFD4DD"/>
<path d="M140.501 88.3288H140.429L140.144 87.8292L140.286 87.7578L140.572 88.2574C140.501 88.2574 140.501 88.3288 140.501 88.3288Z" fill="#AFD4DD"/>
<path d="M140.072 88.1146C140.001 88.1146 140.001 88.1146 140.072 88.1146L139.93 87.9005H140.001L140.072 88.1146Z" fill="#AFD4DD"/>
<path d="M140.001 88.614H139.93L139.644 88.1143L139.787 88.043L140.072 88.5426C140.001 88.5426 140.001 88.5426 140.001 88.614Z" fill="#AFD4DD"/>
<path d="M139.573 88.3998L139.43 88.1857H139.502L139.573 88.3998Z" fill="#AFD4DD"/>
<path d="M139.501 88.8999H139.43L139.144 88.4002L139.287 88.3289L139.572 88.8285C139.572 88.8285 139.572 88.8285 139.501 88.8999Z" fill="#AFD4DD"/>
<path d="M139.073 88.6857L138.93 88.4716H139.002L139.073 88.6857C139.144 88.6857 139.144 88.6143 139.073 88.6857Z" fill="#AFD4DD"/>
<path d="M139.002 89.1137H138.93L138.645 88.6141L138.787 88.5427L139.073 89.0424C139.073 89.1137 139.073 89.1137 139.002 89.1137Z" fill="#AFD4DD"/>
<path d="M138.645 88.9709C138.573 88.9709 138.573 88.9709 138.645 88.9709L138.431 88.6854H138.502L138.645 88.9709Z" fill="#AFD4DD"/>
<path d="M138.573 89.3994H138.502L138.216 88.8997L138.359 88.8284L138.645 89.328C138.573 89.328 138.573 89.3994 138.573 89.3994Z" fill="#AFD4DD"/>
<path d="M138.145 89.1852C138.074 89.2566 138.145 89.2566 138.145 89.1852L138.002 88.9711H138.074L138.145 89.1852Z" fill="#AFD4DD"/>
<path d="M138.074 89.6848H138.002L137.717 89.1851L137.859 89.1138L138.145 89.6134L138.074 89.6848Z" fill="#AFD4DD"/>
<path d="M137.645 89.4706L137.503 89.2565H137.574L137.645 89.4706Z" fill="#AFD4DD"/>
<path d="M137.574 89.9702H137.503L137.217 89.4706L137.36 89.3992L137.646 89.8988C137.646 89.8988 137.646 89.9702 137.574 89.9702Z" fill="#AFD4DD"/>
<path d="M137.217 89.7561C137.146 89.7561 137.146 89.7561 137.217 89.7561L137.074 89.542H137.146L137.217 89.7561Z" fill="#AFD4DD"/>
<path d="M137.146 90.2558H137.074L136.789 89.7562L136.932 89.6848L137.217 90.1845C137.146 90.1845 137.146 90.2558 137.146 90.2558Z" fill="#AFD4DD"/>
<path d="M136.718 90.0416L136.575 89.8275H136.646L136.718 90.0416Z" fill="#AFD4DD"/>
<path d="M136.646 90.5412H136.574L136.289 90.0416L136.432 89.9702L136.717 90.4698C136.717 90.4698 136.646 90.4698 136.646 90.5412Z" fill="#AFD4DD"/>
<path d="M136.218 90.327L136.075 90.1129H136.146L136.218 90.327Z" fill="#AFD4DD"/>
<path d="M136.147 90.8269H136.075L135.79 90.3272L135.932 90.2559L136.218 90.7555C136.218 90.7555 136.218 90.7555 136.147 90.8269Z" fill="#AFD4DD"/>
<path d="M135.718 90.6127L135.576 90.3986H135.647L135.718 90.6127C135.79 90.6127 135.79 90.5413 135.718 90.6127Z" fill="#AFD4DD"/>
<path d="M135.718 91.041H135.647L135.361 90.5414L135.504 90.47L135.789 90.9696C135.718 91.041 135.718 91.041 135.718 91.041Z" fill="#AFD4DD"/>
<path d="M135.29 90.8983L135.147 90.6842H135.219L135.29 90.8983Z" fill="#AFD4DD"/>
<path d="M135.219 91.3264H135.147L134.862 90.8268L135.004 90.7554L135.29 91.255C135.219 91.255 135.219 91.3264 135.219 91.3264Z" fill="#AFD4DD"/>
<path d="M134.79 91.1123C134.79 91.1837 134.79 91.1837 134.79 91.1123L134.648 90.8982H134.719L134.79 91.1123Z" fill="#AFD4DD"/>
<path d="M134.719 91.612H134.648L134.362 91.1124L134.505 91.041L134.791 91.5407C134.791 91.5407 134.791 91.612 134.719 91.612Z" fill="#AFD4DD"/>
<path d="M134.291 91.3978L134.148 91.1837H134.22L134.291 91.3978C134.363 91.3978 134.363 91.3978 134.291 91.3978Z" fill="#AFD4DD"/>
<path d="M134.22 91.8974H134.148L133.863 91.3978L134.006 91.3264L134.291 91.826C134.291 91.826 134.291 91.8974 134.22 91.8974Z" fill="#AFD4DD"/>
<path d="M133.863 91.6834C133.791 91.6834 133.791 91.6834 133.863 91.6834L133.72 91.4692H133.791L133.863 91.6834Z" fill="#AFD4DD"/>
<path d="M133.791 92.1831H133.719L133.434 91.6834L133.577 91.6121L133.862 92.1117C133.791 92.1117 133.791 92.1831 133.791 92.1831Z" fill="#AFD4DD"/>
<path d="M133.363 91.9689L133.22 91.7548H133.291L133.363 91.9689Z" fill="#AFD4DD"/>
<path d="M133.291 92.4685H133.22L132.934 91.9688L133.077 91.8975L133.363 92.3971C133.363 92.3971 133.363 92.3971 133.291 92.4685Z" fill="#AFD4DD"/>
<path d="M132.863 92.2543L132.72 92.0402H132.792L132.863 92.2543Z" fill="#AFD4DD"/>
<path d="M132.792 92.7541H132.721L132.435 92.2545L132.578 92.1831L132.863 92.6827C132.863 92.6827 132.863 92.6827 132.792 92.7541Z" fill="#AFD4DD"/>
<path d="M132.435 92.5399C132.364 92.5399 132.364 92.5399 132.435 92.5399L132.292 92.3258H132.364L132.435 92.5399Z" fill="#AFD4DD"/>
<path d="M132.364 92.968H132.292L132.007 92.4683L132.149 92.397L132.435 92.8966C132.364 92.968 132.364 92.968 132.364 92.968Z" fill="#AFD4DD"/>
<path d="M131.935 92.8252L131.793 92.6111H131.864L131.935 92.8252Z" fill="#AFD4DD"/>
<path d="M131.864 93.2534H131.793L131.507 92.7538L131.65 92.6824L131.935 93.182L131.864 93.2534Z" fill="#AFD4DD"/>
<path d="M131.436 93.0392C131.436 93.1106 131.436 93.1106 131.436 93.0392L131.293 92.8251H131.365L131.436 93.0392Z" fill="#AFD4DD"/>
<path d="M131.365 93.539H131.293L131.008 93.0394L131.15 92.968L131.436 93.4677C131.436 93.4677 131.436 93.539 131.365 93.539Z" fill="#AFD4DD"/>
<path d="M131.008 93.3248C130.936 93.3248 130.936 93.3248 131.008 93.3248L130.865 93.1107H130.936L131.008 93.3248Z" fill="#AFD4DD"/>
</g>
<path d="M168.48 169.554C168.48 170.625 162.484 171.553 155.132 171.553C147.781 171.553 141.785 170.625 141.785 169.554C141.785 168.412 147.781 167.556 155.132 167.556C162.556 167.556 168.48 168.412 168.48 169.554Z" fill="#DAE4E5"/>
<path d="M158.63 165.272C158.63 165.272 158.702 167.128 158.702 167.556C158.702 168.055 160.2 168.055 160.415 167.841C160.557 167.627 160.7 165.486 160.7 165.486" fill="#F39F86"/>
<path d="M160.771 168.27C160.771 168.769 160.629 169.554 160.629 169.554H158.916L158.844 169.269C158.844 169.269 158.273 169.554 157.845 169.554H156.417C155.347 169.554 154.776 169.412 154.704 169.197C154.562 168.412 155.846 168.484 156.203 168.484C157.131 168.484 158.202 168.055 158.416 167.556C158.559 167.199 158.487 167.128 158.701 167.199C158.701 167.199 158.844 167.27 158.987 167.484C159.201 167.841 159.487 168.055 159.915 167.984C160.129 167.913 160.343 167.841 160.486 167.699C160.486 167.627 160.771 167.77 160.771 168.27Z" fill="#3A3A3A"/>
<path d="M152.635 164.772C152.635 164.772 152.92 166.057 153.134 166.414C153.348 166.842 154.704 166.342 154.776 166.057C154.847 165.771 154.133 163.773 154.133 163.773" fill="#F39F86"/>
<path d="M155.347 166.342C155.561 166.771 155.775 167.699 155.775 167.699L154.49 168.484L154.205 168.27C154.205 168.27 153.919 168.769 153.491 168.983C153.206 169.197 152.563 169.412 152.206 169.483C150.993 169.768 150.136 169.626 149.994 169.483C149.637 168.769 151.207 168.412 151.493 168.27C152.349 167.913 152.777 167.056 152.777 166.557C152.777 166.2 152.706 166.128 152.92 166.128C152.92 166.128 153.063 166.128 153.277 166.271C153.562 166.485 153.991 166.557 154.276 166.414C154.49 166.271 154.633 166.128 154.704 165.914C154.776 165.843 155.133 165.843 155.347 166.342Z" fill="#3A3A3A"/>
<path d="M161.77 123.16C162.413 122.732 163.055 122.161 163.698 121.661C165.125 120.448 166.481 119.092 166.624 118.164C166.981 116.022 166.695 109.599 166.553 106.529C166.553 106.315 166.553 106.173 166.553 106.03C166.41 103.175 164.84 101.89 164.054 101.39C163.626 105.102 162.77 113.524 162.698 113.953C162.556 114.524 161.77 123.16 161.77 123.16Z" fill="#C5E6EF"/>
<path d="M161.77 123.16C162.413 122.732 163.055 122.161 163.698 121.661C163.769 119.306 164.483 115.951 165.482 111.811C166.695 106.601 165.91 105.602 165.91 105.602L163.555 105.958C163.127 109.67 162.698 113.667 162.698 113.953C162.556 114.524 161.77 123.16 161.77 123.16Z" fill="#AFD4DD"/>
<path d="M156.06 142.788C156.203 145.429 156.417 148.142 156.774 150.069C157.06 151.71 162.199 151.996 161.485 150.711C160.557 148.927 162.199 143.217 162.984 133.581C163.127 132.082 163.769 131.939 164.197 128.941C164.626 125.944 162.984 123.303 162.984 123.303L155.918 122.66L155.846 131.44V134.437C155.846 134.437 155.846 138.506 156.06 142.788Z" fill="#023D5F"/>
<path d="M160.914 149.64C160.914 149.64 162.27 151.353 162.127 154.423C161.913 157.492 160.842 166.771 160.842 166.771C160.842 166.771 159.201 166.985 158.416 166.699C158.416 166.699 156.703 149.569 156.631 147.571C156.631 145.643 160.914 149.64 160.914 149.64Z" fill="#023D5F"/>
<path d="M156.06 142.788C156.489 141.361 157.416 138.649 158.13 137.078C159.129 134.937 160.129 134.009 160.129 134.009C163.698 130.226 161.271 125.373 161.271 125.373C161.271 125.373 158.344 127.799 158.13 128.014C157.916 128.228 156.774 130.298 155.918 131.44V134.437C155.846 134.437 155.846 138.506 156.06 142.788Z" fill="#062F44"/>
<path d="M147.709 141.646C147.709 141.646 146.139 146.928 146.353 148.57C146.639 150.211 152.492 165.629 152.492 165.629C152.492 165.629 153.562 165.629 154.847 165.058C154.847 165.058 154.704 158.277 153.562 153.994C152.42 149.712 151.064 147.142 149.922 146.785C148.78 146.429 148.066 142.503 147.709 141.646Z" fill="#023D5F"/>
<path d="M152.92 144.787C152.92 144.787 151.207 147.571 152.277 149.997C153.348 152.495 150.493 152.067 150.493 152.067C150.493 152.067 149.065 147.927 149.351 147.356C149.636 146.785 150.85 145.001 151.207 144.93C151.564 144.858 152.92 144.787 152.92 144.787Z" fill="#16405A"/>
<path d="M151.136 122.803C151.136 122.803 147.424 140.005 146.924 144.644C146.71 146.643 148.78 149.855 150.707 148.07C152.991 145.929 156.631 136.222 157.773 134.509C158.915 132.796 163.198 131.226 160.272 122.518" fill="#023D5F"/>
<path d="M160.272 99.7488C160.272 99.7488 159.772 98.0358 159.986 96.751C160.2 95.4663 160.985 93.1822 160.7 91.4692C160.414 89.7562 158.273 88.3287 155.989 88.5428C153.705 88.757 153.063 90.9696 152.634 92.2544C152.277 93.5391 152.349 95.4663 152.42 96.5369C152.492 97.6075 153.063 98.3927 153.491 98.6068C153.848 98.8209 155.275 98.5354 155.561 98.8209C155.846 99.1064 155.989 100.748 155.989 100.748" fill="#F39F86"/>
<path d="M161.342 101.105C161.342 101.105 161.199 100.106 160.842 99.7487C160.486 99.3918 157.916 99.3918 157.131 99.4632C156.346 99.5346 154.49 100.462 154.276 100.605C154.062 100.819 154.49 101.747 154.49 101.747L161.342 101.105Z" fill="#C5E6EF"/>
<path d="M134.862 91.1123C134.862 90.8981 135.147 91.0409 135.147 91.1837C135.147 91.1837 135.147 91.255 135.147 91.3264C135.147 91.0409 135.076 90.7554 135.147 90.7554C135.147 90.6126 135.362 90.6126 135.433 90.7554C135.433 90.6126 135.433 90.5413 135.433 90.5413C135.433 90.3271 135.718 90.3985 135.718 90.6127C135.718 90.684 135.718 90.7554 135.79 90.8982C135.79 90.8268 135.79 90.7554 135.79 90.7554C135.79 90.5413 136.004 90.6126 136.075 90.7554C136.075 90.8268 136.075 90.8981 136.147 91.1123C136.147 91.3264 136.218 91.4692 136.218 91.6833C136.218 91.9688 136.361 92.1829 136.361 92.1829C136.789 92.6825 137.217 92.8253 137.217 92.8253L137.717 92.5398C137.717 92.5398 137.86 93.3963 137.86 93.6818C137.86 93.9673 137.646 94.2528 137.646 94.4669C137.646 94.6097 137.86 95.0379 137.86 95.0379L136.504 95.609C136.504 95.609 136.289 94.8238 136.147 94.6097C135.933 94.3956 135.29 93.6104 135.219 93.4677C135.219 93.3963 135.076 93.1108 135.005 92.8253L134.862 92.2543L134.791 91.7547C134.862 91.7547 134.862 91.1836 134.862 91.1123Z" fill="#F39F86"/>
<path d="M136.218 95.2521C136.218 95.2521 136.646 97.893 137.146 100.034C137.503 101.676 137.931 103.389 138.716 104.959C138.716 104.959 138.716 104.959 138.716 105.031C139.144 106.03 140.001 107.172 140.572 107.315C141.143 107.457 143.141 107.315 143.141 107.315C144.355 107.386 147.495 106.958 150.136 106.601C150.208 106.601 150.208 106.601 150.279 106.601C151.492 106.458 152.634 106.315 153.42 106.173C153.776 106.173 154.133 105.958 154.347 105.744C154.562 105.53 154.776 105.245 154.847 104.959C154.99 104.103 154.49 103.389 153.705 102.889L153.634 102.818C154.562 101.89 155.49 100.962 155.49 100.962C155.49 100.962 152.92 101.105 151.492 101.176C150.493 101.248 143.927 103.032 143.07 103.246C142.999 103.246 142.927 103.318 142.927 103.318C142.927 103.318 142.856 103.318 142.713 103.389C142.642 103.389 142.642 103.389 142.57 103.46C142.356 102.889 142.071 102.247 141.571 101.676C140.144 99.6774 137.86 94.8239 137.86 94.8239L136.575 95.1807L136.218 95.2521Z" fill="#C5E6EF"/>
<path d="M160.2 97.536C160.2 97.536 157.06 97.8215 156.417 97.536C155.846 97.2505 154.918 96.6795 154.847 95.6089C154.776 94.5383 154.99 94.1814 154.562 93.6104C154.133 93.0394 153.776 93.1821 153.705 93.7531C153.634 94.3241 153.634 95.3234 153.491 95.4662C153.277 95.5375 153.063 94.8238 153.134 93.7531C153.205 92.8253 153.277 92.0401 153.562 91.3977C153.848 90.7553 153.991 90.8267 154.276 90.684C153.991 90.5412 153.705 90.5412 153.134 89.6847C152.492 88.6854 152.848 87.1152 154.562 87.1866C157.488 87.1866 160.628 87.7576 160.7 89.9702C160.7 89.9702 161.699 89.8275 161.77 91.826C161.77 93.8245 160.557 96.1799 160.414 96.8223C160.343 97.3933 160.486 97.3933 160.2 97.536Z" fill="#023D5F"/>
<path d="M151.349 120.876C151.207 121.875 150.35 123.374 150.921 123.588C151.135 123.66 152.135 123.588 153.348 123.517H153.419C154.49 123.445 155.703 123.303 156.703 123.231C160.771 123.089 162.769 123.874 163.198 123.66C163.412 123.517 163.412 123.16 163.341 122.803C163.198 121.947 163.126 121.019 163.269 120.162C163.34 119.448 163.483 118.521 163.697 117.521C164.34 113.952 165.696 108.599 165.839 105.316C166.124 100.248 160.7 100.677 160.7 100.677C153.776 100.248 150.493 102.247 150.136 105.245C150.136 105.459 150.065 105.673 150.065 105.887C149.922 108.956 150.85 113.953 151.278 117.664C151.492 118.735 151.421 119.877 151.349 120.876Z" fill="#C5E6EF"/>
<path d="M151.35 120.876C151.207 121.875 150.35 123.374 150.921 123.588C151.135 123.66 152.135 123.588 153.348 123.517C152.278 123.588 152.063 122.803 152.349 122.232C152.563 121.661 153.063 120.448 153.063 118.949C152.991 117.45 152.492 114.167 152.135 111.026C151.849 108.1 152.063 105.816 152.135 105.53C151.992 105.887 151.492 106.315 150.136 106.672C150.136 109.741 150.921 114.309 151.35 117.735C151.492 118.735 151.421 119.877 151.35 120.876Z" fill="#AFD4DD"/>
<path d="M66.0556 56.8518L73.7642 38.3655L67.9827 39.5075H67.9114L56.4199 41.8629L56.2057 41.9343L44.6429 44.2897L44.4287 44.361L38.79 45.5031L66.0556 56.8518ZM67.9827 43.0763L64.3426 51.8555L51.3522 46.4309L67.9827 43.0763Z" fill="#FF703D"/>
<g opacity="0.5">
<path d="M42.002 44.7891H42.1447L42.2875 45.6456C42.2875 45.6456 42.2875 45.7169 42.2161 45.7169C42.2161 45.7169 42.1447 45.7169 42.1447 45.6456L42.002 44.7891Z" fill="#FFB27E"/>
<path d="M42.2874 44.7177H42.3587L42.4301 45.1459C42.4301 45.1459 42.4301 45.2173 42.3587 45.2173C42.3587 45.2173 42.2874 45.2173 42.2874 45.1459V44.7177Z" fill="#FFB27E"/>
</g>
<g opacity="0.5">
<path d="M42.573 44.6462H42.7157L42.8585 45.5027C42.8585 45.5027 42.8585 45.5741 42.7871 45.5741C42.7871 45.5741 42.7157 45.5741 42.7157 45.5027L42.573 44.6462Z" fill="#FFB27E"/>
<path d="M42.8584 44.6464H42.9298L43.0011 45.0746C43.0011 45.0746 43.0012 45.146 42.9298 45.146C42.9298 45.146 42.8584 45.146 42.8584 45.0746V44.6464Z" fill="#FFB27E"/>
</g>
<g opacity="0.5">
<path d="M43.144 44.575H43.2868L43.4295 45.4315C43.4295 45.4315 43.4295 45.5028 43.3582 45.5028C43.3582 45.5028 43.2868 45.5028 43.2868 45.4315L43.144 44.575Z" fill="#FFB27E"/>
<path d="M43.5009 44.5035H43.5722L43.6436 44.9318C43.6436 44.9318 43.6436 45.0032 43.5722 45.0032C43.5722 45.0032 43.5009 45.0032 43.5009 44.9318V44.5035Z" fill="#FFB27E"/>
</g>
<g opacity="0.5">
<path d="M43.7864 44.4324H43.9291L44.0719 45.2889C44.0719 45.2889 44.0719 45.3603 44.0005 45.3603C44.0005 45.3603 43.9291 45.3603 43.9291 45.2889L43.7864 44.4324Z" fill="#FFB27E"/>
<path d="M44.0718 44.361H44.1432L44.2145 44.7892C44.2145 44.7892 44.2145 44.8606 44.1432 44.8606C44.1432 44.8606 44.0718 44.8606 44.0718 44.7892V44.361Z" fill="#FFB27E"/>
</g>
<g opacity="0.5">
<path d="M44.3574 44.2893H44.5002L44.6429 45.1458C44.6429 45.1458 44.6429 45.2172 44.5715 45.2172C44.5715 45.2172 44.5002 45.2172 44.5002 45.1458L44.3574 44.2893Z" fill="#FFB27E"/>
<path d="M44.6428 44.2892H44.7142L44.7856 44.7174C44.7856 44.7174 44.7856 44.7888 44.7142 44.7888C44.7142 44.7888 44.6428 44.7888 44.6428 44.7174V44.2892Z" fill="#FFB27E"/>
</g>
<g opacity="0.5">
<path d="M44.9285 44.218H45.0712L45.214 45.0745C45.214 45.0745 45.214 45.1459 45.1426 45.1459C45.1426 45.1459 45.0712 45.1459 45.0712 45.0745L44.9285 44.218Z" fill="#FFB27E"/>
<path d="M45.2139 44.1466H45.2852L45.3566 44.5749V44.6462C45.3566 44.6462 45.2852 44.6462 45.2852 44.5749L45.2139 44.1466Z" fill="#FFB27E"/>
</g>
<g opacity="0.5">
<path d="M45.4993 44.0752H45.642L45.7848 44.9317C45.7848 44.9317 45.7848 45.0031 45.7134 45.0031C45.642 45.0031 45.642 45.0031 45.642 44.9317L45.4993 44.0752Z" fill="#FFB27E"/>
<path d="M45.8562 44.0038H45.9276L45.999 44.432V44.5034C45.999 44.5034 45.9276 44.5034 45.9276 44.432L45.8562 44.0038Z" fill="#FFB27E"/>
</g>
<g opacity="0.5">
<path d="M46.1417 43.9325H46.2845L46.4272 44.789C46.4272 44.789 46.4272 44.8604 46.3558 44.8604C46.3558 44.8604 46.2845 44.8604 46.2845 44.789L46.1417 43.9325Z" fill="#FFB27E"/>
<path d="M46.4271 43.9325H46.4985L46.5699 44.3607C46.5699 44.3607 46.5699 44.4321 46.4985 44.4321C46.4985 44.4321 46.4271 44.4321 46.4271 44.3607V43.9325Z" fill="#FFB27E"/>
</g>
<g opacity="0.5">
<path d="M46.7126 43.8613H46.8554L46.9981 44.7178C46.9981 44.7178 46.9981 44.7892 46.9268 44.7892C46.9268 44.7892 46.8554 44.7892 46.8554 44.7178L46.7126 43.8613Z" fill="#FFB27E"/>
<path d="M46.9982 43.7899H47.0695L47.1409 44.2182C47.1409 44.2182 47.1409 44.2895 47.0695 44.2895C47.0695 44.2895 46.9982 44.2895 46.9982 44.2182V43.7899Z" fill="#FFB27E"/>
</g>
<g opacity="0.5">
<path d="M47.2837 43.7184H47.4265L47.5692 44.5749C47.5692 44.5749 47.5692 44.6463 47.4978 44.6463C47.4978 44.6463 47.4265 44.6463 47.4265 44.5749L47.2837 43.7184Z" fill="#FFB27E"/>
<path d="M47.5691 43.6469H47.6405L47.7118 44.0751C47.7118 44.0751 47.7118 44.1465 47.6405 44.1465C47.6405 44.1465 47.5691 44.1465 47.5691 44.0751V43.6469Z" fill="#FFB27E"/>
</g>
<g opacity="0.5">
<path d="M47.8547 43.5756H47.9975L48.1402 44.4321C48.1402 44.4321 48.1402 44.5034 48.0689 44.5034C48.0689 44.5034 47.9975 44.5034 47.9975 44.4321L47.8547 43.5756Z" fill="#FFB27E"/>
<path d="M48.2115 43.5756H48.2829L48.3543 44.0038C48.3543 44.0038 48.3543 44.0752 48.2829 44.0752C48.2829 44.0752 48.2115 44.0752 48.2115 44.0038V43.5756Z" fill="#FFB27E"/>
</g>
<g opacity="0.5">
<path d="M48.4971 43.5042H48.6398L48.7826 44.3607C48.7826 44.3607 48.7826 44.432 48.7112 44.432C48.7112 44.432 48.6398 44.432 48.6398 44.3607L48.4971 43.5042Z" fill="#FFB27E"/>
<path d="M48.7825 43.4327H48.8539L48.9252 43.861C48.9252 43.861 48.9252 43.9324 48.8539 43.9324C48.8539 43.9324 48.7825 43.9324 48.7825 43.861V43.4327Z" fill="#FFB27E"/>
</g>
<g opacity="0.5">
<path d="M49.0681 43.3616H49.2109L49.3536 44.2181C49.3536 44.2181 49.3536 44.2895 49.2823 44.2895C49.2823 44.2895 49.2109 44.2895 49.2109 44.2181L49.0681 43.3616Z" fill="#FFB27E"/>
<path d="M49.3535 43.2902H49.4249L49.4963 43.7184C49.4963 43.7184 49.4962 43.7898 49.4249 43.7898C49.3535 43.7898 49.3535 43.7898 49.3535 43.7184V43.2902Z" fill="#FFB27E"/>
</g>
<g opacity="0.5">
<path d="M49.6392 43.2188H49.7819L49.9247 44.0753C49.9247 44.0753 49.9247 44.1466 49.8533 44.1466C49.8533 44.1466 49.7819 44.1466 49.7819 44.0753L49.6392 43.2188Z" fill="#FFB27E"/>
<path d="M49.9246 43.2189H49.9959L50.0673 43.6471C50.0673 43.6471 50.0673 43.7185 49.9959 43.7185C49.9959 43.7185 49.9246 43.7185 49.9246 43.6471V43.2189Z" fill="#FFB27E"/>
</g>
<g opacity="0.5">
<path d="M50.2102 43.1473H50.353L50.4957 44.0038C50.4957 44.0038 50.4957 44.0752 50.4243 44.0752C50.4243 44.0752 50.353 44.0752 50.353 44.0038L50.2102 43.1473Z" fill="#FFB27E"/>
<path d="M50.567 43.0758H50.6384L50.7098 43.5041V43.5754C50.7098 43.5754 50.6384 43.5754 50.6384 43.5041L50.567 43.0758Z" fill="#FFB27E"/>
</g>
<g opacity="0.5">
<path d="M50.8523 43.0048H50.9951L51.1378 43.8613C51.1378 43.8613 51.1378 43.9326 51.0664 43.9326C50.9951 43.9326 50.9951 43.9326 50.9951 43.8613L50.8523 43.0048Z" fill="#FFB27E"/>
<path d="M51.1378 42.9332H51.2092L51.2806 43.3615V43.4329C51.2806 43.4329 51.2092 43.4329 51.2092 43.3615L51.1378 42.9332Z" fill="#FFB27E"/>
</g>
<g opacity="0.5">
<path d="M51.4235 42.8618H51.5662L51.709 43.7183C51.709 43.7183 51.709 43.7897 51.6376 43.7897C51.6376 43.7897 51.5662 43.7897 51.5662 43.7183L51.4235 42.8618Z" fill="#FFB27E"/>
<path d="M51.7089 42.8617H51.7802L51.8516 43.2899C51.8516 43.2899 51.8516 43.3613 51.7802 43.3613C51.7802 43.3613 51.7089 43.3613 51.7089 43.2899V42.8617Z" fill="#FFB27E"/>
</g>
<g opacity="0.5">
<path d="M51.9944 42.7905H52.1371L52.2799 43.647C52.2799 43.647 52.2799 43.7184 52.2085 43.7184C52.2085 43.7184 52.1371 43.7184 52.1371 43.647L51.9944 42.7905Z" fill="#FFB27E"/>
<path d="M52.2799 42.7191H52.3513L52.4227 43.1474C52.4227 43.1474 52.4227 43.2187 52.3513 43.2187C52.3513 43.2187 52.2799 43.2187 52.2799 43.1474V42.7191Z" fill="#FFB27E"/>
</g>
<g opacity="0.5">
<path d="M52.5654 42.6479H52.7082L52.8509 43.5045C52.8509 43.5045 52.8509 43.5758 52.7795 43.5758C52.7795 43.5758 52.7082 43.5758 52.7082 43.5045L52.5654 42.6479Z" fill="#FFB27E"/>
<path d="M52.9224 42.5765H52.9937L53.0651 43.0048C53.0651 43.0048 53.0651 43.0762 52.9937 43.0762C52.9937 43.0762 52.9224 43.0762 52.9224 43.0048V42.5765Z" fill="#FFB27E"/>
</g>
<g opacity="0.5">
<path d="M53.2079 42.505H53.3506L53.4934 43.3615C53.4934 43.3615 53.4934 43.4329 53.422 43.4329C53.422 43.4329 53.3506 43.4329 53.3506 43.3615L53.2079 42.505Z" fill="#FFB27E"/>
<path d="M53.4932 42.505H53.5645L53.6359 42.9333C53.6359 42.9333 53.6359 43.0046 53.5645 43.0046C53.5645 43.0046 53.4932 43.0046 53.4932 42.9333V42.505Z" fill="#FFB27E"/>
</g>
<g opacity="0.5">
<path d="M53.7788 42.4337H53.9216L54.0643 43.2902C54.0643 43.2902 54.0643 43.3616 53.9929 43.3616C53.9929 43.3616 53.9216 43.3616 53.9216 43.2902L53.7788 42.4337Z" fill="#FFB27E"/>
<path d="M54.0642 42.3622H54.1356L54.207 42.7904C54.207 42.7904 54.207 42.8618 54.1356 42.8618C54.1356 42.8618 54.0642 42.8618 54.0642 42.7904V42.3622Z" fill="#FFB27E"/>
</g>
<g opacity="0.5">
<path d="M54.3499 42.2909H54.4926L54.6354 43.1474C54.6354 43.1474 54.6353 43.2188 54.564 43.2188C54.564 43.2188 54.4926 43.2188 54.4926 43.1474L54.3499 42.2909Z" fill="#FFB27E"/>
<path d="M54.6353 42.2194H54.7066L54.778 42.6476C54.778 42.6476 54.778 42.719 54.7066 42.719C54.7066 42.719 54.6353 42.719 54.6353 42.6476V42.2194Z" fill="#FFB27E"/>
</g>
<g opacity="0.5">
<path d="M54.9209 42.1482H55.0637L55.2064 43.0047C55.2064 43.0047 55.2064 43.0761 55.135 43.0761C55.135 43.0761 55.0637 43.0761 55.0637 43.0047L54.9209 42.1482Z" fill="#FFB27E"/>
<path d="M55.2778 42.0768H55.3492L55.4206 42.505C55.4206 42.505 55.4206 42.5764 55.3492 42.5764C55.3492 42.5764 55.2778 42.5764 55.2778 42.505V42.0768Z" fill="#FFB27E"/>
</g>
<g opacity="0.5">
<path d="M55.5635 42.0769H55.7062L55.849 42.9334C55.849 42.9334 55.849 43.0048 55.7776 43.0048C55.7776 43.0048 55.7062 43.0048 55.7062 42.9334L55.5635 42.0769Z" fill="#FFB27E"/>
<path d="M55.8489 42.0055H55.9203L55.9916 42.4337V42.5051C55.9916 42.5051 55.9203 42.5051 55.9203 42.4337L55.8489 42.0055Z" fill="#FFB27E"/>
</g>
<g opacity="0.5">
<path d="M56.1345 41.9341H56.2773L56.42 42.7906C56.42 42.7906 56.42 42.862 56.3486 42.862C56.2773 42.862 56.2773 42.862 56.2773 42.7906L56.1345 41.9341Z" fill="#FFB27E"/>
<path d="M56.4199 41.8627H56.4913L56.5627 42.2909V42.3623C56.5627 42.3623 56.4913 42.3623 56.4913 42.2909L56.4199 41.8627Z" fill="#FFB27E"/>
</g>
<g opacity="0.5">
<path d="M56.7054 41.7911H56.8482L56.9909 42.6476C56.9909 42.6476 56.9909 42.719 56.9196 42.719C56.9196 42.719 56.8482 42.719 56.8482 42.6476L56.7054 41.7911Z" fill="#FFB27E"/>
<path d="M56.991 41.7911H57.0623L57.1337 42.2194C57.1337 42.2194 57.1337 42.2908 57.0623 42.2908C57.0623 42.2908 56.991 42.2908 56.991 42.2194V41.7911Z" fill="#FFB27E"/>
</g>
<g opacity="0.5">
<path d="M57.2761 41.7198H57.4189L57.5616 42.5764C57.5616 42.5764 57.5616 42.6477 57.4903 42.6477C57.4903 42.6477 57.4189 42.6477 57.4189 42.5764L57.2761 41.7198Z" fill="#FFB27E"/>
<path d="M57.6331 41.6483H57.7044L57.7758 42.0766C57.7758 42.0766 57.7758 42.1479 57.7044 42.1479C57.7044 42.1479 57.6331 42.1479 57.6331 42.0766V41.6483Z" fill="#FFB27E"/>
</g>
<g opacity="0.5">
<path d="M57.9187 41.5771H58.0614L58.2042 42.4337C58.2042 42.4337 58.2042 42.505 58.1328 42.505C58.1328 42.505 58.0614 42.505 58.0614 42.4337L57.9187 41.5771Z" fill="#FFB27E"/>
<path d="M58.2041 41.5057H58.2755L58.3468 41.934C58.3468 41.934 58.3469 42.0054 58.2755 42.0054C58.2041 42.0054 58.2041 42.0054 58.2041 41.934V41.5057Z" fill="#FFB27E"/>
</g>
<g opacity="0.5">
<path d="M58.4899 41.4343H58.6326L58.7754 42.2908C58.7754 42.2908 58.7754 42.3622 58.704 42.3622C58.704 42.3622 58.6326 42.3622 58.6326 42.2908L58.4899 41.4343Z" fill="#FFB27E"/>
<path d="M58.7754 41.4344H58.8468L58.9182 41.8627C58.9182 41.8627 58.9181 41.9341 58.8468 41.9341C58.8468 41.9341 58.7754 41.9341 58.7754 41.8627V41.4344Z" fill="#FFB27E"/>
</g>
<g opacity="0.5">
<path d="M59.0608 41.363H59.2036L59.3463 42.2195C59.3463 42.2195 59.3463 42.2909 59.2749 42.2909C59.2749 42.2909 59.2036 42.2909 59.2036 42.2195L59.0608 41.363Z" fill="#FFB27E"/>
<path d="M59.3462 41.2916H59.4175L59.4889 41.7199C59.4889 41.7199 59.4889 41.7913 59.4175 41.7913C59.4175 41.7913 59.3462 41.7912 59.3462 41.7199V41.2916Z" fill="#FFB27E"/>
</g>
<g opacity="0.5">
<path d="M59.6316 41.2205H59.7743L59.9171 42.077C59.9171 42.077 59.9171 42.1483 59.8457 42.1483C59.8457 42.1483 59.7743 42.1483 59.7743 42.077L59.6316 41.2205Z" fill="#FFB27E"/>
<path d="M59.9885 41.149H60.0599L60.1313 41.5773C60.1313 41.5773 60.1313 41.6487 60.0599 41.6487C60.0599 41.6487 59.9885 41.6487 59.9885 41.5773V41.149Z" fill="#FFB27E"/>
</g>
<g opacity="0.5">
<path d="M60.2742 41.0774H60.4169L60.5597 41.9339C60.5597 41.9339 60.5597 42.0053 60.4883 42.0053C60.4883 42.0053 60.4169 42.0053 60.4169 41.9339L60.2742 41.0774Z" fill="#FFB27E"/>
<path d="M60.5594 41.0773H60.6308L60.7022 41.5055C60.7022 41.5055 60.7022 41.5769 60.6308 41.5769C60.6308 41.5769 60.5594 41.5769 60.5594 41.5055V41.0773Z" fill="#FFB27E"/>
</g>
<g opacity="0.5">
<path d="M60.845 41.0061H60.9877L61.1305 41.8626C61.1305 41.8626 61.1305 41.934 61.0591 41.934C61.0591 41.934 60.9877 41.934 60.9877 41.8626L60.845 41.0061Z" fill="#FFB27E"/>
<path d="M61.1304 40.9347H61.2017L61.2731 41.3629V41.4343C61.2731 41.4343 61.2017 41.4343 61.2017 41.3629L61.1304 40.9347Z" fill="#FFB27E"/>
</g>
<g opacity="0.5">
<path d="M61.4163 40.8633H61.559L61.7018 41.7198C61.7018 41.7198 61.7018 41.7912 61.6304 41.7912C61.559 41.7912 61.559 41.7912 61.559 41.7198L61.4163 40.8633Z" fill="#FFB27E"/>
<path d="M61.7017 40.7919H61.773L61.8444 41.2201V41.2915C61.8444 41.2915 61.773 41.2915 61.773 41.2201L61.7017 40.7919Z" fill="#FFB27E"/>
</g>
<g opacity="0.5">
<path d="M61.9872 40.7206H62.1299L62.2727 41.5771C62.2727 41.5771 62.2727 41.6485 62.2013 41.6485C62.2013 41.6485 62.1299 41.6485 62.1299 41.5771L61.9872 40.7206Z" fill="#FFB27E"/>
<path d="M62.3439 40.7206H62.4153L62.4866 41.1488C62.4866 41.1488 62.4866 41.2202 62.4153 41.2202C62.4153 41.2202 62.3439 41.2202 62.3439 41.1488V40.7206Z" fill="#FFB27E"/>
</g>
<g opacity="0.5">
<path d="M62.6296 40.6494H62.7724L62.9152 41.5059C62.9152 41.5059 62.9152 41.5773 62.8438 41.5773C62.8438 41.5773 62.7724 41.5773 62.7724 41.5059L62.6296 40.6494Z" fill="#FFB27E"/>
<path d="M62.915 40.578H62.9864L63.0578 41.0063C63.0578 41.0063 63.0578 41.0776 62.9864 41.0776C62.9864 41.0776 62.915 41.0776 62.915 41.0063V40.578Z" fill="#FFB27E"/>
</g>
<g opacity="0.5">
<path d="M63.2004 40.5065H63.3432L63.4859 41.363C63.4859 41.363 63.4859 41.4344 63.4146 41.4344C63.4146 41.4344 63.3432 41.4344 63.3432 41.363L63.2004 40.5065Z" fill="#FFB27E"/>
<path d="M63.4858 40.4349H63.5572L63.6286 40.8632C63.6286 40.8632 63.6286 40.9346 63.5572 40.9346C63.5572 40.9346 63.4858 40.9346 63.4858 40.8632V40.4349Z" fill="#FFB27E"/>
</g>
<g opacity="0.5">
<path d="M63.7717 40.3639H63.9145L64.0572 41.2204C64.0572 41.2204 64.0572 41.2918 63.9859 41.2918C63.9859 41.2918 63.9145 41.2918 63.9145 41.2204L63.7717 40.3639Z" fill="#FFB27E"/>
<path d="M64.0571 40.2924H64.1285L64.1999 40.7206C64.1999 40.7206 64.1999 40.792 64.1285 40.792C64.1285 40.792 64.0571 40.792 64.0571 40.7206V40.2924Z" fill="#FFB27E"/>
</g>
<g opacity="0.5">
<path d="M64.3425 40.2922H64.4853L64.628 41.1487C64.628 41.1487 64.628 41.2201 64.5566 41.2201C64.5566 41.2201 64.4853 41.2201 64.4853 41.1487L64.3425 40.2922Z" fill="#FFB27E"/>
<path d="M64.6993 40.2208H64.7707L64.8421 40.6491C64.8421 40.6491 64.8421 40.7205 64.7707 40.7205C64.7707 40.7205 64.6993 40.7204 64.6993 40.6491V40.2208Z" fill="#FFB27E"/>
</g>
<g opacity="0.5">
<path d="M64.9849 40.1497H65.1276L65.2704 41.0062C65.2704 41.0062 65.2704 41.0775 65.199 41.0775C65.199 41.0775 65.1276 41.0775 65.1276 41.0062L64.9849 40.1497Z" fill="#FFB27E"/>
<path d="M65.2704 40.0782H65.3418L65.4131 40.5065C65.4131 40.5065 65.4131 40.5779 65.3418 40.5779C65.3418 40.5779 65.2704 40.5779 65.2704 40.5065V40.0782Z" fill="#FFB27E"/>
</g>
<g opacity="0.5">
<path d="M65.5557 40.0071H65.6984L65.8412 40.8636C65.8412 40.8636 65.8412 40.935 65.7698 40.935C65.7698 40.935 65.6984 40.935 65.6984 40.8636L65.5557 40.0071Z" fill="#FFB27E"/>
<path d="M65.8412 39.9357H65.9126L65.9839 40.3639C65.9839 40.3639 65.9839 40.4353 65.9126 40.4353C65.9126 40.4353 65.8412 40.4353 65.8412 40.3639V39.9357Z" fill="#FFB27E"/>
</g>
<g opacity="0.5">
<path d="M66.127 39.9355H66.2697L66.4125 40.7921C66.4125 40.7921 66.4124 40.8634 66.3411 40.8634C66.3411 40.8634 66.2697 40.8634 66.2697 40.7921L66.127 39.9355Z" fill="#FFB27E"/>
<path d="M66.4125 39.8641H66.4839L66.5552 40.2924V40.3638C66.5552 40.3638 66.4839 40.3638 66.4839 40.2924L66.4125 39.8641Z" fill="#FFB27E"/>
</g>
<g opacity="0.5">
<path d="M66.6978 39.7928H66.8405L66.9833 40.6494C66.9833 40.6494 66.9832 40.7207 66.9119 40.7207C66.8405 40.7207 66.8405 40.7207 66.8405 40.6494L66.6978 39.7928Z" fill="#FFB27E"/>
<path d="M67.0547 39.7213H67.1261L67.1974 40.1496V40.221C67.1974 40.221 67.1261 40.2209 67.1261 40.1496L67.0547 39.7213Z" fill="#FFB27E"/>
</g>
<g opacity="0.5">
<path d="M67.3403 39.65H67.4831L67.6258 40.5065C67.6258 40.5065 67.6258 40.5779 67.5545 40.5779C67.5545 40.5779 67.4831 40.5779 67.4831 40.5065L67.3403 39.65Z" fill="#FFB27E"/>
<path d="M67.6257 39.5785H67.6971L67.7685 40.0068C67.7685 40.0068 67.7685 40.0781 67.6971 40.0781C67.6971 40.0781 67.6257 40.0781 67.6257 40.0068V39.5785Z" fill="#FFB27E"/>
</g>
<g opacity="0.5">
<path d="M67.9111 39.5786H68.0539L68.1966 40.4351C68.1966 40.4351 68.1966 40.5065 68.1253 40.5065C68.1253 40.5065 68.0539 40.5065 68.0539 40.4351L67.9111 39.5786Z" fill="#FFB27E"/>
<path d="M68.1965 39.5072H68.2679L68.3393 39.9355C68.3393 39.9355 68.3393 40.0068 68.2679 40.0068C68.2679 40.0068 68.1965 40.0068 68.1965 39.9355V39.5072Z" fill="#FFB27E"/>
</g>
<g opacity="0.5">
<path d="M68.4824 39.436H68.6252L68.7679 40.2925C68.7679 40.2925 68.7679 40.3639 68.6965 40.3639C68.6965 40.3639 68.6252 40.3639 68.6252 40.2925L68.4824 39.436Z" fill="#FFB27E"/>
<path d="M68.7678 39.3646H68.8392L68.9106 39.7929C68.9106 39.7929 68.9106 39.8643 68.8392 39.8643C68.8392 39.8643 68.7678 39.8643 68.7678 39.7929V39.3646Z" fill="#FFB27E"/>
</g>
<g opacity="0.5">
<path d="M69.0533 39.2931H69.1961L69.3389 40.1496C69.3389 40.1496 69.3389 40.221 69.2675 40.221C69.2675 40.221 69.1961 40.221 69.1961 40.1496L69.0533 39.2931Z" fill="#FFB27E"/>
<path d="M69.4103 39.2931H69.4817L69.553 39.7213C69.553 39.7213 69.553 39.7927 69.4817 39.7927C69.4817 39.7927 69.4103 39.7927 69.4103 39.7213V39.2931Z" fill="#FFB27E"/>
</g>
<g opacity="0.5">
<path d="M69.6958 39.2218H69.8385L69.9813 40.0783C69.9813 40.0783 69.9813 40.1497 69.9099 40.1497C69.9099 40.1497 69.8385 40.1497 69.8385 40.0783L69.6958 39.2218Z" fill="#FFB27E"/>
<path d="M69.9812 39.1503H70.0526L70.1239 39.5785C70.1239 39.5785 70.124 39.6499 70.0526 39.6499C70.0526 39.6499 69.9812 39.6499 69.9812 39.5785V39.1503Z" fill="#FFB27E"/>
</g>
<g opacity="0.5">
<path d="M70.2671 39.079H70.4099L70.5526 39.9355C70.5526 39.9355 70.5526 40.0069 70.4812 40.0069C70.4098 40.0069 70.4099 40.0069 70.4099 39.9355L70.2671 39.079Z" fill="#FFB27E"/>
<path d="M70.5525 39.0074H70.6239L70.6953 39.4357C70.6953 39.4357 70.6952 39.5071 70.6239 39.5071C70.6239 39.5071 70.5525 39.5071 70.5525 39.4357V39.0074Z" fill="#FFB27E"/>
</g>
<path d="M41.4309 43.8614C40.8599 48.3581 42.7157 52.9261 44.5715 51.6414C47.4979 49.6429 51.8518 43.219 52.28 43.219C52.4942 43.219 52.7797 43.3618 53.4934 43.3618C53.8503 43.3618 54.4213 43.219 54.7782 43.1477C54.8496 43.1477 54.9209 43.0763 54.9209 43.0049C54.9209 42.9335 54.8496 42.9335 54.8496 42.8622C54.7068 42.7908 54.4927 42.7194 54.3499 42.7194C54.2072 42.7194 53.9931 42.7194 53.9931 42.5766C53.9931 42.5053 53.993 42.4339 54.0644 42.3625C54.1358 42.2912 54.2072 42.2912 54.2786 42.2912C54.7068 42.1484 55.3492 42.077 55.7775 41.9343C55.492 41.8629 55.0637 41.7915 54.7782 41.7201C54.5641 41.6488 54.3499 41.6488 54.1358 41.5774C53.8503 41.5774 53.0652 41.5774 52.7797 41.6488C52.1373 41.7915 51.9232 41.9343 51.3522 42.2198C50.9953 42.3625 50.7098 42.648 50.3529 42.8622C49.5678 43.5045 46.57 47.002 45.9276 47.5016" fill="#DB856E"/>
<path d="M59.0608 58.993C59.0608 58.993 58.0616 61.2771 57.7047 63.8466C57.4192 66.0592 58.6326 69.5567 58.4898 72.1262C58.4185 72.6258 58.4185 73.8392 58.2043 74.1961C57.9902 74.6243 57.4192 75.124 57.4192 75.695C57.4192 76.0519 57.5619 76.4087 57.9902 76.5515C58.4184 76.7656 58.6326 76.5515 58.8467 76.5515C59.7032 76.6229 59.846 77.2652 61.3449 77.408C61.7731 77.4794 62.4869 77.2653 62.8438 76.9797C62.9865 76.837 62.9865 76.6942 62.9151 76.5515C62.8438 76.4087 61.7731 76.1232 61.2735 75.8377C60.7738 75.5522 60.2742 74.8385 60.2028 74.553C60.1315 74.2675 60.3456 72.84 60.417 72.2689C61.0594 68.1291 61.8445 62.3477 62.2727 59.9923" fill="#DB856E"/>
<path d="M62.9152 77.0512C62.9865 76.9084 63.0579 76.6229 62.9152 76.5516C62.7724 76.4802 62.2728 76.1947 61.9873 76.0519C61.7018 75.9092 61.2735 75.8378 61.4163 75.9092C61.559 75.9806 61.2735 76.2661 61.0594 76.2661C60.1315 76.2661 59.4891 75.695 58.9181 75.5523C58.133 75.4095 57.9902 74.553 57.9189 74.4103C57.7761 74.4817 57.2765 75.1954 57.2765 75.4095C57.2051 75.6237 57.1337 75.9805 57.2051 76.1947C57.2765 76.3374 57.3478 76.6229 57.2765 76.9084C57.2765 76.9084 57.4192 76.9798 57.8475 77.0512C58.0616 77.1226 58.4185 77.0512 58.4185 77.0512L58.4899 76.6229C58.4899 76.6229 58.704 76.6229 58.9895 76.6229C59.275 76.6229 59.5605 76.8371 59.7033 76.9798C59.846 77.1226 59.9174 77.2653 60.0601 77.3367C60.4884 77.4794 60.7739 77.5508 61.2021 77.5508C62.13 77.6222 62.701 77.3367 62.9152 77.0512Z" fill="#023D5F"/>
<path d="M46.5701 53.4972L39.9321 57.2801C39.9321 57.2801 40.3604 59.7783 43.3582 60.4206C45.0712 60.7775 47.8548 60.2779 48.5686 60.3493C49.2824 60.4206 60.7025 60.7775 60.7025 60.7775C60.7025 60.7775 61.8445 60.9917 62.0586 60.1351C62.3441 58.7076 62.0586 58.2794 61.1307 57.637C59.5605 56.6377 53.4935 54.6392 46.5701 53.4972Z" fill="#DB856E"/>
<path d="M58.9895 59.8496C58.9895 59.8496 58.6327 62.2764 58.9895 64.8459C59.275 67.0586 61.5591 70.6987 62.1301 73.1969C62.2015 73.6965 62.487 74.8385 62.4156 75.2668C62.3442 75.7664 61.9159 76.3374 62.0587 76.9084C62.1301 77.2653 62.4156 77.5508 62.8438 77.6222C63.2721 77.6936 63.4862 77.4081 63.629 77.4081C64.4855 77.2653 64.771 77.7649 66.2699 77.5508C66.6981 77.4794 67.3405 77.1226 67.626 76.6943C67.7688 76.5515 67.6974 76.3374 67.5546 76.266C67.4119 76.1947 66.3413 76.1947 65.7702 76.0519C65.2706 75.9092 64.5568 75.3382 64.4141 75.124C64.2713 74.8385 64.0572 73.411 63.9859 72.84C63.4862 68.7002 62.4156 61.7768 62.1301 59.35" fill="#ED9C80"/>
<path d="M67.6973 76.837C67.7687 76.6229 67.6974 76.4087 67.5546 76.3374C67.4118 76.266 66.8408 76.1232 66.5553 76.1232C66.2698 76.1232 65.7702 76.1232 65.9843 76.1232C66.1271 76.1232 65.9843 76.5515 65.6988 76.6229C64.8423 76.837 63.9858 76.4801 63.4862 76.5515C62.701 76.6229 62.3441 75.8377 62.2728 75.7664C62.13 75.9091 61.9159 76.6942 61.9159 76.9084C61.9159 77.1225 61.9159 77.4794 62.0587 77.6935C62.13 77.8363 62.2728 78.0504 62.3442 78.3359C62.3442 78.3359 62.4869 78.4073 62.9152 78.3359C63.2007 78.3359 63.4862 78.1931 63.4862 78.1931L63.4148 77.7649C63.4148 77.7649 63.6289 77.6935 63.843 77.6935C64.1286 77.6935 64.4854 77.7649 64.6282 77.8363C64.7709 77.9076 64.9137 78.0504 65.0564 78.0504C65.4847 78.1218 65.7702 78.0504 66.2698 77.979C67.1263 77.5508 67.626 77.1225 67.6973 76.837Z" fill="#023D5F"/>
<path d="M46.7128 53.9967L40.0748 57.7796C40.0748 57.7796 40.3603 60.2064 43.3581 60.8488C45.0711 61.2057 47.9975 60.7774 48.7113 60.8488C49.425 60.9202 60.8452 61.277 60.8452 61.277C60.8452 61.277 61.9872 61.4912 61.9872 60.6347C62.0586 59.4213 62.1299 58.8503 61.202 58.2079C59.7032 57.1372 53.6362 55.1387 46.7128 53.9967Z" fill="#ED9C80"/>
<path d="M41.3596 51.8556C41.3596 51.8556 39.2897 55.924 39.7894 57.637C40.289 59.3501 41.3596 60.9917 44.2147 60.9917C47.0697 60.9917 54.2073 60.9917 54.2073 60.9917C54.2073 60.9917 54.4214 59.1359 55.0638 57.9939C55.7062 56.8519 56.7054 55.924 56.7054 55.924C56.7054 55.924 49.4965 53.7114 48.9969 53.2117C48.4972 52.7121 47.9976 51.6415 47.9976 51.6415" fill="#023D5F"/>
<path d="M42.5729 38.7938C41.7877 40.2213 41.2167 42.2199 41.074 44.5039C41.1454 44.5039 43.0011 44.9321 43.929 44.9321" fill="#C5E6EF"/>
<path d="M48.1402 37.2949C48.4971 37.4377 48.3543 38.2942 48.7826 38.4369C49.0681 38.5083 49.5677 38.4369 49.8532 38.5797C51.2094 39.3648 50.8525 40.8637 50.9952 42.7195C51.5662 44.147 51.709 45.4318 51.2807 46.2883C50.7097 47.2875 50.1387 47.573 49.425 48.3582C48.9253 49.0006 48.7112 50.2139 48.6398 51.5701C48.6398 51.7842 48.7826 52.2125 48.7826 52.4266C48.6398 52.8548 47.9974 52.9976 47.2837 52.9976C45.5707 52.9976 43.0012 52.4266 42.216 52.4266C41.5023 52.4266 40.8599 52.1411 40.8599 51.7128C40.9312 51.4273 41.2167 51.2846 41.2881 50.7136C41.5736 49.4288 41.7164 46.2883 41.9305 45.2176C42.4301 42.5054 42.787 40.4355 43.929 37.9373" fill="#C5E6EF"/>
<path d="M51.9946 43.8614C51.5663 43.1477 50.9953 42.5053 50.4243 41.8629L48.9968 42.5053C49.7106 43.7901 49.7819 45.3603 50.1388 46.7879C50.4957 46.7879 50.9953 46.7165 50.9953 46.7165C51.1381 46.5023 51.0667 46.5737 51.2808 46.2882C51.5663 45.7172 51.9232 44.7893 51.9946 43.8614Z" fill="#AFD4DD"/>
<path d="M52.9938 33.5833C53.1365 32.9409 53.2793 32.2985 53.2079 31.7275C53.1366 30.6569 52.9938 29.0866 51.2094 28.4442C49.425 27.8019 47.4265 28.1587 46.8555 29.5149C46.2845 30.7996 46.4272 32.7982 46.2845 33.7974C46.2131 34.8681 45.428 36.0814 45.428 36.0814L49.2823 37.7231C49.2823 37.7231 49.9246 36.3669 50.2101 36.1528C50.4956 36.0101 50.567 36.6525 51.4235 36.5811C51.7804 36.5811 52.2087 35.8673 52.4942 35.0822V35.0108C52.7083 35.0108 52.9224 35.0108 52.9224 34.9394C53.2079 34.8681 53.1366 34.7253 53.1366 34.5826C53.0652 34.2971 52.9938 33.8688 52.9938 33.5833Z" fill="#ED9C80"/>
<path d="M59.2749 54.8535C59.3463 55.139 60.06 55.9241 60.5597 55.9955C60.7024 55.9955 60.8452 55.9955 60.9879 55.9241C61.202 55.9955 61.9158 55.9241 61.5589 55.5672C62.0585 55.8527 62.4868 55.7813 63.0578 55.6386C63.2006 55.5672 63.2006 55.4245 62.7723 55.3531C62.2013 55.2817 61.7731 54.9962 61.4162 54.4966C61.4876 54.4252 61.5589 54.4966 61.7731 54.4966C62.0586 54.4966 62.1299 54.3538 62.1299 54.2824C62.1299 54.2111 61.8444 54.1397 61.7731 54.1397C61.4876 53.9969 61.202 53.9256 60.9879 53.7828C60.7024 53.6401 60.4883 53.5687 60.2028 53.6401C60.1314 53.6401 59.6318 53.7828 59.7745 53.9256" fill="#ED9C80"/>
<path d="M50.2102 44.5753C50.2102 44.5753 52.2087 50.0712 52.5656 50.4995C53.9931 52.2839 59.4177 55.0675 59.4177 55.0675C59.4177 55.0675 60.2742 54.782 60.1314 53.8541C58.4184 53.1404 55.3493 49.7143 54.6355 49.2861C54.2073 49.0006 52.2801 42.2913 52.2801 42.2913" fill="#ED9C80"/>
<path d="M51.0666 38.5083C49.5678 37.9373 48.2116 37.9373 47.0696 36.7953C45.9276 37.6518 48.4257 42.7908 49.0681 42.9336C49.7105 43.0764 50.567 45.86 50.7098 46.2883C52.7797 46.2169 53.4934 45.1463 53.4934 45.1463C52.6369 42.5053 52.4942 39.0079 51.0666 38.5083Z" fill="#C5E6EF"/>
<path d="M49.9246 38.651C49.8532 38.2941 49.5677 37.9372 49.4964 37.5804C49.425 37.2235 49.4964 36.7239 49.7105 36.4384C49.8532 36.2242 50.0674 36.0815 50.2101 35.9387C50.9952 35.2963 51.2808 34.7967 50.9953 33.7974C50.9239 33.5119 50.8525 33.1551 50.8525 32.8696C50.8525 32.5841 50.9239 32.2985 51.2808 32.2272C51.4949 32.2272 51.6376 32.2272 51.709 32.4413C51.7804 32.5841 51.6376 33.5119 51.9945 32.9409C52.28 32.4413 52.5655 32.3699 52.5655 31.2279C52.5655 31.0852 52.4941 30.5142 52.6369 30.4428C53.2079 30.7997 53.3506 31.5134 53.422 32.0131C53.8503 31.8703 53.9217 31.2279 53.9217 31.0138C53.9217 30.5855 53.8503 30.2287 53.7075 29.8718C52.9938 28.3729 52.28 28.0874 51.6376 27.8019C50.9952 27.5164 50.4243 27.3022 49.7105 27.3022C48.9967 27.3022 48.2116 27.5164 48.0688 28.016C47.141 27.8019 46.6413 28.587 46.4272 28.8725C46.1417 29.3008 45.8562 29.729 45.7134 30.2287C45.4993 30.9424 45.4279 31.7275 45.2138 32.4413C45.0711 33.0123 44.7856 33.6547 44.3573 34.0829C43.9291 34.5112 43.2867 34.5112 42.787 34.8681C42.1447 35.3677 41.8592 36.1528 41.8592 36.8666C41.8592 37.6517 42.2874 38.5082 41.7878 39.222C41.645 39.4361 41.4309 39.6503 41.2881 39.8644C40.9313 40.4354 41.0026 41.1491 41.2881 41.7202C41.645 42.2912 42.2874 42.8622 42.8584 43.0763C43.4294 43.2904 43.929 43.3618 44.5714 43.2904C45.7134 43.219 46.6413 43.2904 47.7833 42.2912C48.4257 41.7202 47.9975 41.3633 48.6399 40.7923C48.9967 40.4354 49.4964 40.2926 49.7819 39.8644C49.9246 39.5789 49.996 39.0792 49.9246 38.651Z" fill="#023D5F"/>
</svg>
